<?xml version="1.0" standalone="no"?>
<!DOCTYPE svg PUBLIC "-//W3C//DTD SVG 20010904//EN"
 "http://www.w3.org/TR/2001/REC-SVG-20010904/DTD/svg10.dtd">
<svg version="1.0" xmlns="http://www.w3.org/2000/svg"
 width="150.000000pt" height="150.000000pt" viewBox="0 0 150.000000 150.000000"
 preserveAspectRatio="xMidYMid meet">
<metadata>
Created by potrace 1.11, written by Peter Selinger 2001-2013
</metadata>
<g transform="translate(0.000000,150.000000) scale(0.100000,-0.100000)"
fill="#000000" stroke="none">
<path d="M474 1190 c-16 -10 -128 -90 -249 -177 l-220 -160 0 -279 0 -278 140
-1 140 0 3 62 3 61 -68 0 c-37 0 -75 0 -84 1 -13 1 -15 25 -16 185 l0 184 156
113 c86 62 170 123 187 136 l31 23 44 -30 c24 -16 57 -40 73 -53 l29 -23 -69
-49 c-38 -26 -71 -50 -73 -51 -3 -3 -5 -419 -2 -529 l1 -30 247 0 248 0 5 255
c3 140 3 266 1 278 -2 15 -28 41 -72 74 -38 27 -69 53 -69 56 1 4 32 28 70 54
l69 48 148 -107 c123 -88 191 -137 223 -161 10 -7 7 -363 -3 -369 -6 -4 -47
-6 -92 -6 l-81 0 1 -51 c0 -28 3 -55 7 -61 5 -8 247 -13 291 -6 4 0 7 125 7
276 l0 274 -112 81 c-62 45 -122 88 -133 96 -11 8 -60 43 -110 79 -49 35 -95
68 -101 73 -40 34 -45 32 -171 -59 l-121 -88 -69 47 c-37 26 -93 66 -124 89
l-56 42 -29 -19z m336 -354 c73 -49 70 -37 69 -235 l-1 -181 -26 -1 c-31 -1
-213 -1 -224 0 -5 1 -8 84 -8 185 l0 184 63 45 c34 25 67 42 72 39 6 -3 30
-19 55 -36z"/>
</g>
</svg>
