<svg id="Group_19" data-name="Group 19" xmlns="http://www.w3.org/2000/svg" width="287.68" height="69.669" viewBox="0 0 287.68 69.669">
  <path id="Path_41" data-name="Path 41" d="M1161.178,136.933h0V189.9q.7-1.512,1.728-3.306a82.759,82.759,0,0,1,12.414-16.787q7.729-8.242,8.341-8.241c-.135-.407-.135-.543,0-.407a46.291,46.291,0,0,1,4.273-3.459q.609-2.035,2.035-2.035v.2q0-.2,1.626-1.628t2.036-1.424l.814-1.017a6.886,6.886,0,0,1,.812-1.017q-2.032-1.019-7.526,3.866-1.224.609-3.868,2.238a57.135,57.135,0,0,0-11.191,9.969q-2.441,2.445-7.121,7.733c-.543.678-1.627,1.37-1.423,1.017,1.276-2.219,1.837-2.252,1.837-2.93,1.129-1.93,3-3.364,4.58-5.14,1.305-1.471,2.288-3.3,3.552-4.75q2.036-1.83,6.207-5.8a48.5,48.5,0,0,1,10.071-7.224q5.09-3.049,9.971-6.306,9.562-5.7,10.784-4.883l2.848-1.424a8.708,8.708,0,0,1,1.629-.2c.271,0-46.6-.011-54.429-.011m60.087,0h0c.3.2.58.4.853.622l4.477,3.663q3.052,2.645,3.052,4.475,0,2.443-3.866,4.883-1.629,1.224-5.494,3.663a3.206,3.206,0,0,1-3.054,1.425v.2a42.446,42.446,0,0,1-4.883,3.051q-.2.2-.812.814v.2a5.154,5.154,0,0,1-2.036.611,55.762,55.762,0,0,1,5.088-5.29q10.581-7.122,10.58-11.394,0-1.019-2.645-1.019t-3.663,1.019l-5.9,2.849a79.321,79.321,0,0,0-12,7.527c-.544.408-.814.679-.814.814q-2.036.407-8.548,6.512a10.008,10.008,0,0,0-1.933,1.22c-1.609,1.137-1.1,2.239-2.95,2.239l-1.017,1.627v.2a5.743,5.743,0,0,1-1.832,1.833q-.2.2-.2,0h-.2q-.407.4-1.22,1.22l-1.628,2.443h-.2c.626,2.405-.825,1.787-2.442,3.866h-.2v1.017q-.814,0-2.645,3.255l-2.238,2.442-1.22,3.255-1.426,2.034q-1.221,1.426-.611,1.426v.2c-1.614,0-1.194,6.537-1.22,7.122q0,3.254,3.46,5.086c.271.271.753.31,1.423.406,6.914.99,18.074-9.378,23.1-13.632,4-3.391,10.028-10.089,18.846-19.18a5.436,5.436,0,0,1,1.095-.908c2.029-2.257,4.5-3.936,6.648-5.957q2.032-1.83,6.2-5.8a48.577,48.577,0,0,1,10.073-7.224q5.087-3.049,9.971-6.306,9.563-5.7,10.784-4.883l2.848-1.424a8.682,8.682,0,0,1,1.629-.2C1264.746,136.944,1228.284,136.933,1221.265,136.933Zm48.87,0h6.853V142.7a16.6,16.6,0,0,0-1.525-1.479q-2.238-1.832-4.477-3.663C1270.714,137.335,1270.429,137.129,1270.134,136.933Zm6.853,11.831h0a13.354,13.354,0,0,1-2.338,1.813q-1.626,1.224-5.493,3.663a3.2,3.2,0,0,1-3.052,1.425v.2a42.728,42.728,0,0,1-4.885,3.051q-.2.2-.814.814v.2a5.147,5.147,0,0,1-2.035.611,55.712,55.712,0,0,1,5.088-5.29q10.579-7.122,10.58-11.394,0-1.019-2.646-1.019t-3.662,1.019l-5.9,2.849a79.384,79.384,0,0,0-12.005,7.527q-.814.612-.814.814-2.033.407-8.546,6.512a10.025,10.025,0,0,0-1.933,1.22c-1.608,1.137-1.1,2.239-2.95,2.239l-1.017,1.627v.2a5.753,5.753,0,0,1-1.832,1.833c-.137.135-.2.135-.2,0h-.205l-1.22,1.22-1.629,2.443h-.2c1.269,2.533-.439,1.864-2.441,3.866h-.2v1.017q-.81,0-2.643,3.255l-2.24,2.442-1.22,3.255-1.423,2.034q-1.222,1.426-.612,1.426v.2c-1.614,0-1.194,6.537-1.22,7.122q0,3.254,3.46,5.086c.27.271.779.2,1.423.406,2.583.846,6.05-.174,9.351-2.4,4.981-3.364,10.331-8.684,13.743-11.232,4.2-3.137,10.41-9.631,19.23-18.72q1.015-1.016,1.423-1.017c.679,0-1.226,1.206-2.038,2.7-.384.637-1.239,2.559-5.555,7.156-.288.306-.511,1.16-1.513.956-.949,1.008-1.267,2.52-2.192,3.611-3.3,3.889-7.163,7.783-11.084,12.234a31.761,31.761,0,0,1-10.987,9.361,20.976,20.976,0,0,1-4.351,1.493h48.808ZM1217.875,206.6h-38.565a20.965,20.965,0,0,0,4.35-1.493,31.783,31.783,0,0,0,10.988-9.361q7.527-8.545,14.04-15.463,2.62-2.764,4.4-4.686a2.375,2.375,0,0,0,1.331-1.012q2.828-3.2,4.839-5.354c.162-.152.369-.368.618-.65.046-.05.092-.1.133-.15q.853-.9,1.531-1.58a57.086,57.086,0,0,1,11.191-9.969q2.645-1.629,3.866-2.238,5.494-4.882,7.529-3.866a6.726,6.726,0,0,0-.814,1.017l-.814,1.017q-.405,0-2.035,1.424t-1.626,1.628v-.2q-1.426,0-2.036,2.035a46.173,46.173,0,0,0-4.272,3.459c-.137-.137-.137,0,0,.407q-.612,0-8.343,8.241a82.813,82.813,0,0,0-12.412,16.787q-3.256,5.7-3.256,8.546a14.191,14.191,0,0,0,1.527,5.594Q1211.483,203.893,1217.875,206.6Zm-48.87,0h-7.828v-5.867Q1162.616,203.894,1169.006,206.6Z" transform="translate(-1161.178 -136.933)" fill="#004987" fill-rule="evenodd"/>
  <path id="Path_42" data-name="Path 42" d="M1554.988,232.359c-1.527-1.672-4.018-2.522-7.4-2.522-3.562,0-6.195.854-7.823,2.531s-2.451,4.389-2.451,8.066.761,6.389,2.265,8.061,3.951,2.535,7.261,2.535c3.593,0,6.261-.858,7.929-2.544s2.513-4.394,2.513-8.053C1557.28,236.744,1556.51,234.027,1554.988,232.359Zm-2.668,15.066c-1.022,1.381-2.712,2.084-5.031,2.084s-4.026-.7-5.044-2.088c-1.04-1.4-1.567-3.765-1.567-7.022,0-3.19.531-5.531,1.584-6.96,1.035-1.4,2.726-2.111,5.026-2.111,2.332,0,4.026.7,5.04,2.084,1.035,1.407,1.557,3.77,1.557,7.022S1553.36,246.022,1552.32,247.425Z" transform="translate(-1382.563 -191.399)" fill="#004987" fill-rule="evenodd"/>
  <path id="Path_43" data-name="Path 43" d="M1489.276,251.033c-3.417,0-5.921-.842-7.442-2.5s-2.289-4.372-2.289-8.091c0-3.65.824-6.357,2.448-8.044s4.218-2.553,7.7-2.553a19.872,19.872,0,0,1,2.724.193c.948.126,2.175.356,3.646.684a1.8,1.8,0,0,1,.518.192.506.506,0,0,1,.23.422v4.06a.569.569,0,0,1-.3.551,1.954,1.954,0,0,1-.849.112c-.374,0-.853-.186-1-1.07-.021-.1-.038-.2-.053-.281l-.026-.144a3.928,3.928,0,0,0-1.418-2.516,5.841,5.841,0,0,0-3.25-.712c-2.471,0-4.268.7-5.343,2.076s-1.63,3.743-1.63,6.992c0,3.2.525,5.543,1.562,6.974,1.018,1.4,2.692,2.106,4.974,2.106a9.2,9.2,0,0,0,2.138-.233,6.084,6.084,0,0,0,1.709-.686,3.428,3.428,0,0,0,1.08-2.04,3.252,3.252,0,0,1,.1-.384,9.063,9.063,0,0,0,.172-1.029c.111-.88.68-1.012,1.009-1.012h.24a1.167,1.167,0,0,1,.679.124.6.6,0,0,1,.21.511v4.51a.7.7,0,0,1-.244.549,1.82,1.82,0,0,1-.637.278,27.624,27.624,0,0,1-3.378.73A23.217,23.217,0,0,1,1489.276,251.033Z" transform="translate(-1345.983 -191.402)" fill="#004987" fill-rule="evenodd"/>
  <path id="Path_44" data-name="Path 44" d="M1716.857,173.926a14.53,14.53,0,0,1-2.436-.221,30.811,30.811,0,0,1-3.073-.745,1.7,1.7,0,0,1-.664-.312.649.649,0,0,1-.211-.515l.167-4.548a.848.848,0,0,1,.271-.656,1.3,1.3,0,0,1,.728-.136.981.981,0,0,1,1.114.968c.015.269.039.512.07.723a4.854,4.854,0,0,0,1.24,2.989,4.106,4.106,0,0,0,2.876.9,5.555,5.555,0,0,0,3.588-1.067,3.446,3.446,0,0,0,1.292-2.853,3.2,3.2,0,0,0-.694-2.138,6.229,6.229,0,0,0-2.439-1.566c-.618-.262-1.489-.591-2.593-.979a11.508,11.508,0,0,1-2.348-1.015,4.88,4.88,0,0,1-2.47-4.583,4.786,4.786,0,0,1,1.864-3.985,8.036,8.036,0,0,1,5.039-1.425,16.1,16.1,0,0,1,2.55.2,14.333,14.333,0,0,1,2.372.6l.406.138a.814.814,0,0,1,.386.241.552.552,0,0,1,.122.383v4.1a.561.561,0,0,1-.286.548,1.469,1.469,0,0,1-.713.115,1.11,1.11,0,0,1-1.042-.561,3.273,3.273,0,0,1-.279-1.564,2.192,2.192,0,0,0-.3-.941,3.247,3.247,0,0,0-.7-.947,3.08,3.08,0,0,0-1.126-.618,5.151,5.151,0,0,0-1.532-.206,4.35,4.35,0,0,0-2.853.844,2.853,2.853,0,0,0-.986,2.334,3.3,3.3,0,0,0,.537,1.956,4.119,4.119,0,0,0,1.813,1.291c.624.259,1.528.583,2.764.991a14.526,14.526,0,0,1,2.455.984,6.753,6.753,0,0,1,2.387,2.108,5.133,5.133,0,0,1,.7,2.781,5.694,5.694,0,0,1-2.14,4.709A9.265,9.265,0,0,1,1716.857,173.926Z" transform="translate(-1492.212 -142.594)" fill="#004987" fill-rule="evenodd"/>
  <path id="Path_45" data-name="Path 45" d="M1665.169,173.926a14.491,14.491,0,0,1-2.437-.221,31.069,31.069,0,0,1-3.076-.745,1.632,1.632,0,0,1-.664-.314.649.649,0,0,1-.212-.512l.168-4.548a.844.844,0,0,1,.276-.658,1.29,1.29,0,0,1,.723-.134.979.979,0,0,1,1.114.969c.02.29.042.53.071.721a4.865,4.865,0,0,0,1.242,2.99,4.1,4.1,0,0,0,2.877.9,5.566,5.566,0,0,0,3.588-1.067,3.451,3.451,0,0,0,1.291-2.852,3.2,3.2,0,0,0-.693-2.138,6.262,6.262,0,0,0-2.44-1.566c-.612-.26-1.509-.6-2.595-.979a11.492,11.492,0,0,1-2.346-1.016,4.88,4.88,0,0,1-2.474-4.582,4.784,4.784,0,0,1,1.865-3.985,8.052,8.052,0,0,1,5.042-1.425,16.167,16.167,0,0,1,2.55.2,14.4,14.4,0,0,1,2.371.6l.406.138a.867.867,0,0,1,.381.234.579.579,0,0,1,.127.39v4.1a.567.567,0,0,1-.288.547,1.466,1.466,0,0,1-.711.116,1.114,1.114,0,0,1-1.044-.559,3.288,3.288,0,0,1-.276-1.566,2.177,2.177,0,0,0-.3-.94,3.273,3.273,0,0,0-.7-.948,3.091,3.091,0,0,0-1.125-.618,5.122,5.122,0,0,0-1.53-.206,4.365,4.365,0,0,0-2.856.844,2.852,2.852,0,0,0-.982,2.334,3.3,3.3,0,0,0,.537,1.956,4.1,4.1,0,0,0,1.81,1.291c.628.261,1.534.585,2.766.991a14.3,14.3,0,0,1,2.453.984,6.782,6.782,0,0,1,2.389,2.107,5.153,5.153,0,0,1,.7,2.781,5.7,5.7,0,0,1-2.143,4.709A9.26,9.26,0,0,1,1665.169,173.926Z" transform="translate(-1459.48 -142.594)" fill="#004987" fill-rule="evenodd"/>
  <path id="Path_46" data-name="Path 46" d="M1611.01,155.2c-1.522-1.673-4.013-2.522-7.4-2.522-3.562,0-6.195.854-7.818,2.531s-2.451,4.389-2.451,8.066.761,6.384,2.261,8.061,3.955,2.535,7.265,2.535c3.593,0,6.26-.858,7.929-2.544s2.509-4.394,2.509-8.052C1613.3,159.592,1612.532,156.875,1611.01,155.2Zm-2.668,15.066c-1.017,1.381-2.708,2.084-5.026,2.084s-4.026-.7-5.048-2.088c-1.04-1.4-1.567-3.761-1.567-7.022,0-3.19.536-5.531,1.589-6.96,1.035-1.4,2.726-2.11,5.026-2.11,2.327,0,4.022.7,5.039,2.084,1.031,1.411,1.553,3.774,1.553,7.022S1609.382,168.866,1608.343,170.269Z" transform="translate(-1418.041 -142.541)" fill="#004987" fill-rule="evenodd"/>
  <path id="Path_47" data-name="Path 47" d="M1489.28,173.877c-3.417,0-5.922-.842-7.444-2.5s-2.29-4.376-2.29-8.092c0-3.651.824-6.358,2.448-8.044s4.218-2.553,7.7-2.553a19.78,19.78,0,0,1,2.721.193c.943.125,2.171.355,3.646.684a1.856,1.856,0,0,1,.521.193.5.5,0,0,1,.229.421v4.06a.573.573,0,0,1-.3.549,1.807,1.807,0,0,1-.855.114c-.374,0-.851-.186-1-1.07-.037-.179-.063-.329-.081-.432a3.919,3.919,0,0,0-1.417-2.509,5.851,5.851,0,0,0-3.25-.712c-2.473,0-4.271.7-5.341,2.075s-1.631,3.744-1.631,6.993c0,3.2.524,5.542,1.558,6.975,1.018,1.4,2.693,2.106,4.977,2.106a9.209,9.209,0,0,0,2.138-.234,6.144,6.144,0,0,0,1.708-.686,3.447,3.447,0,0,0,1.077-2.04,3.12,3.12,0,0,1,.1-.383,9.452,9.452,0,0,0,.17-1.03c.111-.881.682-1.012,1.012-1.012h.24a1.172,1.172,0,0,1,.675.122.6.6,0,0,1,.214.512v4.51a.7.7,0,0,1-.246.55,1.781,1.781,0,0,1-.633.278,27.938,27.938,0,0,1-3.378.73A23.3,23.3,0,0,1,1489.28,173.877Z" transform="translate(-1345.983 -142.545)" fill="#004987" fill-rule="evenodd"/>
  <path id="Path_48" data-name="Path 48" d="M1612.48,251.655c-.3,0-.547-.3-.84-1.014-.188-.472-.369-.885-.537-1.233q-1.381-2.857-3.063-6.286c-1.008-2.066-2.251-4.582-3.7-7.49l.189,9.918c0,.127.005.306.014.542.05,3.061.622,3.556.959,3.579l.91.057a.7.7,0,0,1,.7.749.849.849,0,0,1-.179.638.884.884,0,0,1-.652.164c-.03,0-.311-.015-.311-.015-.843-.065-1.664-.1-2.447-.1s-1.607.033-2.453.1c0,0-.29.015-.318.015-.352,0-.543-.05-.659-.172a.848.848,0,0,1-.172-.63.7.7,0,0,1,.682-.748l.733-.058a1.161,1.161,0,0,0,1.078-.8,13.891,13.891,0,0,0,.335-3.955V233.351a.7.7,0,0,0-.31-.538,1.308,1.308,0,0,0-.8-.3l-.9-.029a.94.94,0,0,1-.628-.195.806.806,0,0,1-.166-.584.842.842,0,0,1,.165-.593.821.821,0,0,1,.607-.18c.032,0,.125.006.274.018.74.045,1.5.069,2.259.069a10.5,10.5,0,0,0,1.159-.068c.635-.074.69-.074.709-.074.227,0,.332,0,2.974,5.543,1.656,3.477,3.364,6.887,5.079,10.141.564-1,1.358-2.545,2.414-4.694,1.206-2.457,2.461-5.144,3.729-7.985.208-.447.427-.966.652-1.549.411-1.023.689-1.4,1.025-1.4.031,0,.125.006.274.018.527.046,1.036.069,1.514.069.512,0,1.029-.014,1.537-.043l.824-.044a.792.792,0,0,1,.594.167.824.824,0,0,1,.164.606.8.8,0,0,1-.175.608.816.816,0,0,1-.612.171l-.866.028a1.04,1.04,0,0,0-.847.349,2.545,2.545,0,0,0-.253,1.351V248a2.316,2.316,0,0,0,.234,1.277,1.1,1.1,0,0,0,.85.365l.975.091.039.018a.678.678,0,0,1,.7.72.815.815,0,0,1-.192.644.869.869,0,0,1-.61.165c-.051,0-.153,0-.308-.009l-.166-.006c-1.076-.065-2.087-.1-3.013-.1s-1.948.028-3,.084l-.045,0c-.234.016-.381.026-.447.026a.8.8,0,0,1-.613-.172.864.864,0,0,1-.16-.63.674.674,0,0,1,.689-.735l.04-.018.051,0,.955-.087a1,1,0,0,0,.808-.319,2.492,2.492,0,0,0,.225-1.323v-12.49l-2.942,6.548q-.483,1.08-1.212,2.674l-.545,1.2c-.948,2.076-1.7,3.76-2.006,4.5l-.052.1C1613.093,251.314,1612.812,251.655,1612.48,251.655Z" transform="translate(-1422.21 -192.056)" fill="#004987" fill-rule="evenodd"/>
  <path id="Path_49" data-name="Path 49" d="M1800.683,251.4c-.125,0-.287-.008-.485-.027-.18-.019-.291-.027-.344-.027-.009,0-.036,0-.083.011a2.13,2.13,0,0,1-.238.018.752.752,0,0,1-.738-.412.739.739,0,0,0-.051-.112s-.075-.1-.2-.269l-.4-.544c-.535-.721-1.073-1.446-1.62-2.168l-9.987-12.88.225,10.654v.54c.062,3.176.7,3.562.973,3.582l.91.057a.7.7,0,0,1,.705.749.662.662,0,0,1-.831.8c-.029,0-.312-.015-.312-.015-.848-.065-1.673-.1-2.458-.1s-1.6.033-2.434.1c0,0-.288.015-.318.015a.965.965,0,0,1-.619-.136c-.131-.111-.183-.3-.183-.666a.673.673,0,0,1,.66-.749l.724-.058a1.112,1.112,0,0,0,1.05-.776,14.542,14.542,0,0,0,.318-3.975V233.446a.717.717,0,0,0-.312-.548,1.226,1.226,0,0,0-.773-.292l-.9-.03a.864.864,0,0,1-.613-.178.814.814,0,0,1-.179-.595.638.638,0,0,1,.779-.778l.795.044c.49.029.962.043,1.405.043.172,0,.447-.014.817-.043.4-.027.682-.044.887-.044a1.5,1.5,0,0,1,.532.076.91.91,0,0,1,.345.235l.027.031.017.039c.007,0,.146.2.7.964.434.6.918,1.251,1.521,2.035l9.636,12.543-.183-10.192a3.178,3.178,0,0,1-.015-.384c-.062-3.352-.682-3.73-.947-3.737l-.957-.029a.69.69,0,0,1-.548-.192.878.878,0,0,1-.165-.61.809.809,0,0,1,.17-.625c.109-.107.3-.153.661-.153.031,0,.138.006.315.017.818.065,1.644.1,2.458.1s1.633-.033,2.437-.1c.2-.013.29-.018.319-.018.372,0,.568.05.678.171.1.088.152.276.152.607a.868.868,0,0,1-.15.591.8.8,0,0,1-.544.21l-.731.03a1.049,1.049,0,0,0-1.029.744,14.455,14.455,0,0,0-.327,4.006v10.163c0,.986.023,1.928.069,2.8.012.129.015.222.015.251a1.106,1.106,0,0,1-.143.541A.544.544,0,0,1,1800.683,251.4Z" transform="translate(-1537.606 -192.151)" fill="#004987" fill-rule="evenodd"/>
  <path id="Path_50" data-name="Path 50" d="M1859.6,251.374c-.047,0-.136,0-.269-.01l-.121-.005c-1.139-.066-2.206-.1-3.266-.1s-2.159.033-3.288.1l-.136.005c-.136.005-.225.009-.272.009a.821.821,0,0,1-.615-.179.838.838,0,0,1-.172-.623.683.683,0,0,1,.7-.733.582.582,0,0,1,.133-.017l1.057-.057a.944.944,0,0,0,.8-.359,2.351,2.351,0,0,0,.26-1.312V243.2c0-.427-.373-1.506-2.152-4.216-.22-.329-.4-.609-.544-.833l-.753-1.166c-2.395-3.744-3.33-4.351-3.675-4.38l-.553-.029c-.738-.056-.818-.563-.818-.778a.8.8,0,0,1,.184-.613.854.854,0,0,1,.621-.16c.039,0,.168.006.391.017,1.136.063,2.234.1,3.264.1,1.053,0,2.13-.031,3.291-.1.226-.011.355-.017.394-.017a.83.83,0,0,1,.659.19.9.9,0,0,1,.143.582.693.693,0,0,1-.691.763.606.606,0,0,1-.14.016l-.593.028a1.522,1.522,0,0,0-.8.193.511.511,0,0,0-.171.435,1.374,1.374,0,0,0,.106.478,7.683,7.683,0,0,0,.493.927l3.761,6.182c1.247-1.978,2.213-3.617,2.949-5a8.753,8.753,0,0,0,1.166-2.667.43.43,0,0,0-.148-.384,1.292,1.292,0,0,0-.667-.164l-.468-.029a.809.809,0,0,1-.535-.189.882.882,0,0,1-.136-.59c0-.338.043-.512.15-.62.112-.126.323-.153.623-.153.028,0,.119.005.282.016.827.066,1.559.1,2.274.1.73,0,1.5-.032,2.289-.1.16-.012.258-.018.29-.018.3,0,.516.029.631.175a.924.924,0,0,1,.127.6.686.686,0,0,1-.621.777c-.112.009-.2.02-.264.029a1.8,1.8,0,0,0-.783.3,3.455,3.455,0,0,0-.775.778c-.124.171-.4.572-.984,1.494q-.738,1.148-3.024,4.783c-.147.242-.359.573-.637.99a5.96,5.96,0,0,0-1.109,2.224v4.917a2.291,2.291,0,0,0,.255,1.3.987.987,0,0,0,.81.366l1.057.058a.644.644,0,0,1,.12.019.684.684,0,0,1,.695.731.806.806,0,0,1-.192.637A.87.87,0,0,1,1859.6,251.374Z" transform="translate(-1577.979 -192.151)" fill="#004987" fill-rule="evenodd"/>
  <path id="Path_51" data-name="Path 51" d="M1739.789,249.468c-.08-.009-.142-.018-.19-.026l-.841-.142a1.134,1.134,0,0,1-.659-.38,3.582,3.582,0,0,1-.584-1.106l-6.425-17.092c-.044-.115-.173-.305-.562-.305h-1.292a.77.77,0,0,0-.442.1.881.881,0,0,0-.314.46l-6.646,16.088a7.421,7.421,0,0,1-.938,1.827,1.182,1.182,0,0,1-.792.46l-.682.089c-.031.009-.075.018-.115.026a.64.64,0,0,0-.575.717.877.877,0,0,0,.159.619.773.773,0,0,0,.593.186c.062,0,.195-.013.447-.031.885-.057,1.735-.084,2.518-.084s1.637.031,2.5.1l.093,0c.133.009.221.013.257.013h.115a.748.748,0,0,0,.584-.182.883.883,0,0,0,.159-.624.7.7,0,0,0-.695-.748l-.818-.057a1.384,1.384,0,0,1-.81-.27.74.74,0,0,1-.248-.6,8.143,8.143,0,0,1,.513-2.066c.332-.973.836-2.274,1.535-3.978h6.508c.734,1.845,1.274,3.239,1.637,4.265a8.98,8.98,0,0,1,.557,1.836.628.628,0,0,1-.2.491,1.177,1.177,0,0,1-.655.266l-.916.115c-.044.009-.106.018-.168.026a.634.634,0,0,0-.593.717.839.839,0,0,0,.177.628.873.873,0,0,0,.633.177c.057,0,.2-.013.425-.027l.061,0c1.049-.057,2.058-.084,3-.084.912,0,1.916.031,2.982.1l.155,0c.16.009.266.013.319.013a.813.813,0,0,0,.606-.173.846.846,0,0,0,.181-.633C1740.342,249.556,1739.944,249.472,1739.789,249.468Zm-13.566-8.579,2.686-6.951c.69,1.646,1.243,3,1.682,4.115.442,1.137.787,2.088,1.035,2.836Z" transform="translate(-1497.443 -191.765)" fill="#004987" fill-rule="evenodd"/>
  <path id="Path_52" data-name="Path 52" d="M1691.58,232.3a6.122,6.122,0,0,0-4.261-1.265c-.451,0-1.345.022-2.553.053-1.305.04-2.327.058-3.115.058-1.128,0-2.323-.031-3.539-.1-.244-.009-.389-.014-.434-.014a.889.889,0,0,0-.642.164.843.843,0,0,0-.164.606.748.748,0,0,0,.787.779l.9.057a1.033,1.033,0,0,1,.827.368,2.3,2.3,0,0,1,.252,1.3V248.1a2.331,2.331,0,0,1-.266,1.3.993.993,0,0,1-.819.376l-.9.057-.053,0-.04.018a.675.675,0,0,0-.695.734.667.667,0,0,0,.805.805c.062,0,.212-.013.447-.027l.04,0c1.053-.057,2.058-.084,3-.084s1.925.027,2.96.084l.062,0c.23.014.371.027.438.027a.667.667,0,0,0,.787-.805.678.678,0,0,0-.69-.734l-.018-.009-.938-.062a1.01,1.01,0,0,1-.814-.35,2.448,2.448,0,0,1-.243-1.323v-5.442h1.938a22.949,22.949,0,0,0,4.022-.257,5.286,5.286,0,0,0,2.208-.885,4.858,4.858,0,0,0,1.571-2.119,8.489,8.489,0,0,0,.513-3.106A5.235,5.235,0,0,0,1691.58,232.3Zm-3.062,7.867c-.748.628-2.234.943-4.42.943h-1.389v-7.314c0-.075,0-.226.018-.447.009-.155.027-.35.044-.575l.009-.1c.407-.036.818-.062,1.217-.08.527-.027,1.133-.036,1.8-.036a3.925,3.925,0,0,1,2.969.92,4.887,4.887,0,0,1,.854,3.274C1689.62,238.4,1689.253,239.548,1688.518,240.163Z" transform="translate(-1470.936 -192.155)" fill="#004987" fill-rule="evenodd"/>
  <path id="Path_53" data-name="Path 53" d="M1555.882,172.571a1.4,1.4,0,0,1-.624-.137,4.407,4.407,0,0,1-1.142-1.026,32.063,32.063,0,0,1-1.947-2.8l-3.177-4.969a6.319,6.319,0,0,0,3.588-1.58,5.228,5.228,0,0,0,1.248-3.779,4.435,4.435,0,0,0-1.243-3.54c-.823-.69-2.216-1.027-4.261-1.027-.62,0-1.628.027-3.009.08-1.358.057-2.442.088-3.226.088-.942,0-1.92-.027-2.991-.084-.274-.018-.438-.027-.5-.027-.336,0-.522.049-.628.16a.8.8,0,0,0-.173.61.747.747,0,0,0,.788.779l.9.058a1,1,0,0,1,.823.368,2.253,2.253,0,0,1,.256,1.3v13.787a2.463,2.463,0,0,1-.252,1.3.962.962,0,0,1-.8.368l-.933.057-.053,0-.044.018a.683.683,0,0,0-.69.734.849.849,0,0,0,.168.619.836.836,0,0,0,.633.186c.066,0,.208-.014.438-.027l.058,0c1.044-.058,2.048-.084,2.991-.084.925,0,1.938.031,3.013.1l.151,0c.164.009.27.014.323.014a.81.81,0,0,0,.6-.173.9.9,0,0,0,.159-.633.667.667,0,0,0-.681-.725l-.044-.018-.916-.062a1.025,1.025,0,0,1-.832-.368,2.307,2.307,0,0,1-.256-1.3v-6.756a4.593,4.593,0,0,1,2.1.372,4.194,4.194,0,0,1,.677.8c.341.464.73,1.04,1.155,1.717l2.447,3.889c.646,1.017,1.235,1.969,1.752,2.849.013.018.022.035.031.044a.67.67,0,0,0,.407.306,2.649,2.649,0,0,0,.681.062,7.768,7.768,0,0,0,.792-.062c.359-.036.571-.053.7-.053a8.495,8.495,0,0,1,.885.053c.389.044.549.062.619.062a.732.732,0,0,0,.619-.226,1.137,1.137,0,0,0,.155-.7C1556.621,173.022,1556.537,172.611,1555.882,172.571Zm-10.659-9.9c-.212,0-.473-.009-.783-.022-.248-.013-.527-.031-.836-.058V156.36c0-.124.009-.288.022-.478.009-.15.026-.336.044-.548q.8-.067,1.42-.093c.447-.018.845-.031,1.2-.031a5.219,5.219,0,0,1,3.354.8,3.693,3.693,0,0,1,.876,2.832,3.482,3.482,0,0,1-1.137,2.96A7.264,7.264,0,0,1,1545.223,162.674Z" transform="translate(-1382.871 -143.198)" fill="#004987" fill-rule="evenodd"/>
  <path id="Path_54" data-name="Path 54" d="M1799.118,174.728a14.662,14.662,0,0,1-1.155-1.093,6.356,6.356,0,0,0,1.022-1.925,8,8,0,0,0,.39-2.557q0-.332-.027-.73c-.018-.266-.048-.571-.088-.916l-.022-.226H1795.8l.323.412a8.966,8.966,0,0,1,1.058,1.562,2.386,2.386,0,0,1,.208.96,6.1,6.1,0,0,1-.159,1.438,4.546,4.546,0,0,1-.283.81l-3.863-4.274a5.718,5.718,0,0,0,1.876-1.429,3.265,3.265,0,0,0,.783-2.106,2.865,2.865,0,0,0-.978-2.265,3.77,3.77,0,0,0-2.562-.841,4.381,4.381,0,0,0-2.916.885,3.106,3.106,0,0,0-1.066,2.509,4.155,4.155,0,0,0,.465,1.916,6.749,6.749,0,0,0,1.195,1.588,6.142,6.142,0,0,0-2.08,1.491,3.337,3.337,0,0,0-.836,2.23,3.589,3.589,0,0,0,1.487,2.938,5.948,5.948,0,0,0,3.734,1.133,7.481,7.481,0,0,0,2.009-.266,6.984,6.984,0,0,0,1.668-.7l.65.69h3.584l.115-.482A6.042,6.042,0,0,1,1799.118,174.728Zm-8.031-11.389a1.386,1.386,0,0,1,1.1-.42,1.249,1.249,0,0,1,1,.42,1.77,1.77,0,0,1,.385,1.226,3.1,3.1,0,0,1-.372,1.491,4.146,4.146,0,0,1-.973,1.177,8.624,8.624,0,0,1-1.168-1.438,2.33,2.33,0,0,1-.354-1.163A1.942,1.942,0,0,1,1791.087,163.34Zm3.066,11.185a5.565,5.565,0,0,1-1.323.146,3.263,3.263,0,0,1-2.261-.788,2.551,2.551,0,0,1-.863-2.013,3.323,3.323,0,0,1,.3-1.433,3.13,3.13,0,0,1,.761-.991l4.2,4.787A3.947,3.947,0,0,1,1794.153,174.525Z" transform="translate(-1540.652 -148.156)" fill="#004987" fill-rule="evenodd"/>
</svg>
