<svg xmlns="http://www.w3.org/2000/svg" width="135" height="17"><g fill="none" fill-rule="evenodd"><path fill="#666" d="M17.6994182 3.0953c0-.275.225-.5.502-.5.279 0 .504.225.504.5v8.995c0 .276-.225.5-.504.5-.277 0-.502-.224-.502-.5v-8.995zm0-2.6323c0-.246.216-.447.483-.447.268 0 .484.201.484.447v.072c0 .247-.216.449-.484.449-.267 0-.483-.202-.483-.449V.463zm35.1426 2.6323c0-.277.216-.5.485-.5.266 0 .482.223.482.5v8.995c0 .276-.216.5-.482.5-.269 0-.485-.224-.485-.5v-8.995zm0-2.6323c0-.246.216-.447.485-.447.266 0 .482.201.482.447v.072c0 .247-.216.449-.482.449-.269 0-.485-.202-.485-.449V.463zm37.7211 10.1289c-1.625 0-2.948-1.357-2.948-3.029 0-1.67 1.323-3.03 2.948-3.03s2.95 1.36 2.95 3.03c0 1.672-1.325 3.029-2.95 3.029m0-7.996c-2.667 0-4.835 2.228-4.835 4.967v7.956c0 .518.408.94.914.94.504 0 .913-.422.913-.94v-4.033c0-.016.018-.024.03-.014.823.662 1.855 1.058 2.978 1.058 2.667 0 4.8374-2.227 4.8374-4.967 0-2.739-2.1704-4.967-4.8374-4.967m-44.4907 1.0439c-2.112 0-3.828 1.772-3.828 3.953 0 2.183 1.716 3.955 3.828 3.955 2.109 0 3.825-1.772 3.825-3.955 0-2.181-1.716-3.953-3.825-3.953m0 8.951c-2.667 0-4.837-2.241-4.837-4.998 0-2.755 2.17-4.997 4.837-4.997 2.665 0 4.835 2.242 4.835 4.997 0 2.757-2.17 4.998-4.835 4.998m14.2329-.0004c-2.693 0-4.884-2.24-4.884-4.999 0-2.755 2.191-4.996 4.884-4.996 1.242 0 2.427.479 3.335 1.348.207.196.216.527.024.739-.192.208-.516.219-.719.023-.719-.688-1.659-1.068-2.64-1.068-2.132 0-3.863 1.774-3.863 3.954 0 2.183 1.731 3.957 3.863 3.957.983 0 1.921-.38 2.64-1.069.203-.197.527-.186.721.026.192.209.182.541-.024.737-.908.869-2.093 1.348-3.337 1.348m5.8233-5.2153h7.601c.011 0 .021-.01.0200691-.021-.1200691-2.071-1.7880691-3.715-3.8200691-3.715-2.034 0-3.702 1.644-3.8210692 3.715-.0009308.011.0090692.021.0200692.021m3.801 5.215c-2.668 0-4.836-2.242-4.836-4.997 0-2.758 2.168-4.997 4.836-4.997 2.667 0 4.836 2.239 4.836 4.997 0 .113-.004.228-.011.34-.017.275-.238.487-.502.487h-8.042c-.012 0-.021.012-.019.024.378 1.771 1.909 3.103 3.738 3.103.639 0 1.272-.168 1.831-.48.244-.14.552-.046.685.207.133.252.043.569-.201.707-.707.398-1.507.609-2.315.609m-29.6672-9.944c-.246-.121-.542-.018-.662.233l-3.855 8.032c-.006.014-.026.014-.034 0l-3.855-8.032c-.118-.251-.415-.354-.66-.233-.246.123-.347.423-.229.672l4.315 8.993c.05.103.132.181.228.228l.004.002c.003.001.005.001.005.001.027.013.052.023.078.03.008.002.019.006.027.006.02.005.04.008.06.01.015.002.03.002.044.002.016 0 .032 0 .046-.002.019-.002.04-.005.059-.01.012 0 .018-.004.028-.006.027-.007.053-.017.076-.028.003-.002.005-.002.007-.003l.003-.002c.096-.047.179-.125.23-.228l4.313-8.993c.121-.249.02-.549-.228-.672m-14.6661.0557c-1.595 0-3.019.732-3.934 1.866-.011.014-.032.007-.032-.011v-1.461c0-.277-.23-.5-.515-.5-.284 0-.514.223-.514.5v8.995c0 .277.23.5.514.5l.006-.002.009.002c.297 0 .535-.231.535-.518v-4.519c0-2.106 1.764-3.817 3.931-3.817 2.17 0 3.934 1.711 3.934 3.817v4.519c0 .287.238.518.532.518.296 0 .534-.231.534-.518v-4.519c0-2.677-2.243-4.852-5-4.852m78.5211998.2949c-.606-.267-1.251-.401-1.918-.401-1.126 0-2.164.391-2.9899998 1.048v-.001c0-.475-.323-.922-.794-.993-.581-.086-1.082.362-1.082.927v8.013c0 .476.326.921.796.99.582.085 1.08-.36 1.08-.925v-4.112c0-1.696 1.3419998-3.074 2.9899998-3.074.427 0 .836.09 1.221.267.504.232 1.111-.021 1.286-.57.15-.47-.137-.97-.589-1.169m2.881 3.9087h5.818c.013 0 .022-.012.02-.024-.31-1.372-1.507-2.396-2.928-2.396-1.422 0-2.617 1.024-2.93 2.396-.002.012.007.024.02.024m2.91 5.685c-2.667 0-4.836-2.242-4.836-4.998 0-2.754 2.169-4.997 4.836-4.997 2.667 0 4.836 2.243 4.836 4.997 0 .107-.003.215-.01.317-.03.498-.429.885-.911.885h-6.66c-.015 0-.024.015-.019.028.462 1.104 1.527 1.879 2.764 1.879.531 0 1.052-.145 1.507-.417.436-.263.996-.108 1.249.343.254.452.105 1.029-.333 1.29-.732.44-1.571.673-2.423.673m13.82-5.2094-.027-.018c-.045-.028-.091-.051-.14-.076-.034-.014-.078-.031-.126-.053-.053-.024-.109-.046-.169-.062-.094-.032-.191-.062-.279-.076-.089-.018-.512-.115-1.095-.252-.718-.17-1.545-.364-2.213-.519-.449-.108-.888-.212-1.276-.304-.009-.004-.015-.006-.025-.009-.016-.011-.03-.02-.032-.022-.028-.028-.046-.06-.055-.077.086-.589 1.107-1.462 2.351-1.462.913 0 1.771.472 2.26 1.235.261.406.755.645 1.207.474.579-.218.795-.883.495-1.387-.826-1.382-2.344-2.239-3.962-2.239-2.125 0-4.124 1.514-4.279 3.24-.049.553.181 1.141.618 1.573.143.14.29.236.387.3l.027.016c.044.03.09.053.14.076.033.014.077.034.125.052.053.026.111.047.169.063.093.032.191.061.281.078.087.016.51.114 1.093.25.72.17 1.547.366 2.212.521.451.108.889.211 1.279.304.006.002.014.004.023.008.014.011.029.019.032.021.03.028.047.058.056.078-.085.588-1.108 1.461-2.352 1.461-.91 0-1.767-.468-2.255-1.23-.274-.428-.804-.665-1.269-.456-.534.241-.729.879-.437 1.364.827 1.382 2.345 2.239 3.961 2.239 2.126 0 4.125-1.512 4.279-3.24.05-.553-.181-1.139-.617-1.573-.142-.14-.29-.236-.387-.298m9.671 0-.027-.018c-.044-.028-.091-.051-.14-.076-.034-.014-.078-.031-.126-.053-.053-.024-.108-.046-.168-.062-.095-.032-.192-.062-.28-.076-.089-.018-.512-.115-1.096-.252-.717-.17-1.544-.364-2.211-.519-.449-.108-.889-.212-1.276-.304-.009-.004-.015-.006-.024-.009-.017-.011-.031-.02-.033-.022-.029-.028-.047-.06-.055-.077.085-.589 1.107-1.462 2.351-1.462.912 0 1.77.472 2.259 1.235.262.406.755.645 1.208.474.578-.218.794-.883.495-1.387-.826-1.382-2.345-2.239-3.962-2.239-2.126 0-4.124 1.514-4.279 3.24-.049.553.181 1.141.618 1.573.142.14.289.236.386.3l.027.016c.045.03.091.053.141.076.034.014.077.034.125.052.052.026.111.047.169.063.093.032.19.061.281.078.086.016.509.114 1.093.25.719.17 1.546.366 2.211.521.451.108.889.211 1.279.304.006.002.014.004.023.008.014.011.029.019.032.021.03.028.047.058.056.078-.085.588-1.106 1.461-2.35 1.461-.911 0-1.769-.468-2.255-1.229-.274-.429-.804-.666-1.268-.458-.536.24-.732.88-.439 1.365.827 1.382 2.344 2.239 3.962 2.239 2.124 0 4.123-1.512 4.276-3.24.052-.553-.18-1.139-.615-1.573-.143-.14-.291-.236-.388-.298m-52.0863998.2006 2.872-3.442c.299-.359.328-.903.007-1.243-.4-.424-1.079-.391-1.439.04l-2.653 3.179c-.008.009-.021.009-.029 0l-2.607-3.122c-.308-.37-.844-.513-1.261-.273-.511.292-.618.938-.26 1.367l2.915 3.494c.006.007.006.017 0 .024l-2.875 3.446c-.299.358-.326.901-.004 1.238.403.424 1.08.389 1.438-.039l2.654-3.181c.008-.009.021-.009.029 0l2.653 3.181c.359.428 1.036.463 1.438.039.322-.338.295-.881-.004-1.24l-2.874-3.444c-.006-.007-.006-.017 0-.024"/><path fill="#73C696" d="M10.1871182 1.0219c-.178.927-.649 1.846-1.29 2.52-.512.538-1.38 1.179-2.61 1.179-1.222 0-2.09-.649-2.605-1.194-.638-.677-1.11-1.591-1.293-2.51-.116-.579-.611-1.001-1.18-1.001h-.004c-.359 0-.696.165-.926.452-.226.283-.321.653-.262 1.015.258 1.587 1.024 3.037 2.156 4.085.294.272.609.513.941.72.011.008.011.023 0 .031-.332.207-.647.448-.941.72-1.132 1.048-1.898 2.498-2.156 4.085-.059.362.036.732.262 1.014.23.287.567.452.926.452.573 0 1.069-.423 1.181-1.005.178-.928.648-1.847 1.29-2.52.512-.538 1.38-1.179 2.611-1.179 1.221 0 2.089.649 2.604 1.193.638.677 1.11 1.592 1.293 2.51.116.581.612 1.001 1.179 1.001h.005c.359 0 .696-.165.926-.452.226-.282.321-.652.262-1.014-.258-1.587-1.024-3.037-2.156-4.085-.295-.272-.61-.513-.94-.72-.012-.008-.012-.023 0-.031.33-.207.645-.448.94-.72 1.132-1.048 1.898-2.498 2.156-4.085.059-.362-.036-.732-.262-1.015-.23-.287-.567-.452-.926-.452-.573 0-1.069.423-1.181 1.006Z"/></g></svg>