<svg id="Layer_1" xmlns="http://www.w3.org/2000/svg" viewBox="0 0 400 208.2"><style>.st2{fill:#fff}.st5{fill:#1d1d1b}</style><path id="XMLID_63_" fill="#216f4f" d="M0 63.9l25-10.1-2 41.4-4.7.1z"/><path id="XMLID_62_" fill="#4f2557" d="M13.9 202.7l3.8-34.4-10.3 3.5-6.3 19.6z"/><path id="XMLID_61_" class="st2" d="M391.6 182.4L13.1 208.2 24.5 38.9l344.2 3.2z"/><path id="XMLID_60_" d="M134.2 43.6c.8 0 1.6-.1 2.2-.3h-4.3v.1c.8.1 1.4.2 2.1.2z" fill="none"/><path id="XMLID_59_" d="M368.7 42.1l-225-2.1c-.3 1.3-.6 2.4-1 3.3l223.2 2.1 21.8 133.9-371 25.3L27.6 42.2l101.3.9c.3-.7.9-1.1 1.6-1.1.9 0 1.4.6 1.6 1.1h4.3c.6-.2 1.1-.5 1.6-1 .2-.6.5-1.4.7-2.3l-114.2-.9-11.4 169.3 378.5-25.8-22.9-140.3z" fill="#010101"/><path class="st5" d="M38.9 27.6c0-4 1.7-9.2 2.6-10.5.5-.8 1.6-1.2 2.7-1.2.7 0 1.1.4 1.1.9 0 .3-.4 1.1-.8 2.3-1.6 4.5-2.8 7.5-2.8 9.4 0 .9.3 1.3 1 1.3.9 0 2.9-1.8 4.9-5.1.6-1.1.9-1.9 1.2-1.9.4 0 1.1.4 1.1 1.1 0 .3-.6 1.3-1.8 3.2-2 3.4-3.7 5.2-5.9 5.2-2 .1-3.3-1.7-3.3-4.7zm3.5-14.9c0-1.8 2.5-2.5 3.4-2.5s1.5.5 1.5 1.5c0 1.3-1.5 2.7-3 2.7-.9 0-1.9-.6-1.9-1.7z"/><path class="st5" d="M49.3 32.4c-1.3 0-2.5-.8-2.5-2.5 0-.9.8-6.4 3.3-12.3.6-1.4 1-1.9 2.2-1.9.8 0 1.8.5 1.8 1.3 0 .5-2.5 4-3.7 11.4 4.7-9.1 7.6-13.6 9.2-13.6 1.1 0 2.5.9 2.5 2 0 .8-.9 1.1-1.2 1.4-.2.2-.7 1.5-1.4 3.7-1.1 3.5-1.3 6-1.3 6.8 0 .8.2 1.3.6 1.3 1.1 0 2.1-2 4.2-5.6.3-.6.3-1.1 1-1.1.4 0 1.2.7 1.2 1.1 0 .2-1.5 4.2-4.3 7.1-.8.8-1.6 1.2-2.4 1.2-1.9 0-3.1-1.6-3.1-4.6 0-1.3.3-3.4.9-6.2-4.2 6.8-5.2 10.5-7 10.5z"/><path class="st5" d="M77 12.3c1.2 0 1.6.2 1.6.8 0 .2-.4.6-1 1.3-4.4 6.8-7.5 12.4-9.4 16.4-.6 1.2-1.1 1.8-3.1 1.8-2.1 0-2.2-.6-2.2-4 0-8.1 1.9-13.1 3.3-13.1.9 0 2.5 1.1 2.5 1.7 0 .4-.3.9-.9 1.5-.9 2.3-1.6 6-1.8 10.9 5.6-11.7 8.6-17.3 11-17.3zM84 17.1c1.6 0 2.8 1.6 2.9 4.6 2.7-.9 3.3-3.6 4.4-3.6.6 0 .9.3.9.8 0 .6-.4 1.2-1.1 1.9-1.4 2.1-3 3.3-4.7 3.6-1.7 6-4.4 9.1-7.8 9.1-2.5 0-4.3-1.7-4.3-4.7 0-2.2 1.1-6.1 3.4-9.8 1.2-1.9 2.3-2.8 3.5-2.8.8 0 1.4.3 1.7 1 .4-.1.7-.1 1.1-.1zm-5.1 13.7c1.9 0 5-5.5 5-9.8 0-1.1-.4-1.6-1.1-1.6-1.8 0-5.2 5.3-5.2 9.6.1 1.3.5 1.8 1.3 1.8z"/><path class="st5" d="M88.6 27.6c0-4 1.7-9.2 2.6-10.5.5-.8 1.6-1.2 2.7-1.2.7 0 1.1.4 1.1.9 0 .3-.4 1.1-.8 2.3-1.6 4.5-2.8 7.5-2.8 9.4 0 .9.3 1.3 1 1.3.9 0 2.9-1.8 4.9-5.1.6-1.1.9-1.9 1.2-1.9.4 0 1.1.4 1.1 1.1 0 .3-.6 1.3-1.8 3.2-2 3.4-3.7 5.2-5.9 5.2-2 .1-3.3-1.7-3.3-4.7zm3.5-14.9c0-1.8 2.5-2.5 3.4-2.5 1 0 1.5.5 1.5 1.5 0 1.3-1.5 2.7-3 2.7-.9 0-1.9-.6-1.9-1.7z"/><path class="st5" d="M106.4 16.3c-.5 0-1.1.3-1.7 1.1-3.1 4-4.7 9.5-4.7 11.9 0 1.8.6 2.7 1.9 2.7 2 0 4.2-1.6 6.7-4.7 1.8-2.3 2.3-4 2.7-4 .2 0 1.1.4 1.1.9s-.5 1.9-1.9 3.9c-2.4 3.6-5.4 5.4-8.3 5.4-3.2 0-5.2-2-5.2-5.1 0-4.2 2.7-10.7 5.8-13.8.8-.8 1.6-1.1 2.8-1.1.9 0 1.6.3 2.3.8 1.3.2 2 1.3 2 3 0 2.4-1.6 6.2-3.2 6.2-.9 0-1.6-.8-1.6-1.5 0-1.6 1.1-3.4 1.5-5.7h-.2z"/><path class="st5" d="M110.2 27.6c0-4 1.7-9.2 2.6-10.5.5-.8 1.6-1.2 2.7-1.2.7 0 1.1.4 1.1.9 0 .3-.4 1.1-.8 2.3-1.6 4.5-2.8 7.5-2.8 9.4 0 .9.3 1.3 1 1.3.9 0 2.9-1.8 4.9-5.1.6-1.1.9-1.9 1.2-1.9.4 0 1.1.4 1.1 1.1 0 .3-.6 1.3-1.8 3.2-2 3.4-3.7 5.2-5.9 5.2-2 .1-3.3-1.7-3.3-4.7zm3.5-14.9c0-1.8 2.5-2.5 3.4-2.5 1 0 1.5.5 1.5 1.5 0 1.3-1.5 2.7-3 2.7-.9 0-1.9-.6-1.9-1.7z"/><path class="st5" d="M120.6 32.4c-1.3 0-2.5-.8-2.5-2.5 0-.9.8-6.4 3.3-12.3.6-1.4 1-1.9 2.2-1.9.8 0 1.8.5 1.8 1.3 0 .5-2.5 4-3.7 11.4 4.7-9.1 7.6-13.6 9.2-13.6 1.1 0 2.5.9 2.5 2 0 .8-.9 1.1-1.2 1.4-.2.2-.7 1.5-1.4 3.7-1.1 3.5-1.3 6-1.3 6.8 0 .8.2 1.3.6 1.3 1.1 0 2.1-2 4.2-5.6.4-.6.4-1.1 1-1.1.4 0 1.2.7 1.2 1.1 0 .2-1.5 4.2-4.3 7.1-.8.8-1.6 1.2-2.4 1.2-1.9 0-3.1-1.6-3.1-4.6 0-1.3.3-3.4.9-6.2-4.2 6.8-5.2 10.5-7 10.5z"/><path class="st5" d="M135.7 33c-1.8 0-3.2-1.3-3.2-4 0-2.9 1.5-7.5 4.5-11.3 1.3-1.7 2.2-2.5 3.6-2.5 1 0 2.1.6 3.5 1.8.7-.2 1.2-.3 1.5-.3 1.1 0 2 .7 2 1.8 0 .7-2 3.6-4.1 12.4-1.1 4.5-1.3 7.8-2.3 9.8-1 2.2-3.7 3.6-7.1 3.6-3.2 0-5-1.2-5-2.5 0-.7.4-1.1.9-1.1s.6.3.9 1c.9.4 1.8.5 2.7.5 2 0 3.6-.6 4.6-1.8.9-2.2 1.8-6.4 3-12.4-2.2 3.3-3.8 5-5.5 5zm0-1.8c.8 0 1.5-.8 2.6-2.3 3.3-4.6 4.7-8.4 4.7-9.5 0-.8-.5-1.3-1.3-1.3-1 0-2.7 1.8-4.7 5.1-1.9 3.2-2.5 5.8-2.5 6.7.1.9.4 1.3 1.2 1.3zM165.6 33.4c-1.3 0-3.3-1.5-3.3-4.1 0-2 .7-5.7 2.5-9.9.8-1.9 1.3-2.8 2.3-2.8.9 0 1.9.8 2.2 1.9-.4.6-.7 1.1-1.1 1.4-2.2 5.1-2.7 8.7-2.7 9.8 0 .5.1.8.3.8 1.2 0 3.1-4.3 6.6-12.7.2-.2.4-.4.6-.4 1.3 0 2.6.9 2.6 1.5 0 .3-2.3 3.4-2.3 8.9 0 .7.1 1.1.4 1.1 1.1 0 3.8-4.7 5.7-13.4-.1-.7-.6-1.1-.6-1.6 0-.4.5-.7 1.1-.7 1.2 0 2.3 1.1 2.3 2 0 .7-.9 6.2-3.5 11.7-1.7 3.4-3.2 5.1-5 5.1-.5 0-1-.2-1.6-.5-1.2-.2-1.8-1.4-1.8-3.7-1.4 3.8-3.2 5.6-4.7 5.6zM182.5 27.6c0-4 1.7-9.2 2.6-10.5.5-.8 1.6-1.2 2.7-1.2.7 0 1.1.4 1.1.9 0 .3-.4 1.1-.8 2.3-1.6 4.5-2.8 7.5-2.8 9.4 0 .9.3 1.3 1 1.3.9 0 2.9-1.8 4.9-5.1.6-1.1.9-1.9 1.2-1.9.4 0 1.1.4 1.1 1.1 0 .3-.6 1.3-1.8 3.2-2 3.4-3.7 5.2-5.9 5.2-2 .1-3.3-1.7-3.3-4.7zm3.5-14.9c0-1.8 2.5-2.5 3.4-2.5 1 0 1.5.5 1.5 1.5 0 1.3-1.5 2.7-3 2.7-.9 0-1.9-.6-1.9-1.7z"/><path class="st5" d="M191 10c-1.7 0-2.6-.6-2.6-1.5 0-1.1 2.7-1.3 8.4-1.8 1-3.2 1.5-4.6 3-4.6 1.1 0 1.8.5 1.8 1.1 0 .2-.7 1.2-1.2 3.3 2.2-.2 4-.2 5.2-.2 3.3 0 4.8.4 4.8 1.8 0 .6-.6.6-1.9.6-2.3 0-5.3.4-9.2.6-3.8 10-5 16.7-5 19 0 1.1.4 1.7 1 1.7.9 0 2.2-1.2 3.6-3.6 1.6-2.7 1.9-4.6 2.4-4.6.7 0 1.4.5 1.4 1.1 0 .4-1 3.3-3.7 6.9-1.2 1.7-2.8 2.6-4.4 2.6-1.8 0-3.2-1.6-3.2-4.6 0-3.1 1.3-9.1 4.2-18-2.5.2-4.1.2-4.6.2z"/><path class="st5" d="M200.1 33.3c-1.2 0-1.8-.5-1.8-1.6 0-1.9 2.2-9.7 7.8-23.1 2.5-6 3.4-8.6 5.5-8.6.5 0 1 .5 1 .9 0 .8-5.1 9.9-11.3 28.8 6.1-8.9 8.1-13.9 10.9-13.9.8 0 1.3.6 1.3 1.5 0 .8-.2 1.3-.5 1.9-2.5 5.3-3.8 8.6-3.8 10.2 0 .5.2.8.5.8.9 0 2.3-1.7 4.3-4.9.5-.8.8-1.4 1.2-1.4.2 0 1.1.8 1.1 1.3 0 .4-1.1 2.9-3.4 5.4-1.2 1.3-2.4 1.9-3.7 1.9-1.7 0-2.6-1.1-2.6-3 0-1.6.5-3.7 1.3-6.5-4.2 6.8-5.4 10.3-7.8 10.3z"/><path id="XMLID_39_" fill="#22b67f" d="M0 63.9l400-36.1-34.8 111.6L7.4 124.5z"/><g><path class="st2" d="M34.9 73.4h3.8v33.5h-3.8V73.4zM47.9 82.1h3.7v4.3c.8-1.3 1.9-2.5 3.3-3.4 1.3-.9 3.1-1.4 5.2-1.4 1.5 0 2.8.2 4 .7 1.2.5 2.2 1.2 3 2 .8.9 1.4 1.9 1.9 3.1.4 1.2.6 2.6.6 4v15.4h-3.7V92.5c0-2.3-.6-4.1-1.8-5.4-1.2-1.3-2.9-2-5.1-2-1.1 0-2 .2-2.9.5-.9.4-1.7.9-2.4 1.6-.7.7-1.2 1.5-1.6 2.5-.4 1-.5 2-.5 3.1v14.1h-3.7V82.1zM74.9 82.1H79l8.3 20.5 8.4-20.5h4L88.9 107h-3.3L74.9 82.1zM116.7 107.4c-1.9 0-3.6-.3-5.1-1-1.6-.7-2.9-1.6-4.1-2.8-1.1-1.2-2-2.5-2.7-4.1-.6-1.5-1-3.2-1-5v-.1c0-1.8.3-3.4 1-5 .6-1.6 1.5-2.9 2.7-4.1 1.1-1.2 2.5-2.1 4.1-2.8 1.6-.7 3.3-1 5.2-1 1.8 0 3.6.3 5.1 1 1.6.7 2.9 1.6 4.1 2.8 1.1 1.2 2 2.5 2.7 4.1.6 1.5 1 3.2 1 5v.1c0 1.8-.3 3.4-1 5s-1.6 2.9-2.7 4.1c-1.1 1.2-2.5 2.1-4.1 2.8-1.6.7-3.3 1-5.2 1zm.1-3.3c1.3 0 2.6-.3 3.7-.8s2.1-1.2 2.9-2.1c.8-.9 1.4-1.9 1.9-3 .4-1.1.7-2.4.7-3.7v-.1c0-1.3-.2-2.6-.7-3.8-.5-1.2-1.1-2.2-1.9-3.1-.8-.9-1.8-1.6-2.9-2.1-1.1-.5-2.3-.8-3.6-.8-1.3 0-2.6.3-3.7.8s-2.1 1.2-2.8 2.1c-.8.9-1.4 1.9-1.8 3-.4 1.2-.7 2.4-.7 3.7v.1c0 1.3.2 2.6.7 3.8.5 1.2 1.1 2.2 1.9 3 .8.9 1.8 1.5 2.9 2.1.9.7 2.1.9 3.4.9zM136.4 72.7h4.2v4.1h-4.2v-4.1zm.3 9.4h3.7v24.7h-3.7V82.1zM160 107.4c-1.8 0-3.5-.3-5-1s-2.9-1.6-4-2.8c-1.1-1.2-2-2.5-2.7-4.1-.6-1.6-1-3.2-1-4.9v-.1c0-1.8.3-3.4 1-5 .6-1.6 1.5-2.9 2.7-4.1 1.1-1.2 2.5-2.1 4-2.8 1.5-.7 3.2-1 5-1 1.2 0 2.2.1 3.2.3 1 .2 1.8.5 2.6.9s1.5.9 2.2 1.4c.7.5 1.3 1.1 1.9 1.7l-2.4 2.6c-1-1-2.1-1.9-3.2-2.6-1.2-.7-2.6-1.1-4.3-1.1-1.2 0-2.4.2-3.5.7-1.1.5-2 1.2-2.8 2-.8.9-1.4 1.9-1.9 3-.4 1.2-.7 2.4-.7 3.8v.1c0 1.3.2 2.6.7 3.8.5 1.2 1.1 2.2 1.9 3.1.8.9 1.8 1.6 2.9 2.1 1.1.5 2.3.7 3.6.7 1.6 0 3-.4 4.2-1.1 1.2-.7 2.3-1.6 3.3-2.6l2.3 2.2c-1.2 1.4-2.7 2.6-4.2 3.4-1.5 1-3.4 1.4-5.8 1.4zM178.4 96c.1 1.3.4 2.5 1 3.5.5 1 1.2 1.9 2 2.6.8.7 1.7 1.2 2.7 1.6 1 .4 2 .6 3.1.6 1.7 0 3.2-.3 4.4-1 1.2-.6 2.4-1.5 3.4-2.5l2.3 2.1c-1.2 1.4-2.7 2.5-4.3 3.4-1.6.8-3.6 1.3-5.9 1.3-1.7 0-3.3-.3-4.8-.9-1.5-.6-2.8-1.5-3.9-2.6s-2-2.5-2.7-4.1c-.7-1.6-1-3.3-1-5.3 0-1.8.3-3.5.9-5 .6-1.6 1.4-3 2.5-4.1 1.1-1.2 2.3-2.1 3.8-2.8 1.5-.7 3-1 4.8-1 1.8 0 3.4.3 4.9 1 1.4.7 2.6 1.6 3.6 2.8 1 1.2 1.7 2.6 2.2 4.2.5 1.6.8 3.3.8 5.1V96.2h-19.8zm15.9-3c-.1-1.1-.3-2.2-.7-3.2-.4-1-.9-1.9-1.6-2.6-.7-.8-1.5-1.4-2.4-1.8-.9-.4-2-.7-3.2-.7-1.1 0-2 .2-3 .6-.9.4-1.7 1-2.4 1.7s-1.3 1.6-1.7 2.6c-.5 1-.8 2.1-.9 3.3h15.9zM213.6 89.8l-11.2-16.5h8.6l7 10.9 7.1-10.9h8.4l-11.2 16.4 11.7 17.1h-8.6l-7.5-11.5-7.6 11.5h-8.4l11.7-17zM238.7 81.2h7.3v3.7c.9-1.2 2-2.2 3.2-3 1.3-.8 2.8-1.2 4.8-1.2 1.5 0 3 .3 4.4.9 1.4.6 2.6 1.4 3.7 2.6 1.1 1.1 2 2.5 2.6 4.2.7 1.6 1 3.5 1 5.7v.1c0 2.1-.3 4-1 5.7-.7 1.6-1.5 3-2.6 4.2-1.1 1.1-2.3 2-3.7 2.6-1.4.6-2.9.9-4.4.9-1.9 0-3.5-.4-4.8-1.1-1.3-.8-2.3-1.7-3.2-2.7v11h-7.3V81.2zm13.4 20c.9 0 1.7-.2 2.4-.5s1.4-.8 2-1.4c.6-.6 1-1.4 1.4-2.2.3-.9.5-1.8.5-2.9V94c0-1.1-.2-2-.5-2.9-.3-.9-.8-1.6-1.4-2.2-.6-.6-1.2-1.1-2-1.4-.7-.3-1.6-.5-2.4-.5-.9 0-1.7.2-2.4.5-.8.3-1.4.8-2 1.4-.6.6-1 1.4-1.3 2.2-.3.9-.5 1.8-.5 2.9v.1c0 1.1.2 2 .5 2.9.3.9.8 1.6 1.3 2.2.6.6 1.2 1.1 2 1.4.7.4 1.5.6 2.4.6zM271 81.2h7.3v5.2c.7-1.8 1.7-3.2 3-4.2 1.3-1.1 3-1.5 5.2-1.4v7.6h-.4c-2.4 0-4.3.7-5.7 2.2-1.4 1.5-2.1 3.7-2.1 6.8v9.5H271V81.2zM303.1 107.4c-1.9 0-3.7-.3-5.3-1-1.6-.6-3.1-1.5-4.3-2.7-1.2-1.2-2.1-2.6-2.8-4.2-.7-1.6-1-3.4-1-5.4V94c0-1.8.3-3.5.9-5.2.6-1.6 1.5-3 2.6-4.3 1.1-1.2 2.4-2.2 4-2.9 1.5-.7 3.3-1.1 5.1-1.1 2.1 0 4 .4 5.5 1.1 1.6.8 2.9 1.8 3.9 3.1s1.8 2.8 2.3 4.4c.5 1.7.7 3.4.7 5.2v.9c0 .3 0 .7-.1 1H297c.3 1.7 1.1 2.9 2.2 3.8 1.1.8 2.5 1.3 4.1 1.3 1.2 0 2.3-.2 3.3-.6 1-.4 1.9-1.1 3-2l4.2 3.7c-1.2 1.5-2.7 2.7-4.4 3.5-1.9 1.1-3.9 1.5-6.3 1.5zm4.7-15.4c-.2-1.6-.8-2.9-1.7-3.9-.9-1-2.2-1.5-3.7-1.5s-2.8.5-3.7 1.5c-.9 1-1.6 2.3-1.8 4h10.9zM329.3 107.4c-1.8 0-3.7-.3-5.6-.9-1.9-.6-3.7-1.6-5.4-2.9l3.1-4.8c1.4 1 2.8 1.8 4.2 2.3 1.4.5 2.7.8 3.9.8 1.1 0 1.8-.2 2.3-.5.5-.4.7-.8.7-1.4v-.1c0-.4-.1-.7-.4-1-.3-.3-.7-.5-1.2-.7-.5-.2-1.1-.4-1.7-.6-.6-.2-1.3-.4-2-.6l-2.7-.9c-.9-.4-1.7-.8-2.5-1.4-.7-.6-1.3-1.3-1.8-2.2-.5-.9-.7-1.9-.7-3.2V89c0-1.3.2-2.5.7-3.5.5-1 1.2-1.9 2-2.6.8-.7 1.8-1.2 3-1.6 1.1-.4 2.4-.5 3.7-.5 1.6 0 3.3.3 5 .8 1.7.5 3.2 1.3 4.6 2.2l-2.8 5c-1.3-.7-2.5-1.3-3.7-1.7-1.2-.4-2.3-.6-3.2-.6-.9 0-1.6.2-2 .5-.4.3-.7.8-.7 1.3v.1c0 .4.1.7.4.9.3.3.7.5 1.1.8.5.2 1 .5 1.7.7.6.2 1.3.4 2 .7.9.3 1.8.6 2.7 1 .9.4 1.8.9 2.5 1.5s1.3 1.3 1.8 2.1.7 1.8.7 3v.1c0 1.4-.2 2.7-.7 3.7-.5 1-1.2 1.9-2.1 2.6-.9.7-1.9 1.2-3.1 1.5-1.1.2-2.4.4-3.8.4zM353.3 107.4c-1.8 0-3.7-.3-5.6-.9-1.9-.6-3.7-1.6-5.4-2.9l3.1-4.8c1.4 1 2.8 1.8 4.2 2.3 1.4.5 2.7.8 3.9.8 1.1 0 1.8-.2 2.3-.5.5-.4.7-.8.7-1.4v-.1c0-.4-.1-.7-.4-1-.3-.3-.7-.5-1.2-.7-.5-.2-1.1-.4-1.7-.6-.6-.2-1.3-.4-2-.6l-2.7-.9c-.9-.4-1.7-.8-2.5-1.4-.7-.6-1.3-1.3-1.8-2.2-.5-.9-.7-1.9-.7-3.2V89c0-1.3.2-2.5.7-3.5.5-1 1.2-1.9 2-2.6.8-.7 1.8-1.2 3-1.6 1.1-.4 2.4-.5 3.7-.5 1.6 0 3.3.3 5 .8 1.7.5 3.2 1.3 4.6 2.2l-2.8 5c-1.3-.7-2.5-1.3-3.7-1.7-1.2-.4-2.3-.6-3.2-.6-.9 0-1.6.2-2 .5-.4.3-.7.8-.7 1.3v.1c0 .4.1.7.4.9.3.3.7.5 1.1.8.5.2 1 .5 1.7.7.6.2 1.3.4 2 .7.9.3 1.8.6 2.7 1 .9.4 1.8.9 2.5 1.5s1.3 1.3 1.8 2.1.7 1.8.7 3v.1c0 1.4-.2 2.7-.7 3.7-.5 1-1.2 1.9-2.1 2.6-.9.7-1.9 1.2-3.1 1.5-1.1.2-2.4.4-3.8.4z"/></g><g><path class="st5" d="M161.7 173.5c-1.8 0-3.5-.3-5.1-1-1.6-.6-2.9-1.5-4.1-2.6-1.1-1.1-2-2.4-2.7-3.9-.6-1.5-1-3.1-1-4.8v-.2c0-1.7.3-3.3 1-4.8.6-1.5 1.5-2.8 2.7-3.9 1.1-1.1 2.5-2 4.1-2.7 1.6-.7 3.4-1 5.3-1 1.2 0 2.2.1 3.2.3 1 .2 1.8.4 2.6.8.8.3 1.5.7 2.2 1.2.7.5 1.3 1 1.9 1.5l-3.5 3.9c-1-.8-2-1.5-3-2s-2.1-.7-3.4-.7c-1 0-2 .2-2.9.6-.9.4-1.7.9-2.3 1.6-.6.7-1.1 1.5-1.5 2.4s-.5 1.9-.5 2.9v.1c0 1 .2 2 .5 2.9.4.9.9 1.7 1.5 2.4s1.4 1.2 2.3 1.6c.9.4 1.9.6 2.9.6 1.4 0 2.6-.3 3.6-.8s2-1.2 2.9-2.1l3.5 3.4c-.6.7-1.3 1.3-2 1.8s-1.4 1-2.3 1.4c-.8.4-1.7.7-2.7.9-.9.1-2 .2-3.2.2zM188.3 173.5c-1.9 0-3.7-.3-5.3-1-1.6-.7-3-1.5-4.2-2.6-1.2-1.1-2.1-2.4-2.8-3.9-.7-1.5-1-3.1-1-4.8v-.2c0-1.7.3-3.3 1-4.8s1.6-2.8 2.8-3.9c1.2-1.1 2.6-2 4.2-2.7 1.6-.7 3.4-1 5.3-1s3.7.3 5.3 1c1.6.7 3 1.5 4.2 2.6 1.2 1.1 2.1 2.4 2.8 3.9.7 1.5 1 3.1 1 4.8v.1c0 1.7-.3 3.3-1 4.8s-1.6 2.8-2.8 3.9c-1.2 1.1-2.6 2-4.2 2.7-1.6.7-3.4 1.1-5.3 1.1zm.1-4.9c1.1 0 2.1-.2 3-.6.9-.4 1.7-.9 2.4-1.6.7-.7 1.2-1.5 1.5-2.4.4-.9.6-1.9.6-2.9v-.1c0-1-.2-2-.6-2.9-.4-.9-.9-1.7-1.6-2.4-.7-.7-1.5-1.2-2.4-1.6-.9-.4-1.9-.6-3-.6s-2.1.2-3.1.6c-.9.4-1.7.9-2.4 1.6-.7.7-1.2 1.5-1.5 2.4-.4.9-.6 1.9-.6 2.9v.1c0 1 .2 2 .6 2.9.4.9.9 1.7 1.6 2.4.7.7 1.5 1.2 2.4 1.6 1 .4 2 .6 3.1.6zM206.4 149h5.9l6.6 10.2 6.6-10.2h5.9v24H226v-15.7l-7 10.3h-.1l-7-10.2V173h-5.4v-24zM237.2 149h5.9l6.6 10.2 6.6-10.2h5.9v24h-5.4v-15.7l-7 10.3h-.1l-7-10.2V173h-5.4v-24zM268 149h18.8v4.7h-13.4v4.9h11.8v4.7h-11.8v5H287v4.7h-19v-24zM291.8 149h11.4c3.2 0 5.6.8 7.3 2.4 1.4 1.4 2.1 3.2 2.1 5.5v.1c0 1.9-.5 3.5-1.5 4.8-1 1.2-2.3 2.1-3.9 2.7l6.1 8.6H307l-5.4-7.7H297.2v7.7h-5.5V149zm11 11.7c1.4 0 2.4-.3 3.1-.9.7-.6 1.1-1.4 1.1-2.5v-.1c0-1.1-.4-2-1.1-2.6-.8-.6-1.8-.9-3.2-.9h-5.5v6.9h5.6zM329.1 173.5c-1.8 0-3.5-.3-5.1-1-1.6-.6-2.9-1.5-4.1-2.6-1.1-1.1-2-2.4-2.7-3.9-.6-1.5-1-3.1-1-4.8v-.2c0-1.7.3-3.3 1-4.8.6-1.5 1.5-2.8 2.7-3.9 1.1-1.1 2.5-2 4.1-2.7 1.6-.7 3.4-1 5.3-1 1.2 0 2.2.1 3.2.3 1 .2 1.8.4 2.6.8.8.3 1.5.7 2.2 1.2.7.5 1.3 1 1.9 1.5l-3.5 3.9c-1-.8-2-1.5-3-2s-2.1-.7-3.4-.7c-1 0-2 .2-2.9.6-.9.4-1.7.9-2.3 1.6-.6.7-1.1 1.5-1.5 2.4-.4.9-.5 1.9-.5 2.9v.1c0 1 .2 2 .5 2.9.4.9.9 1.7 1.5 2.4s1.4 1.2 2.3 1.6c.9.4 1.9.6 2.9.6 1.4 0 2.6-.3 3.6-.8s2-1.2 2.9-2.1l3.5 3.4c-.6.7-1.3 1.3-2 1.8s-1.4 1-2.3 1.4c-.8.4-1.7.7-2.7.9-.9.1-2 .2-3.2.2zM343.6 149h18.8v4.7H349v4.9h11.8v4.7H349v5h13.6v4.7h-19v-24z"/></g><path id="XMLID_10_" fill="#97598a" d="M11.3 108.5l125.5 26.8 6.8 44.3L1.1 191.4z"/><g><path class="st2" d="M32.3 149.9h7.3l4.4 13.9 4.8-14h6l4.8 14 4.4-13.9h7.2l-8.4 24.2h-6l-5-13.8-5 13.8h-6l-8.5-24.2zM86.3 174.4c-1.9 0-3.7-.3-5.4-1-1.6-.7-3.1-1.5-4.3-2.7-1.2-1.1-2.1-2.4-2.8-4-.7-1.5-1-3.1-1-4.8v-.1c0-1.7.3-3.3 1-4.9.7-1.5 1.6-2.9 2.8-4 1.2-1.1 2.6-2 4.3-2.7 1.6-.7 3.4-1 5.4-1s3.7.3 5.4 1c1.6.7 3.1 1.5 4.3 2.7 1.2 1.1 2.1 2.4 2.8 4 .7 1.5 1 3.1 1 4.8v.1c0 1.7-.3 3.3-1 4.9-.7 1.5-1.6 2.9-2.8 4-1.2 1.1-2.6 2-4.3 2.7-1.7.7-3.5 1-5.4 1zm.1-6c1 0 1.8-.2 2.6-.5s1.5-.8 2-1.4c.5-.6 1-1.3 1.3-2 .3-.8.5-1.6.5-2.5v-.1c0-.9-.2-1.7-.5-2.5s-.8-1.5-1.3-2.1c-.6-.6-1.3-1.1-2-1.4-.8-.4-1.7-.5-2.6-.5-1 0-1.8.2-2.6.5s-1.4.8-2 1.4c-.6.6-1 1.3-1.3 2-.3.8-.4 1.6-.4 2.5v.1c0 .9.2 1.7.5 2.5s.7 1.5 1.3 2.1c.6.6 1.2 1.1 2 1.4.6.3 1.5.5 2.5.5zM116.5 174.4c-1.9 0-3.7-.3-5.4-1-1.6-.7-3.1-1.5-4.3-2.7-1.2-1.1-2.1-2.4-2.8-4-.7-1.5-1-3.1-1-4.8v-.1c0-1.7.3-3.3 1-4.9.7-1.5 1.6-2.9 2.8-4 1.2-1.1 2.6-2 4.3-2.7 1.6-.7 3.4-1 5.4-1 1.9 0 3.7.3 5.4 1 1.6.7 3.1 1.5 4.3 2.7 1.2 1.1 2.1 2.4 2.8 4 .7 1.5 1 3.1 1 4.8v.1c0 1.7-.3 3.3-1 4.9-.7 1.5-1.6 2.9-2.8 4-1.2 1.1-2.6 2-4.3 2.7-1.7.7-3.4 1-5.4 1zm.1-6c1 0 1.8-.2 2.6-.5s1.5-.8 2-1.4c.5-.6 1-1.3 1.3-2 .3-.8.5-1.6.5-2.5v-.1c0-.9-.2-1.7-.5-2.5s-.8-1.5-1.3-2.1c-.6-.6-1.3-1.1-2-1.4-.8-.4-1.7-.5-2.6-.5-1 0-1.8.2-2.6.5s-1.4.8-2 1.4c-.6.6-1 1.3-1.3 2-.3.8-.4 1.6-.4 2.5v.1c0 .9.2 1.7.5 2.5s.7 1.5 1.3 2.1c.6.6 1.2 1.1 2 1.4.6.3 1.5.5 2.5.5z"/></g><g><path class="st2" d="M34.6 129.9h-1.7v-1h1.7v-1.1c0-1.3.3-2.3 1-3 .6-.6 1.4-.9 2.5-.9.4 0 .7 0 1 .1.3 0 .5.1.8.2v1c-.3-.1-.6-.2-.9-.2-.3 0-.6-.1-.9-.1-1.6 0-2.4 1-2.4 2.9v1.1h4.1v1h-4.1v10.4h-1.1v-10.4zM47.6 140.5c-.9 0-1.7-.2-2.4-.5s-1.4-.7-1.9-1.3c-.5-.5-1-1.2-1.3-1.9-.3-.7-.5-1.5-.5-2.3 0-.8.2-1.6.5-2.3.3-.7.7-1.3 1.3-1.9.6-.6 1.2-1 1.9-1.3.7-.3 1.6-.5 2.4-.5s1.7.2 2.4.5 1.4.7 1.9 1.3c.5.5 1 1.2 1.3 1.9.3.7.5 1.5.5 2.3 0 .8-.2 1.6-.5 2.3-.3.7-.7 1.3-1.3 1.9-.6.6-1.2 1-1.9 1.3-.7.4-1.5.5-2.4.5zm.1-1c.7 0 1.4-.1 2-.4.6-.3 1.1-.6 1.5-1 .4-.4.8-1 1-1.5.2-.6.4-1.2.4-1.9s-.1-1.3-.4-1.9c-.2-.6-.6-1.1-1-1.6-.4-.4-1-.8-1.6-1-.6-.3-1.2-.4-1.9-.4s-1.4.1-2 .4c-.6.3-1.1.6-1.5 1-.4.4-.8 1-1 1.5-.2.6-.4 1.2-.4 1.9s.1 1.3.4 1.9c.2.6.6 1.1 1 1.6.4.4 1 .8 1.6 1 .5.3 1.2.4 1.9.4zM57.2 128.9h1.1v3.2c.2-.5.5-1 .9-1.4.4-.4.8-.8 1.2-1.1.4-.3.9-.5 1.5-.7.5-.2 1.1-.2 1.7-.2v1.2h-.1c-.7 0-1.3.1-2 .4-.6.2-1.2.6-1.6 1.1-.5.5-.8 1.1-1.1 1.8-.3.7-.4 1.5-.4 2.4v4.7h-1.1v-11.4z"/></g></svg>