<svg width="187" height="61" viewBox="0 0 187 61" fill="none" xmlns="http://www.w3.org/2000/svg">
<path d="M0.959798 53.8013L5.10422 52.9808V9.43464L0.889893 9.50384V8.47574L9.86783 6.29102L10.2773 6.49861V52.9906L14.4916 53.8111V54.8392H0.959798V53.8013Z" fill="black"/>
<path d="M42.5738 43.9552C42.5738 50.3809 38.3594 55.7092 30.0706 55.7092C20.3337 55.7092 14.9409 49.0068 14.9409 39.2991C14.9409 28.6325 21.2225 22.1377 30.6898 22.1377C37.8002 22.1377 42.0845 26.1018 42.0845 34.4453C42.0845 35.5426 42.0145 36.0171 41.9446 36.7684H20.6033C20.5334 37.3813 20.5334 38.0634 20.5334 38.7554C20.5334 49.2836 26.2657 52.5656 32.0679 52.5656C38.2796 52.5656 41.3255 48.5323 41.3255 43.3324V43.0556H42.434C42.5039 43.6191 42.5738 43.6883 42.5738 43.9552ZM20.7431 35.3449H37.2509C37.3908 34.6628 37.3908 34.3168 37.3908 33.4271C37.3908 28.504 36.1524 23.7194 30.7597 23.7194C25.307 23.7194 21.6419 28.4348 20.7431 35.3449Z" fill="black"/>
<path d="M43.5626 53.8013L47.707 52.9808V24.8859L43.4927 25.2912V24.273L52.2609 22.1575L52.6803 22.5035V32.6856H53.0299C54.8274 27.7626 59.0418 22.1575 66.9112 22.1575C74.2314 22.1575 74.9904 28.2371 74.9904 34.3267V52.9907L79.1348 53.8112V54.8393H65.603V53.8112L69.8173 52.9907V34.2476C69.8173 27.6143 68.0896 25.222 64.2947 25.222C58.4226 25.222 54.6277 31.1731 52.9 36.2939V52.9709L57.1144 53.7914V54.8195H43.5826V53.8013H43.5626Z" fill="black"/>
<path d="M79.5342 40.1295C79.5342 29.2553 84.5774 22.2167 93.1359 22.2167C97.2104 22.2167 100.246 23.6501 102.184 25.6372V9.43464L97.8995 9.50384V8.54493L106.947 6.29102L107.367 6.49861V52.6446L111.511 52.1701V53.129L102.673 55.5906L102.393 55.2446V46.2882H102.044C99.8369 51.488 96.1718 55.6499 90.1699 55.6499C83.409 55.6499 79.5342 49.8371 79.5342 40.1295ZM102.194 43.2039V27.8911C100.326 25.9733 97.6998 24.2037 94.2544 24.2037C88.3823 24.2037 85.1367 29.8781 85.1367 39.7241C85.1367 49.2242 88.1027 52.6446 92.0474 52.6446C97.3602 52.6446 100.806 47.2372 102.194 43.2039Z" fill="black"/>
<path d="M112.48 53.8013L116.624 52.9808V9.43464L112.41 9.50384V8.47574L121.388 6.29102L121.808 6.49861V52.9906L126.022 53.8111V54.8392H112.48V53.8013Z" fill="black"/>
<path d="M157.779 46.7628V47.7217C157.779 50.6577 157.36 55.7191 152.117 55.7191C148.392 55.7191 146.664 52.6447 146.594 49.0859H146.385C144.317 52.3679 140.373 55.7191 135.269 55.7191C130.576 55.7191 127.26 53.2576 127.26 48.819C127.26 42.4625 132.993 40.6831 138.655 39.1805C142.729 38.014 146.325 36.9266 146.325 33.783V32.9624C146.325 26.606 143.838 23.9369 138.865 23.9369C135.07 23.9369 132.583 25.5779 132.583 28.5831C132.583 30.0857 133.272 31.4499 134.79 31.7959C134.79 33.0218 133.482 34.732 131.335 34.732C129.327 34.732 128.159 33.2294 128.159 31.0446C128.159 26.6653 132.993 22.1575 140.592 22.1575C147.843 22.1575 151.508 26.0524 151.508 33.5062V48.3445C151.508 50.5292 151.578 53.1983 153.855 53.1983C155.512 53.1983 156.821 51.6265 156.821 47.6623V46.7726H157.779V46.7628ZM146.315 47.3065V36.9167C145.076 38.7653 142.59 39.5166 140.103 40.3371C136.438 41.5036 132.783 42.7986 132.783 47.4449C132.783 50.5193 134.371 52.5755 137.756 52.5755C141.072 52.5755 144.108 50.8653 146.315 47.3065Z" fill="black"/>
<path d="M187.34 37.6679C187.34 47.3756 183.405 55.5807 173.738 55.5807C169.384 55.5807 166.488 53.7321 164.48 51.6857L160.685 54.8294H159.447V9.43464L155.233 9.50384V8.47574L164.001 6.29102L164.42 6.49861V32.3396H164.7C167.047 25.8448 171.401 22.019 176.924 22.019C183.674 22.0091 187.34 28.0987 187.34 37.6679ZM181.747 38.1425C181.747 29.3245 179.19 25.0836 174.906 25.0836C169.793 25.0836 166.208 29.9374 164.62 37.2527V49.6295C166.488 51.6759 169.244 53.5245 172.699 53.5245C178.771 53.5245 181.747 47.514 181.747 38.1425Z" fill="black"/>
</svg>
