<?xml version="1.0" encoding="utf-8"?>
<!-- Generator: Adobe Illustrator 23.1.0, SVG Export Plug-In . SVG Version: 6.00 Build 0)  -->
<svg version="1.1" id="Layer_1" xmlns="http://www.w3.org/2000/svg" xmlns:xlink="http://www.w3.org/1999/xlink" x="0px" y="0px"
	 viewBox="0 0 216 198.6" style="enable-background:new 0 0 216 198.6;" xml:space="preserve">
<style type="text/css">
	.st0{fill:#F283B4;}
	.st1{fill:#1B75BC;}
	.st2{fill:#00AEEF;}
	.st3{fill:#FFF200;}
</style>
<g>
	<g>
		<path d="M104.9,2.6c-54,0-98,44-98,98c0,54,44,98,98,98c54,0,98-44,98-98C202.9,46.6,158.9,2.6,104.9,2.6z M104.9,194.7
			c-51.8,0-94-42.2-94-94c0-51.9,42.2-94,94-94c51.9,0,94,42.2,94,94C198.9,152.5,156.7,194.7,104.9,194.7z"/>
		<path class="st0" d="M198.9,100.6c0,51.8-42.2,94-94,94c-51.8,0-94-42.2-94-94c0-51.9,42.2-94,94-94
			C156.7,6.6,198.9,48.8,198.9,100.6z"/>
	</g>
	<path class="st1" d="M99.5,194.5l2-49.4c0,0,0.2-0.5,0.9-0.7c0.5-0.2-2-11,2-11.3c0.8-0.1-1.9-9.6,0.2-11.2l-1.8-29.1
		c0,0-3.8-21.2-1.5-21c1,0.1-2.4-7.1-0.7-10.6c0.4-0.8-1.2-3.2-2-2.4c0.1,1.1-7.3,3.8-7.9-2.9c0.2-1.2-1.6-2.8-1.6-1.2
		c-0.1,2.8-0.6,6.9-1.8,6.7c0-1.1-0.4-1.8-1.2-2.1c0.5,3.5,0.2,5.3-0.8,5.4c-1.1-0.3-0.5-6.4-1.9-6.9c-1.9,7-3.8,13.4-6.2,12.9
		c-0.8,0.1,0.2-4-1.7-3.3c0.3,0.8-3.5,6.6-4.4,7.3c-0.8,0.3-1.1,0.9-2.2,1c-1.9,0.2-2.9,2.3-4,3.8c-2.1,1.7-1-0.2,0.6-4.1
		c-0.1-0.8-1.2-0.3-2.1,0.7l-4.6,6.5c0,0-1.1,0.1-0.7-0.8c0.4-0.9,0.8-1.8,0.8-1.8c-0.1-0.6-0.6-0.5-1.5,0.4c-2,3.3-4.3,4.6-6.8,5.2
		c-2.2,0.9-1.8-0.9,0-4.2c1-3,2.2-5.8,4.3-7.8c0,0,0.3-1.3-0.7-1.2c-1.8,0.1-2.4-1.1-1.6-2.3c1.3-2,3.4-8.2,4-7.9
		c-0.9,0.4-1.7,0.5-2.2,0.2c-0.5-0.3,1.3-2.4-0.3-2c-1,0.2-0.5-2.2,0.3-2.9c1.5-1.2,9.1-8.6,9.1-8.6s0.6-1.4-0.2-1.1
		c-2.8,0.8-7.7,2.3-12.7,8.8c-0.6,0.8-1.2,0.3-1.3-0.5c0-0.6-1-0.5-1-0.5C48,57,45,59.4,43.4,61.4c-1.1,0.8-1.9-0.6-0.3-2.3
		c0.9-1.5,0.3-2.3-0.3-1.4c-0.7,1.4-1.9,2.4-3.3,3.3c-0.8,0.1-1.1-0.3-1-1.5c0.2-0.9,0.1-1.2-0.5-0.8l-4.4,3.7
		c-1.7,1.9-3.8,2.5-3.3,1.4c0,0,2-10,6.6-11.3c4.4-1.3,4.4-2.1,4.4-2.1L52.9,40c1.5-1.5-1.8-0.8-4.6-0.8c0,0-1.6-0.3,1.6-2.5
		c1.5-1,4-3,5.8-3c1,0-1-2.2-1-2.2l-1.1-2.1c1.2-0.3,2-0.6,1.2-1.5c-2-1.8-4.1-3.7-3.8-4.4c0-1.1,12.2,0.6,20.4,1.7
		c-5.3-0.9-12-1.7-12.8-2.7c1.6-1.9,13.5-5.5,25.3-3.5c6,1.1-6.2-3.8-5.1-4.5c0.4-0.5,2.4-0.3,4.5,0c-3.8-2.6-8.3-3.2-7.1-3.8
		c1.8-0.4,3,0.6,5.5,1.1c1.1,0.2,1-0.4,0.1-1.6l-4.5-4.7c-1.8-1.8,0-2.5,1.7-1.2c6.6,5.8,16.4,15.8,18,15c1.3-0.1,2.1-1.9,3-3.6
		c1-1.5-9.6-7.7-9.4-9.6c0.6-2.2,8.3,1.6,12.5,6.5c0.7,0.6,2.4-2.6,4.2-3.7c0.5-0.3,1.1,1.8,1.7,2.1c1.5,0,12.3-10.5,12.9-10
		c3-2.3,2.6-1.3-3.1,5c-1.4,1.1-2.2,1.7-1.9,2.9c0.1,0.6,5.8-1.2,5.7,0.4c-0.7,1.4-5.5,0-8.8,1c-0.9,0.5-0.7,0.9,0.2,1.1l4.5,0.1
		c2.2,0.4,1.7,1-1,1.8c-4.7-0.1-9.4,0.1-9.4,2.4c0,1.1-1.8,2.5-3.5,3.9c0,0,2.2,0.2,2.7-0.6c1.4-2.6,5.4-3.2,5.4-3.2
		c0.1,0.8-3.2,1.9-2.9,3.3c0,0.9,2.7-0.1,5.3-0.3c1.6-0.1,1.3,0.3-0.2,1.1c-0.8,0.5-0.9,1.1-0.2,1.7c0.7,0.5,1.5,0.1,2.5-0.5
		c3.2-3,6.9-4.7,10.6-6.2c1.5-0.5,2.7-0.6,3.5-0.2c0.3,0.9-5.3,3.3-5,4.2c0.6,0.6,5.9-2.9,6.9-2.1c0.2,0.3-0.8,0.9-0.6,1.1
		c0,0,13.1-4,23.5-3.1l4.2,0c1.7,0.3,2.2,0.7,1,1.5c0,0-1,0.6,0.2,0.5c2-0.3,2.1,0.7,1.5,0.9c-0.8,0.1-1.3,0.4-1.5,0.9
		c0,0.5,2.4-0.8,3.1,0.6c-2.3,1.3-8.7-0.1-12.8,2.4c-2.2,1.4-3.3,2.8-2.4,3c7.9-0.2,11,2.1,12.9,3.8c1.6,1.3-7.4-1.6-8.3-0.1
		l4.6,1.8c1,0.3,1.4,1.1,1.7,1.9c-1.7,0.3-9.6-2.1-8.5-0.7c0.3,0.4,10.3,7.2,10.3,7.2c2.5,1.4,3,2.2-0.2,2.1l-3.2-0.3
		c-0.3,1.2,7.7,3,7.8,4.9c0.1,0.7-3.9,1-4.8,0c-0.1-1,8.3,5.2,10.2,7.2c-0.7,0.6,14.3,7.1,14.5,7.2c1.1,0.6-0.3,1.4-1.6,0.7
		c-7.4-3.6-16.4-9.2-14-5.9c1.2,1.2,5.5,2.6,5.9,3.4c0.4,0.8-3.1-0.6-3.1-0.6c-1.2-0.9-2.5-1-3.8-0.8c2.4,0.8,3.6,1.9,4.8,3
		c0.6,1.2,0.1,1.5-0.9,0.4S165,55,165,55c-1.6-0.3-2.6,0.2-1.3,1c1.8,0.7,2.9,1.4,3.2,2.1c0.9,1.1-0.6,1.3-1.6-0.2
		c-3.4-2.4-6.7-4.3-9.7-5.6c-3.2-1.3-6.6-2.8-6.9-1.9c0.5,1,0.3,1.5-0.2,1.6c0,0-15.2-7-14.5-5.2c0.8,2,4.3,4.7,3.7,4.4
		c-0.1,0.7-0.9,1.3-1.6,0.5c0,0-3.5-4.4-4.3-3.8c-0.4,0.3,0.7,4,3.8,8.3c3.9,5.4,4.2,6.7,4.2,6.7c0.6,2.1,2,3.4,3.3,4.8
		c0.5,1.3-2.2-0.4-4.7-2.4c2.6,2.3,4.6,4.5,5.5,6.6c0.1,0.6-0.4,0.8-2.6-0.4c-1.1-0.5,0.4,3.6,4.2,8.5c1,1.3,1.5,3.2,1.2,3.6
		c-0.4,1.1-11.3-10.9-13.2-14.4c-2.2-5.6-2.6-2.7-2.6-2.7c-0.5,1.1,4.7,5.7,3.7,6.7c-0.1,0.9-5.8-5.8-8.5-7.8
		c-1.7-1.4-2.9-6.9-4.5-6c0,0-0.4,1.7,1.4,2.9s2.3,3.8,2.3,3.8c0,1-0.3,1.4-1.2,0.5c0,0-1.5-1.3-1.6-0.6c-0.2,1.7,1.3,2.1,0.5,2.5
		c-3.4-2.2-5.7-5.6-8.2-8.9c0,0-1.7-0.2-2.6,0.9c-0.9,1.1,0.5,1.5,0.5,3.7c0,2.2-0.7,4.3,0.2,4.7c0.8,0.4,2,2.3,1.9,4.2
		c-0.2,2,0.5,15,0.5,15s-0.1,5.7,1.1,5.6c0.9,0-0.2,9.4-0.2,9.4s2.1,8.6,2.3,10.2c0.2,1.5-0.3,8.2-0.3,8.2c0.9,0-0.4,9.6,0.5,9.9
		c0.9,0.2,2.5,0.8,2,2.5c0,0-0.3,6.3-2.2,11.7c0.3,0.1,2.2,0.4,1.7,3c-0.6,3.3-3.4,11.2-1.9,11.7s4,2.2,2.5,7.8s-2.6,9.3-2.6,9.3
		s5,3.8,2,10.6c-2.8,6.3-2.6,5.8-2.6,5.8C111.3,194.7,104.6,194.9,99.5,194.5z"/>
	<path class="st2" d="M86.2,192.8c1-4,0.5-6,2-7.2l-1.6-7c-0.5-2.3-0.8-3.6,0.6-4.9c0,0-1.8-9.5-1.1-10.1c0.5-0.6-1.8-7.7-1.2-9.3
		c0.5-1.5-1.9-6.3-1.6-8.8c0.3-2.7-3.2-5.4-0.6-8.1c0,0-3.3-5.4-1-6.3c1.1-0.5-2.2-1.6-1.7-3.8c0.5-2.1-2.5,2.7-6.7-0.7
		c-1.5-1.2,0,6.7-2,9c-1.9,2.2-1.7,11.8-1.7,11.8s-1.5,2.1-1.9-3c-0.1-1.4-2.2-5.7-2.4,0.3c-0.1,2.2-3.9,13.7-4.3,20
		c-0.3,4.6-3.8,2.2-3.4,0.4l0.1-3c0,0-0.5-4.3-1.7,2.6c-0.4,2.5-2,0.6-0.6-3.3c0.7-1.9-1.2-1.1-0.9-2.7c1-4.9,1.3-9.3,0.7-9.9
		c-1.4-1.4-0.1,6.5-4.6,7.6c-1.4,0.3,0.5-5.5,0.4-10.8c-0.2-5.4,4-10.8,2.2-10.8c-1.4,0.1-3.7,7-5.5,5.5c-0.7-0.6-0.4-7.1,1.7-7.8
		c0.5-0.2,0-3.7,0-3.7s-2.2,0.1-1.5-0.4c1.7-1.5,1.3-3.4,2.2-5.4c1.3-2.7-2.9-2.5-2.9-2.5s-5,8.3-5.9,9.8c-2.1,3.2-4.2-2-4.2-2
		c-1.6,1.8-3.4,8.2-6.8,7.5c-0.6,2.2-1.9,3.6-2.7,2c0.1-2.2,2.4-5,1-5.4c0,0-8.9,8.6-12.1,12.4c-0.8,0.9-1.7-2-2.7-1
		c0,0-1.4,1.6-5,2.8c-1.8,0.6,4.6-5.7,4-6.4c0,0,2.9-11.2,6-12.6c3.1-1.4-3.2,0.4-4.1-0.4s1.2-3.5,3.1-4.6c4.1-2.4-1.8-1.6-0.6-3.2
		c1.9-2.5,9.3-7.2,9.3-7.2l-2.7-0.6c0,0,11.4-5.8,13-6.4c1.7-0.6-6-1.2-4.8-2.9c1.1-1.6,8.6-3.4,8.6-3.4c-2.4-0.4-4.6-0.9-4.5-1.8
		C36.5,96,49.7,92,53.2,93.7c-1.2-0.7-1.7-1.5-1.5-2.5c0,0,2.5-0.1,6.6,0.6c2.6,0.4-9.9-6.8-9.4-10.4c0.5-3.6,10.1,5.9,16.1,7.2
		c6,1.3-7-8.2-3.3-8.1c2.5,0.1,4.6,5.9,6,5.4c1.4-0.6-1.3-1.9,0-2.5c1.1-0.5,3.3,3.4,3.5,2.5c0.5-1.8-0.3-9.4-0.3-9.4
		c-0.3-1.9,1.2-0.2,2.4,2.6c0.7,0.1,0.9-0.5,1-1.2c0.9-1.2,1.4,0,1.5,3.4l-0.2,4.3c0.8-0.3,1.3-0.1,1.3,1.2c1.8,0.3,2.5-4.7,7.2-8.7
		c1.6-1.1,1.6-0.1,0.9,1.6L84.6,81c1,0.1,2.3-3,5.8-3.9c1.5-0.7,1.5,0.1,0.9,1.8c5.6-1.8,11.2-3.1,18.6-1.8c0.8,0.1-1.1,0.6-1.3,1.6
		c1.1,0.3,9.6-0.5,9.6-0.5c1.5-0.1,1.5,0.1,0.4,0.6c-0.2,0.2,0,0.6,0.3,0.6c1.4-0.1,2.3,0.1,2.1,0.9c-0.3,0.7-5.7,0.2-9.1,2.7
		c-0.9,1.2,7,2.5,13.4,3.7c2.4,0.5,3.1,1.2,1.7,2.3c-0.7,0.2-1.5,0.2-2.2-0.1c0.5,1.3,0.3,1.9-1.6,1c-3.2-1-3.1,0.4-0.6,1.4
		c1.5,0.9,0.5,1.2-2.2,1.1c-7.8-2.2-13.6-1.9-20.3,1.3c0,0-1,1.1,4.8,0.8c2.9-0.1,5.9,0.7,6.8,2.7c0.7,1.5,10.1,1.3,11.9,2.9
		c2.8,2.5-5.5,1.3-5.5,1.3c0,0.9,4.6,1.6,6.4,3.1c3.1,2.6,7.4,3.8,6.2,4.2l-7.1-1c-0.6,1.4,3.2,2.8,7.3,4.2c1,0.8,0,1.2-3.9,0.8
		c0.5,0.8-0.8,1.1-2.8,1.2c-4.2,0.2-9.5-2.1-9.8-1.1c-0.3,1.1-2.4,1-2.8,1.6c-0.2,0.3-0.1,1,0.4,1.1c0.9,0.2,0.6,0.7,0.6,0.7
		s-0.4,1.3-6.1-2.3c0,0-0.4,1.7-1.9,2.6c-1.2,0.8,0.8,2.4,1.3,3.7c0.2,0.5-0.8,0.9-1.7,0c-4.8-5-7.1-4.7-10.3-6.3
		c-1.5-0.8,3.1,10.7-3,11.8c-0.8,0.1,1,6.8,1,6.8c2.1,0.6,2.1,3.4,2.5,6.4c4-0.7,2.6,8.2,3.3,8.4c3.9,1.3,1.8,9.8,2.5,9.7
		c4.5-0.3,1.5,13.8,1.5,13.8c5.9,0,3.5,6.7,3.1,11.9c1.1,0.1,1.7,11.8,1.7,11.8C99,194.9,89.7,193.7,86.2,192.8z"/>
	<g>
		<g id="XMLID_4_">
			<g>
				<path d="M215.2,50.7c0.9,2.8,0.8,7.3,0.7,15.3c0,8-0.2,13.4-0.4,14.6c0,1.3-0.4,3-1.7,5.5c-1.3,2.6-3.5,4.8-5.8,6.3
					c-2.4,1.5-6.2,2.7-8.5,3.2c-2.2,0.6-3.9,0.5-7.7-1c-3.8-1.5-6.7-4-8.3-5.5c-1.6-1.7-2.4-4.3-3-6.4c-0.6-2.1-0.2-9.2-0.2-14.7
					c0.1-5.6,0.2-9.3,0.2-11.3c0.1-2,0.8-4.9,2.2-7.6c1.4-2.7,4.4-7.1,8.9-9.2c4.5-2.1,7.3-1.7,8.7-1.3c1.3,0.3,4.5,1.5,6.6,2.8
					c2.1,1.2,3.9,2.9,5,4C213.3,46.6,214.3,47.8,215.2,50.7z M205.8,71c0.2-3,0.2-5.9,0.2-11.2c-0.1-5.2-0.1-8.2-0.3-10.7
					c-0.2-2.6-1-6.1-4-7.9c-3.1-1.7-5.7-1.5-8.9-0.2c-3.1,1.3-5.7,3-8.4,8c-1.8,3.2-2.8,6.6-2.8,8.7c0,1.9,0,3.9-0.1,10.3
					c-0.1,6.4-0.1,10.9,0,12.8c0.1,1.7,0.8,4.4,3.4,6.1c2.5,1.8,4.8,2.6,8.9,0.7c4-1.7,5.7-3,7.9-6.3
					C203.9,77.9,205.5,74.1,205.8,71z"/>
				<path class="st3" d="M206,59.8c0,5.3,0,8.2-0.2,11.2c-0.2,3-1.8,6.8-4.1,10.2c-2.2,3.2-3.9,4.5-7.9,6.3
					c-4.1,1.9-6.3,1.1-8.9-0.7c-2.6-1.7-3.3-4.4-3.4-6.1c-0.1-1.9-0.1-6.4,0-12.8c0.1-6.3,0-8.4,0.1-10.3c0-2.1,1-5.6,2.8-8.7
					c2.8-5,5.3-6.7,8.4-8c3.2-1.3,5.8-1.5,8.9,0.2c3,1.7,3.8,5.3,4,7.9C205.9,51.6,205.9,54.6,206,59.8z M194,78.8
					c4.4-1.8,4.4-6.7,4.4-8.2c-0.1-1.5-0.2-16-0.2-17.7c-0.1-1.8-0.2-2.9-1.3-3.5c-1.2-0.6-2-0.5-3.6,0.1c-1.7,0.7-2.9,2-3.3,3.1
					c-0.8,1.8-0.9,3.1-0.9,4.1c-0.1,1.1,0,3.6,0,8.1c0,4.5,0.1,9.4,0.3,10.7C189.6,76.9,189.6,80.5,194,78.8z"/>
				<path d="M198.4,70.7c0,1.4,0,6.4-4.4,8.2c-4.4,1.7-4.5-2-4.7-3.3c-0.2-1.3-0.3-6.3-0.3-10.7c-0.1-4.4-0.1-7,0-8.1
					c0-1.1,0.1-2.3,0.9-4.1c0.4-1.1,1.6-2.4,3.3-3.1c1.6-0.6,2.4-0.7,3.6-0.1c1.1,0.6,1.3,1.7,1.3,3.5
					C198.2,54.6,198.3,69.2,198.4,70.7z"/>
				<path d="M176.4,84.3c0.6,1.1,0.5,3.2,0.5,5.7c0,2.4,0.4,6-1.9,10.5c-2.4,4.6-6.9,5.9-8.7,6.6c-1.9,0.8-13.9,5.3-14.5,5.4
					c-0.6,0.2-0.8,0.3-1.2,0c-0.4-0.4-7.5-5.4-7.9-5.6c-0.3-0.2-0.4-0.4-0.4-1.2c0-0.5-0.1-12.2-0.2-23.7c0-10.9,0.1-21.6,0.1-21.9
					c0-0.3,0-0.3,0.3-0.5c0.3-0.2,7.7-3,10.7-4.1c3-1.1,4.9-1.7,7.2-1.3c2.3,0.3,5.4,1.6,8.9,4.4c3.5,2.8,4.3,4.2,4.7,4.7
					c0.5,0.4,0.8,1,1.1,1.5c0.2,0.6,1,2.3,1.4,4.7c0.4,2.4,0.1,6.1-0.3,7.8c-0.3,1.6-1.8,3-2.1,3.1c-0.3,0.2-0.5,0.2-0.1,0.4
					C174.5,81.2,175.9,83.1,176.4,84.3z M163.5,95.1c2.4-3.7,4.1-7.7,4.1-11.3c-0.1-3.5-0.5-5.3-1.9-6.8c-1.4-1.4-1.2-1.3-1.4-1.4
					c-0.1-0.2-0.1-0.4,0.1-0.8c0.2-0.4,2.5-4.4,2.9-9c0.3-4.6-0.9-6.9-3.6-9.1c-2.5-2.2-6.2-1.9-9.7-0.5c-3.5,1.4-9.9,3.6-10.3,3.8
					c-0.5,0.2-0.5,0-0.6,0.3c0,0.3-0.1,10.3,0,20.9c0,11.9,0.3,24.4,0.3,24.5c0,0.3-0.1,0.4,0.2,0.3c0.2-0.1,11.4-4.4,12.9-5.2
					C158,100.2,161.1,98.8,163.5,95.1z"/>
				<path class="st3" d="M167.5,83.9c0,3.6-1.7,7.6-4.1,11.3c-2.4,3.7-5.5,5.1-7,5.8c-1.6,0.8-12.8,5.2-12.9,5.2
					c-0.2,0.1-0.2-0.1-0.2-0.3c0-0.1-0.3-12.6-0.3-24.5c-0.1-10.5,0-20.6,0-20.9c0.1-0.4,0.1-0.2,0.6-0.3c0.4-0.2,6.8-2.4,10.3-3.8
					c3.5-1.3,7.2-1.7,9.7,0.5c2.6,2.2,3.9,4.5,3.6,9.1c-0.4,4.6-2.7,8.6-2.9,9c-0.2,0.4-0.2,0.6-0.1,0.8c0.2,0.1,0,0,1.4,1.4
					C167,78.5,167.5,80.4,167.5,83.9z M158.8,71.3c0.9-1.8,1.1-3.7,0.4-5.2c-0.7-1.5-1.7-1.7-2.7-1.7c-1,0-2,0.2-2.7,0.5
					c-0.8,0.3-2.4,0.9-2.7,1.1c-0.3,0.3-0.3,0.4-0.3,0.5c0,0.3,0,2.5,0,4.5c0,2,0.1,4.4,0.1,4.6c0,0.2,0.3,0.3,0.7,0.2
					c0.4-0.1,3.4-1.2,4.2-1.6C156.4,73.9,157.9,73,158.8,71.3z M159,89.1c1.1-2.6,0.3-5.1-1-5.9c-1.3-0.7-2.8-0.3-4.1,0.1
					c-1.2,0.5-2.8,1.2-3.1,1.4c-0.2,0.1-0.2,0.3-0.2,0.5c0,0.4,0.1,8.4,0.2,8.8c0,0.5,0.2,0.4,0.4,0.4c0.3-0.1,3.6-1.2,4.1-1.4
					C155.9,92.6,158.1,91.7,159,89.1z"/>
				<path d="M159.1,66.1c0.8,1.5,0.5,3.4-0.4,5.2c-0.9,1.6-2.4,2.6-3.1,3c-0.8,0.4-3.8,1.4-4.2,1.6c-0.4,0.1-0.7,0-0.7-0.2
					c-0.1-0.2-0.1-2.6-0.1-4.6c0-2,0-4.2,0-4.5c0-0.1,0-0.3,0.3-0.5c0.3-0.3,2-0.9,2.7-1.1c0.7-0.3,1.6-0.5,2.7-0.5
					C157.4,64.4,158.5,64.6,159.1,66.1z"/>
				<path d="M158,83.2c1.3,0.8,2.1,3.2,1,5.9c-1,2.7-3.1,3.6-3.6,3.8c-0.5,0.2-3.8,1.3-4.1,1.4c-0.2,0-0.4,0.1-0.4-0.4
					c-0.1-0.4-0.2-8.4-0.2-8.8c0-0.2,0-0.3,0.2-0.5c0.2-0.1,1.9-0.9,3.1-1.4C155.2,82.9,156.7,82.5,158,83.2z"/>
				<path d="M136.9,71.2c0,0.7,0,44.4,0,45.3c0,1.1-0.4,1.5-0.9,1.6c-0.4,0.1-6.6,2.6-7.2,2.7c-0.5,0.2-0.5,0.1-0.9,0
					c-0.3-0.1-4.7-2.3-5.1-2.5c-0.3-0.2-0.6-0.2-0.6,0.2c-0.1,0.5-0.5,3.6-0.6,4.3c-0.1,0.6-0.2,0.7-0.6,0.9c-0.4,0.2-4,1.5-4.3,1.7
					c-0.3,0.1-0.6,0.2-1,0c-0.3-0.2-5.3-2.5-5.6-2.7c-0.3-0.1-0.4-0.2-0.4,0.2c-0.1,0.5-0.2,3.8-0.3,4.4c-0.1,0.6-0.4,0.8-0.9,1
					c-0.5,0.3-8.1,3.1-8.8,3.3c-0.7,0.3-0.8,0.1-1.3,0c-0.4-0.2-6.7-5.1-7-5.3c-0.3-0.2-0.5-0.5-0.5-1.1c0-0.3,0-6.9,0-13.2l1,0
					c0,0.8,0,1.6,0,2.3c0,2.1,0.1,9.7,0.1,10.1c0.1,0.4-0.1,0.9,0.3,0.8c0.3-0.2,6.2-2.7,6.5-2.8c0.3-0.1,0.5-0.1,0.5-0.6
					c0-0.6,0-13.1,0-16.3c0-3.2,0.1-11.8,0-12.6c0-0.9,0.2-0.7,0.5,0.3c0.3,1.1,6,21.9,6.4,23c0.4,1.2,0.6,2.5,0.6,2.8
					c0,0.3-0.1,0.4,0.3,0.3c0.3-0.1,3.7-1.5,3.9-1.5c0.2-0.1,0.3,0,0.4-0.6c0.2-0.7,2.2-9.9,3.7-15.9c1.5-6,3.3-13.7,3.5-14.7
					c0.2-1,0.3-1.4,0.3-0.1c0,1.3,0,27.5,0.1,28c0,0.5,0.1,0.5,0.3,0.4c0.3-0.1,0.3-0.1,0.3-0.1s6.2-2.4,6.5-2.5
					c0.3-0.1,0.3-0.1,0.3-0.5c0.1-0.4,0-18.4,0-23.4c0-4.9-0.1-21-0.1-21.6c-0.1-0.5,0-0.5-0.5-0.3c-0.6,0.3-9.7,3.6-10,3.7
					c-0.5,0.2-0.5,0.3-0.6,0.6c0,0.1-0.8,3.2-1.7,7.2l-1.2-0.3c0.1-0.4,1.5-6.9,1.7-7.6c0.2-0.7,0.2-0.6,0.8-0.9
					c0.6-0.2,11.8-4.4,12.7-4.7c0.8-0.3,1-0.2,1.4,0.1c0.5,0.4,7.1,5.4,7.4,5.6C136.8,70.6,136.8,70.5,136.9,71.2z"/>
				<path class="st3" d="M126.8,88.4c0,5,0.1,23,0,23.4c0,0.4,0,0.3-0.3,0.5c-0.3,0.2-6.5,2.5-6.5,2.5s0,0-0.3,0.1
					c-0.3,0.1-0.3,0.1-0.3-0.4c-0.1-0.6-0.1-26.7-0.1-28c0-1.3-0.1-0.9-0.3,0.1c-0.2,1-2,8.7-3.5,14.7c-1.5,6.1-3.5,15.2-3.7,15.9
					c-0.1,0.6-0.2,0.5-0.4,0.6c-0.2,0-3.6,1.4-3.9,1.5c-0.4,0.1-0.3,0-0.3-0.3c-0.1-0.3-0.3-1.7-0.6-2.8c-0.5-1.1-6.1-22-6.4-23
					c-0.2-1.1-0.5-1.2-0.5-0.3c0.1,0.8,0,9.4,0,12.6c0,3.2,0,15.8,0,16.3c0,0.5-0.2,0.5-0.5,0.6c-0.3,0.1-6.1,2.6-6.5,2.8
					c-0.4,0.1-0.3-0.4-0.3-0.8c0-0.4-0.1-8-0.1-10.1c0-0.7,0-1.4,0-2.3c0-1.8,0-4.1,0.1-7c0.1-4.2,0.4-25.1,0.4-25.5
					c0-0.3,0.1-0.4,0.5-0.5c0.3-0.2,9.1-3.2,9.4-3.3c0.3-0.1,0.5-0.2,0.5,0.1c0.1,0.3,5.7,18.8,6.1,20c0.3,1.2,0.4,0.8,0.6,0.2
					c0.1-0.4,2.5-10.6,4.2-17.8c0.9-4,1.7-7.1,1.7-7.2c0.1-0.3,0.1-0.4,0.6-0.6c0.3-0.1,9.4-3.5,10-3.7c0.6-0.2,0.5-0.2,0.5,0.3
					C126.7,67.4,126.8,83.5,126.8,88.4z"/>
				<path d="M112.7,77.8l1.2,0.3c-1.7,7.3-4.1,17.4-4.2,17.8c-0.2,0.6-0.2,1-0.6-0.2c-0.4-1.2-6-19.8-6.1-20
					c-0.1-0.3-0.2-0.2-0.5-0.1c-0.3,0.1-9,3.1-9.4,3.3c-0.4,0.1-0.5,0.2-0.5,0.5c0,0.5-0.3,21.4-0.4,25.5c0,2.9-0.1,5.2-0.1,7l-1,0
					c0-4.8,0-9.5,0-11c0-3.6,0.2-22.1,0.3-22.6c0-0.4-0.1-0.4,0.7-0.7c0.7-0.3,11-4.1,11.7-4.3c0.6-0.2,0.9-0.3,1.4,0
					c0.5,0.3,6.2,4.2,6.8,4.6C112.7,78.5,112.5,78.3,112.7,77.8z"/>
				<path d="M87.6,126.8c0,0.7,0.1,8.6,0.1,9.1c0,0.4-0.2,0.6-0.5,0.7c-0.3,0.1-7.7,3-7.9,3c-0.3,0-0.5,0-0.7-0.1
					c-0.2-0.1-3.2-1.8-4.2-2.6c-1.1-0.6-3.9-2.4-4.1-2.5c-0.1-0.1-0.1-0.2-0.2-0.2l1.4-1.7c0,0,0.1,0,0.2,0c0.2-0.1,6.6-2.4,6.9-2.5
					c0.3-0.1,0.3-0.2,0.2-0.5c0-0.1-1.8-9.3-3.9-18.7c-2.5-11-5.2-22.8-5.2-22.9c-0.1-0.2-0.1-0.6-0.3-0.5c-0.2,0.1-9.7,3.6-9.8,3.7
					c-0.1,0-0.2,0.1-0.2,0.5c0,0.3-9.3,48.3-9.5,48.7l-1.1-0.1c1.1-5.9,9.4-49.1,9.4-49.4c0.1-0.4,0.2-0.5,0.7-0.7
					c0.5-0.2,10.2-3.8,11-4c0.8-0.2,0.9,0,1.6,0.3c0.6,0.4,7.7,5.3,8.1,5.6c0.5,0.4,0.5,0.4,0.6,1c0.2,0.6,1.7,7.2,2.9,13.2
					c1.3,5.9,4.2,18.8,4.2,19.3C87.5,126.1,87.5,126.2,87.6,126.8z"/>
				<path class="st3" d="M78.9,129.6c0.1,0.2,0.1,0.4-0.2,0.5c-0.3,0.1-6.6,2.4-6.9,2.5c-0.1,0-0.1,0-0.2,0c0,0,0-0.1-0.1-0.2
					c-0.1-0.2-1.6-8.2-1.7-8.4c-0.1-0.3-0.2-0.5-0.5-0.3c-0.3,0.1-2.9,0.9-5,1.8c-2.1,0.9-3.9,1.5-4.2,1.6c-0.2,0.1-0.3,0.2-0.4,0.5
					c-0.1,0.2-0.6,2.9-1,4.5c-0.3,1.4-1.1,5.4-1.1,5.6c0,0.1,0,0.2-0.2,0.3c-0.2,0.1-2.5,0.9-3.8,1.4c-1.3,0.5-3.4,1.3-3.5,1.4
					c-0.1,0-0.2,0-0.1-0.2c0.1-0.5,9.4-48.4,9.5-48.7c0.1-0.4,0.1-0.4,0.2-0.5c0.2-0.1,9.6-3.6,9.8-3.7c0.2-0.1,0.2,0.3,0.3,0.5
					c0,0.1,2.8,12,5.2,22.9C77.1,120.3,78.9,129.4,78.9,129.6z M67.7,117.2c0.3-0.2,0.8-0.4,0.7-0.9c-0.1-0.4-0.6-3-1.4-6.8
					c-0.8-3.9-1.8-8.1-1.9-8.6c-0.1-0.4-0.4-0.5-0.6,0.4c-0.2,0.9-1.1,6-1.6,8.9c-0.6,2.9-1.5,8.1-1.6,8.7c0,0.5,0.3,0.4,0.5,0.4
					C62.1,119.3,67.4,117.3,67.7,117.2z"/>
				<path d="M71.6,132.5l-1.4,1.7c0,0,0,0-0.1,0.1c-0.1,0.3-0.3,2.4-0.6,4.2c-0.3,1.8-0.7,3.9-0.8,4.4c-0.1,0.6-0.1,0.6-0.6,0.8
					c-0.4,0.2-9.9,3.7-10.6,3.8c-0.5,0.2-0.7,0.1-1-0.1c-0.4-0.2-7.4-5.4-7.7-5.6c-0.2-0.2-0.2-0.5-0.1-1c0,0,0-0.3,0.1-0.7l1.1,0.1
					c0,0.2,0,0.3,0.1,0.2c0.1,0,2.3-0.8,3.5-1.4c1.3-0.5,3.6-1.3,3.8-1.4c0.2-0.1,0.2-0.1,0.2-0.3c0-0.1,0.9-4.2,1.1-5.6
					c0.3-1.6,0.9-4.3,1-4.5c0.1-0.3,0.2-0.4,0.4-0.5c0.3-0.1,2.1-0.8,4.2-1.6c2.1-0.9,4.7-1.7,5-1.8c0.3-0.1,0.5,0,0.5,0.3
					c0.1,0.2,1.6,8.2,1.7,8.4C71.5,132.4,71.5,132.5,71.6,132.5z"/>
				<path d="M68.4,116.4c0.1,0.4-0.3,0.7-0.7,0.9c-0.3,0.1-5.6,2.1-6,2.1c-0.1,0-0.5,0.2-0.5-0.4c0.1-0.6,1-5.8,1.6-8.7
					c0.5-2.9,1.4-8,1.6-8.9c0.2-0.9,0.5-0.8,0.6-0.4c0.1,0.5,1.1,4.7,1.9,8.6C67.8,113.3,68.3,116,68.4,116.4z"/>
				<path d="M45.9,104.7c0,0.7,0,44.4,0,45.3c0,1.1-0.4,1.5-0.9,1.6c-0.4,0.1-6.6,2.6-7.2,2.7c-0.5,0.2-0.5,0.1-0.9,0
					c-0.3-0.1-4.7-2.3-5.1-2.5c-0.3-0.2-0.6-0.2-0.6,0.2c-0.1,0.5-0.5,3.6-0.6,4.3c-0.1,0.6-0.2,0.7-0.6,0.9c-0.4,0.2-4,1.5-4.3,1.7
					c-0.3,0.1-0.6,0.2-1,0c-0.3-0.2-5.3-2.5-5.6-2.7c-0.3-0.1-0.4-0.2-0.4,0.2c0,0.5-0.2,3.8-0.3,4.4c-0.1,0.6-0.4,0.8-0.9,1
					c-0.5,0.3-8.2,3.1-8.8,3.3c-0.7,0.2-0.8,0.1-1.3-0.1c-0.4-0.2-6.7-5.1-7-5.3c-0.3-0.2-0.5-0.6-0.5-1.1c0-0.3,0-6.9,0-13.2h1
					c0,0.8,0,1.6,0,2.3c0,2.1,0.1,9.7,0.1,10.1c0.1,0.4,0,0.9,0.4,0.8c0.3-0.2,6.2-2.7,6.5-2.8c0.3-0.1,0.5-0.1,0.5-0.6
					c0-0.6,0-13.1,0-16.3c0-3.2,0.1-11.8,0-12.6c0-0.9,0.2-0.7,0.5,0.4c0.3,1.1,6,21.9,6.4,23c0.3,1.2,0.6,2.5,0.6,2.8
					c0,0.3-0.1,0.4,0.3,0.3c0.3-0.1,3.7-1.5,3.9-1.5c0.2-0.1,0.3,0,0.4-0.6c0.2-0.7,2.2-9.9,3.7-15.9c1.5-6,3.3-13.7,3.5-14.7
					c0.2-1,0.3-1.4,0.3-0.1c0,1.3,0,27.5,0.1,28c0,0.5,0.1,0.5,0.4,0.4c0.3-0.1,0.3-0.1,0.3-0.1s6.2-2.4,6.5-2.5
					c0.3-0.1,0.3-0.1,0.3-0.5c0.1-0.4,0-18.4,0-23.4c0-4.9-0.1-21-0.1-21.6c-0.1-0.5,0.1-0.5-0.5-0.3c-0.6,0.3-9.7,3.6-10,3.7
					c-0.5,0.2-0.5,0.3-0.6,0.6c0,0.1-0.8,3.2-1.7,7.2l-1.2-0.3c0.1-0.4,1.5-6.9,1.7-7.6c0.2-0.7,0.2-0.6,0.8-0.9
					c0.6-0.2,11.8-4.4,12.7-4.7c0.8-0.3,1-0.2,1.4,0.1c0.5,0.4,7.1,5.4,7.4,5.6C45.7,104,45.8,104,45.9,104.7z"/>
				<path class="st3" d="M35.8,121.9c0,5,0.1,23,0,23.4c0,0.4,0,0.3-0.3,0.5c-0.3,0.2-6.5,2.5-6.5,2.5s0,0-0.3,0.1
					c-0.3,0.1-0.3,0.1-0.4-0.4c-0.1-0.6-0.1-26.7-0.1-28c0-1.3-0.1-0.9-0.3,0.1c-0.2,1.1-2,8.7-3.5,14.7c-1.5,6.1-3.5,15.2-3.7,15.9
					c-0.1,0.6-0.2,0.5-0.4,0.6c-0.2,0-3.6,1.4-3.9,1.5c-0.4,0.1-0.3,0-0.3-0.3c-0.1-0.3-0.3-1.7-0.6-2.8c-0.5-1.1-6.2-22-6.4-23
					c-0.2-1.1-0.5-1.2-0.5-0.4c0.1,0.8,0,9.4,0,12.6c0,3.2,0,15.8,0,16.3c0,0.5-0.2,0.5-0.5,0.6c-0.3,0.1-6.1,2.6-6.5,2.8
					c-0.4,0.1-0.3-0.4-0.4-0.8c0-0.4-0.1-7.9-0.1-10.1c0-0.7,0-1.4,0-2.3c0-1.9,0-4.1,0.1-7c0.1-4.2,0.4-25.1,0.4-25.6
					c0-0.3,0.1-0.4,0.5-0.5c0.3-0.2,9.1-3.2,9.4-3.3c0.3-0.1,0.5-0.2,0.5,0.1c0.1,0.3,5.7,18.8,6.1,20c0.3,1.2,0.4,0.8,0.6,0.2
					c0.1-0.4,2.5-10.6,4.2-17.8c0.9-4,1.7-7.1,1.7-7.2c0.1-0.3,0.1-0.4,0.6-0.6c0.3-0.1,9.4-3.5,10-3.7c0.6-0.2,0.5-0.2,0.5,0.3
					C35.7,100.8,35.8,116.9,35.8,121.9z"/>
				<path d="M21.6,111.2l1.2,0.3c-1.7,7.3-4.1,17.4-4.2,17.8c-0.2,0.7-0.2,1-0.6-0.2c-0.4-1.2-6-19.8-6.1-20
					c-0.1-0.3-0.2-0.2-0.5-0.1c-0.3,0.1-9,3.1-9.4,3.3c-0.4,0.1-0.5,0.2-0.5,0.5c0,0.5-0.3,21.4-0.4,25.6c0,2.9-0.1,5.2-0.1,7h-1
					c0-4.8,0.1-9.5,0-11.1c0-3.6,0.2-22.1,0.3-22.6c0-0.4-0.1-0.4,0.7-0.7c0.7-0.3,11-4.1,11.7-4.3c0.6-0.2,0.9-0.2,1.4,0
					c0.5,0.3,6.2,4.2,6.8,4.6C21.6,112,21.5,111.7,21.6,111.2z"/>
			</g>
			<g>
			</g>
		</g>
	</g>
	<g>
		<g id="XMLID_3_">
			<g>
				<polygon points="180.5,111.2 186,121.3 184,122.1 181.3,121 181,120.3 181.2,120.2 181.5,120.7 182.9,120.2 177.6,110.4 
					176,111 175.8,111 175.8,110.9 177.7,110.2 				"/>
				<path class="st3" d="M177.6,110.4l5.3,9.7l-1.4,0.5l-0.3-0.5l-1-1.9l-5.3,2l-0.8,3.1l-1.4,0.5L176,111L177.6,110.4z
					 M179.7,117.2l-2.6-4.8l-0.2,0.1l-1.6,6.4L179.7,117.2z"/>
				<polygon points="180.2,118.3 181.2,120.2 181,120.3 176.7,121.9 176,125.1 174.4,125.6 172.5,124.2 175.8,111 176,111 
					172.8,123.9 174.2,123.4 174.9,120.3 				"/>
				<path d="M177,112.3l2.6,4.8l-4.5,1.6l1.6-6.4L177,112.3z M179.4,117.1l-1.2-2.1l-0.7,2.8L179.4,117.1z"/>
				<polygon points="171.6,124.9 171.8,126.6 163.8,129.6 161.7,128.2 161.6,126.7 161.6,126.6 161.8,126.7 161.9,128 169.5,125.1 
					169.4,123.8 169.4,123.6 169.6,123.5 				"/>
				<polygon points="169.9,115.2 170.1,116.7 166.4,124.7 169.4,123.6 169.4,123.8 163.6,126 163.5,125.8 168.5,115.2 168.4,113.9 
					161.2,116.5 161.4,117.8 161.1,117.8 161,116.4 168.5,113.6 				"/>
				<polygon class="st3" points="169.4,123.8 169.5,125.1 161.9,128 161.8,126.7 166.8,116 166.7,115.8 161.4,117.8 161.2,116.5 
					168.4,113.9 168.5,115.2 163.5,125.8 163.6,126 				"/>
				<polygon points="166.7,115.8 166.8,116 161.8,126.7 161.6,126.6 165.3,118.6 163.2,119.4 161.2,118 161.1,117.8 161.4,117.8 
									"/>
				<polygon points="160,129.2 160.2,130.9 152.2,133.8 150.1,132.5 150,131 150,130.9 150.2,131 150.3,132.2 158,129.4 
					157.8,128.1 154.8,129.2 154.8,129 158,127.8 				"/>
				<polygon points="158.4,119.5 158.5,121 154.8,129 154.8,129.2 152,130.2 151.9,130.1 156.9,119.4 156.8,118.2 149.6,120.8 
					149.8,122.1 155.1,120.1 155.2,120.3 150.2,131 150,130.9 153.7,122.9 151.6,123.7 149.6,122.3 149.4,120.6 156.9,117.9 				"/>
				<polygon class="st3" points="157.8,128.1 158,129.4 150.3,132.2 150.2,131 155.2,120.3 155.1,120.1 149.8,122.1 149.6,120.8 
					156.8,118.2 156.9,119.4 151.9,130.1 152,130.2 154.8,129.2 				"/>
				<path d="M146.8,123.7l1.1,11.7l-1.7,0.6l-2.1-1.4L143,123l1.7-0.6L146.8,123.7z M145.7,134l-1.1-11.3l-1.3,0.5l1,11.3L145.7,134
					z"/>
				<polygon class="st3" points="144.6,122.6 145.7,134 144.3,134.5 143.3,123.1 				"/>
				<path d="M141.5,129.3c0.2,2.3-1.2,4.6-3.5,5.4l-1.9,0.7l0.4,4.2l-1.7,0.6l-2.1-1.4l-1.1-11.7l3.8-1.4c1.3-0.5,2.4-0.4,3.1,0.1
					l1.6,1.1C141,127.4,141.4,128.2,141.5,129.3z M136,133.4c2.3-0.8,3.7-3,3.5-5.2c-0.2-2.2-1.9-2.9-4.1-2.2l-3.6,1.3l1,11.3
					l1.3-0.5l-0.4-4L136,133.4z"/>
				<path class="st3" d="M139.5,128.2c0.2,2.2-1.2,4.3-3.5,5.2l-2.1,0.8l0.4,4l-1.3,0.5l-1-11.3l3.6-1.3
					C137.6,125.2,139.3,126,139.5,128.2z M136,132c1.4-0.5,2.3-1.9,2.2-3.3c-0.1-1.4-1.2-2-2.6-1.4l-2.2,0.8l0.4,4.7L136,132z"/>
				<path d="M138.2,128.8c0.1,1.4-0.8,2.7-2.2,3.3l-2.2,0.8l-0.4-4.7l2.2-0.8C137,126.8,138.1,127.4,138.2,128.8z M136,131.8
					c1.3-0.5,2.1-1.7,2-2.9c0-0.1,0-0.1,0-0.2c-0.1,0-0.3,0.1-0.4,0.1l-2.1,0.8l0.2,2.4L136,131.8z"/>
			</g>
			<g>
			</g>
		</g>
	</g>
</g>
</svg>
