<?xml version="1.0" encoding="UTF-8"?>
<svg width="1024px" height="1024px" viewBox="0 0 32 32" xmlns="http://www.w3.org/2000/svg">
   <ellipse cx="16" cy="16" rx="16" ry="16" fill="#004bef"></ellipse>  
   <path d="M 7.97 24.03 L 15.197 24.03 L 15.197 16.803 C 11.182 16.803 7.97 20.048 7.97 24.03 Z" fill="#fff" style=""></path>
   <path d="M 11.55 7.969 C 9.576 7.969 7.97 9.575 7.97 11.549 C 7.97 13.523 9.576 15.163 11.584 15.163 C 13.591 15.163 15.197 13.556 15.197 11.549 C 15.197 9.541 13.557 7.969 11.55 7.969 Z" fill="#fff" style=""></path>
   <path d="M 16.804 16.803 L 24.031 16.803 L 24.031 24.03 L 16.804 24.03 L 16.804 16.803 Z" fill="#fff" style=""></path>
   <path d="M 16.804 7.969 L 16.804 15.163 L 24.031 7.969 L 16.804 7.969 Z" fill="#fff" style=""></path>
</svg>