<svg width="12" height="16" viewBox="0 0 12 16" fill="none" xmlns="http://www.w3.org/2000/svg">
<path d="M11.9023 3.431L8.569 0.0976562C8.5065 0.0351562 8.42188 0 8.33331 0H1.33331C0.597969 0 0 0.597969 0 1.33334V14.6667C0 15.402 0.597969 16 1.33334 16H10.6667C11.402 16 12 15.402 12 14.6667V3.66666C12 3.57812 11.9648 3.4935 11.9023 3.431ZM8.66666 1.13803L10.862 3.33334H9.33331C8.96581 3.33334 8.66666 3.03419 8.66666 2.66669V1.13803ZM11.3333 14.6667C11.3333 15.0342 11.0342 15.3333 10.6667 15.3333H1.33334C0.965844 15.3333 0.666687 15.0342 0.666687 14.6667V1.33334C0.666687 0.965844 0.965844 0.666687 1.33334 0.666687H8V2.66669C8 3.40203 8.59797 4 9.33334 4H11.3333V14.6667Z" fill="#565656"/>
<path d="M7.69953 9.45216C7.39094 9.20931 7.09766 8.95966 6.90234 8.76434C6.64844 8.51044 6.42219 8.26434 6.22559 8.02997C6.53225 7.08238 6.66669 6.59378 6.66669 6.33334C6.66669 5.22691 6.26694 5 5.66669 5C5.21062 5 4.66669 5.23697 4.66669 6.36525C4.66669 6.86266 4.93916 7.4665 5.47919 8.16831C5.34703 8.57163 5.19175 9.03681 5.01728 9.56122C4.93328 9.81284 4.84216 10.0459 4.74578 10.2614C4.66734 10.2963 4.59116 10.3317 4.51759 10.3685C4.25262 10.501 4.001 10.6201 3.76759 10.7308C2.70313 11.2347 2 11.5681 2 12.2263C2 12.7041 2.51922 13 3 13C3.61978 13 4.55566 12.1722 5.23925 10.7777C5.94888 10.4977 6.83106 10.2903 7.52734 10.1605C8.08528 10.5895 8.7015 11 9 11C9.8265 11 10 10.5221 10 10.1214C10 9.33331 9.09959 9.33331 8.66666 9.33331C8.53222 9.33334 8.17156 9.37306 7.69953 9.45216ZM3 12.3333C2.80956 12.3333 2.68066 12.2435 2.66666 12.2263C2.66666 11.9899 3.37141 11.6559 4.05306 11.333C4.09634 11.3125 4.14031 11.292 4.18491 11.2708C3.68425 11.9968 3.18913 12.3333 3 12.3333ZM5.33334 6.36525C5.33334 5.66669 5.55016 5.66669 5.66669 5.66669C5.90237 5.66669 6.00003 5.66669 6.00003 6.33334C6.00003 6.47397 5.90628 6.82553 5.73472 7.37438C5.47297 6.97138 5.33334 6.626 5.33334 6.36525ZM5.58887 9.94794C5.60972 9.89 5.62991 9.83141 5.64944 9.77216C5.77312 9.40106 5.88447 9.06772 5.98375 8.76759C6.12209 8.91994 6.27119 9.07588 6.43103 9.23569C6.49353 9.29819 6.64847 9.43881 6.85487 9.61491C6.444 9.70444 6.00684 9.81544 5.58887 9.94794ZM9.33334 10.1214C9.33334 10.2712 9.33334 10.3333 9.02409 10.3353C8.93328 10.3158 8.72331 10.1921 8.46419 10.0157C8.55825 10.0053 8.62759 10 8.66666 10C9.15919 10 9.29884 10.0482 9.33334 10.1214Z" fill="#565656"/>
</svg>
