<svg width="13" height="14" viewBox="0 0 13 14" fill="none" xmlns="http://www.w3.org/2000/svg">
<path d="M10.0688 8.83358C9.31048 8.83358 8.6343 9.21044 8.20176 9.79288L4.57996 7.68298C4.66482 7.42888 4.71136 7.1548 4.71136 6.87214C4.71136 6.58664 4.66482 6.31541 4.57722 6.05845L8.19629 3.95141C8.62609 4.5367 9.305 4.91642 10.066 4.91642C11.3637 4.91642 12.4231 3.81437 12.4231 2.45821C12.4231 1.10206 11.3664 0 10.066 0C8.7657 0 7.709 1.10206 7.709 2.45821C7.709 2.74372 7.75554 3.01781 7.84314 3.27191L4.22681 5.37894C3.79701 4.7908 3.11809 4.41393 2.35705 4.41393C1.05944 4.41393 0 5.51599 0 6.87214C0 8.2283 1.05944 9.33036 2.35979 9.33036C3.12083 9.33036 3.79975 8.95063 4.23228 8.36249L7.85135 10.4724C7.76375 10.7293 7.71448 11.0063 7.71448 11.2918C7.71448 12.6451 8.77118 13.75 10.0715 13.75C11.3719 13.75 12.4286 12.6479 12.4286 11.2918C12.4286 9.93563 11.3691 8.83358 10.0688 8.83358ZM10.0688 0.773723C10.9612 0.773723 11.6867 1.53032 11.6867 2.46107C11.6867 3.39182 10.9612 4.14841 10.0688 4.14841C9.17634 4.14841 8.45088 3.39182 8.45088 2.46107C8.45088 1.53032 9.17908 0.773723 10.0688 0.773723ZM2.35979 8.55949C1.46734 8.55949 0.741882 7.8029 0.741882 6.87214C0.741882 5.94139 1.46734 5.1848 2.35979 5.1848C3.25223 5.1848 3.97769 5.94139 3.97769 6.87214C3.97769 7.8029 3.2495 8.55949 2.35979 8.55949ZM10.0688 12.9763C9.17634 12.9763 8.45088 12.2197 8.45088 11.2889C8.45088 10.3582 9.17634 9.60159 10.0688 9.60159C10.9612 9.60159 11.6867 10.3582 11.6867 11.2889C11.6867 12.2197 10.9612 12.9763 10.0688 12.9763Z" fill="#565656"/>
</svg>
