<svg width="400" height="400" viewBox="0 0 400 400" fill="none" xmlns="http://www.w3.org/2000/svg">
<path d="M374.461 284.61C374.418 284.519 374.368 284.432 374.311 284.35C374.267 284.294 374.22 284.241 374.171 284.19C374.129 284.12 374.079 284.056 374.021 284L373.841 283.83C373.642 283.66 373.427 283.51 373.201 283.38L150.511 154.82C149.397 154.261 148.167 153.969 146.921 153.969C145.674 153.969 144.445 154.261 143.331 154.82L27.4506 221.54C27.3041 221.619 27.1638 221.71 27.0306 221.81C27.0306 221.81 26.9206 221.88 26.8806 221.92C26.646 222.114 26.4435 222.343 26.2806 222.6C26.2418 222.653 26.2083 222.71 26.1806 222.77C26.1299 222.858 26.0896 222.952 26.0606 223.05C26.0403 223.122 26.0236 223.196 26.0106 223.27C25.9965 223.39 25.9965 223.51 26.0106 223.63C26.0054 223.713 26.0054 223.797 26.0106 223.88C26.028 223.975 26.0514 224.068 26.0806 224.16C26.1127 224.253 26.1528 224.344 26.2006 224.43C26.4891 224.955 26.9232 225.386 27.4506 225.67L250.151 354.22C250.815 354.58 251.535 354.827 252.281 354.95C252.764 355.026 253.252 355.066 253.741 355.07C254.223 355.069 254.704 355.032 255.181 354.96C255.339 354.941 255.496 354.911 255.651 354.87C256.094 354.767 256.527 354.62 256.941 354.43C257.081 354.37 257.201 354.29 257.331 354.22L373.201 287.51C374.561 286.73 374.941 285.61 374.461 284.61Z" fill="#E0E0E0"/>
<path d="M364.801 269.87C364.758 269.777 364.705 269.69 364.641 269.61C364.6 269.554 364.557 269.501 364.511 269.45C364.466 269.38 364.412 269.316 364.351 269.26L364.181 269.1C363.981 268.924 363.763 268.77 363.531 268.64L146.941 143.57C145.827 143.011 144.597 142.719 143.351 142.719C142.104 142.719 140.875 143.011 139.761 143.57L33.5206 204.88L33.0906 205.15L32.9506 205.27C32.7138 205.457 32.5108 205.684 32.3506 205.94C32.2511 206.079 32.1766 206.235 32.1306 206.4C32.1249 206.473 32.1249 206.547 32.1306 206.62C32.1159 206.74 32.1159 206.86 32.1306 206.98C32.1257 207.063 32.1257 207.147 32.1306 207.23C32.1492 207.324 32.1726 207.418 32.2006 207.51C32.2312 207.602 32.268 207.693 32.3106 207.78C32.6081 208.309 33.0528 208.739 33.5906 209.02L250.151 334.1C250.814 334.461 251.534 334.705 252.281 334.82C252.763 334.904 253.251 334.947 253.741 334.95C254.223 334.95 254.705 334.91 255.181 334.83C255.339 334.811 255.496 334.781 255.651 334.74C256.096 334.642 256.528 334.494 256.941 334.3C257.081 334.24 257.201 334.17 257.331 334.1L363.531 272.78C364.941 271.99 365.321 270.87 364.801 269.87ZM341.471 265.43L334.681 269.36L244.191 321.56C243.957 321.698 243.713 321.818 243.461 321.92C242.722 322.227 241.93 322.385 241.131 322.385C240.331 322.385 239.539 322.227 238.801 321.92C238.549 321.818 238.305 321.698 238.071 321.56L66.2606 222.37L57.9406 217.58C57.6497 217.416 57.3864 217.206 57.1606 216.96C56.3006 216.02 56.5706 214.82 57.9406 214.02L155.181 157.88C156.289 157.127 157.613 156.758 158.951 156.83C159.271 156.87 159.584 156.954 159.881 157.08C160.047 157.142 160.208 157.219 160.361 157.31L341.471 261.87C341.782 262.051 342.04 262.311 342.22 262.623C342.399 262.936 342.494 263.29 342.494 263.65C342.494 264.01 342.399 264.364 342.22 264.677C342.04 264.989 341.782 265.249 341.471 265.43Z" fill="#455A64"/>
<path d="M33.1006 205.16C32.1753 205.865 31.4137 206.761 30.8682 207.788C30.3227 208.816 30.0063 209.949 29.9406 211.11V215.85C30.0059 217.098 30.3651 218.313 30.9889 219.395C31.6128 220.478 32.4837 221.398 33.5306 222.08L250.121 347.14C250.936 347.587 251.835 347.863 252.761 347.95C253.081 347.95 253.391 348 253.761 348.01V334.95C253.272 334.941 252.784 334.901 252.301 334.83C251.55 334.708 250.826 334.458 250.161 334.09L33.5206 209.02C31.6906 207.97 31.5406 206.3 33.1006 205.16Z" fill="#37474F"/>
<path opacity="0.3" d="M307.431 295.34C305.438 294.353 303.244 293.84 301.021 293.84C298.797 293.84 296.603 294.353 294.611 295.34C293.832 295.75 293.171 296.353 292.691 297.09C291.541 299.09 293.691 300.59 294.611 301.15C296.603 302.136 298.797 302.649 301.021 302.649C303.244 302.649 305.438 302.136 307.431 301.15C308.203 300.731 308.862 300.13 309.351 299.4C310.501 297.4 308.381 295.9 307.431 295.34Z" fill="white"/>
<path d="M95.3106 179.85C95.5133 179.773 95.6878 179.636 95.8109 179.457C95.934 179.279 96 179.067 96 178.85C96 178.633 95.934 178.421 95.8109 178.243C95.6878 178.064 95.5133 177.927 95.3106 177.85C94.7667 177.574 94.1655 177.43 93.5556 177.43C92.9458 177.43 92.3445 177.574 91.8006 177.85C91.5979 177.927 91.4234 178.064 91.3003 178.243C91.1772 178.421 91.1113 178.633 91.1113 178.85C91.1113 179.067 91.1772 179.279 91.3003 179.457C91.4234 179.636 91.5979 179.773 91.8006 179.85C92.3445 180.126 92.9458 180.27 93.5556 180.27C94.1655 180.27 94.7667 180.126 95.3106 179.85Z" fill="#263238"/>
<path d="M89.8006 189.45C89.9697 189.368 90.1123 189.24 90.2121 189.081C90.3118 188.922 90.3647 188.738 90.3647 188.55C90.3647 188.362 90.3118 188.178 90.2121 188.019C90.1123 187.86 89.9697 187.732 89.8006 187.65C89.3162 187.408 88.7821 187.282 88.2406 187.282C87.6991 187.282 87.165 187.408 86.6806 187.65C86.5116 187.732 86.369 187.86 86.2692 188.019C86.1694 188.178 86.1165 188.362 86.1165 188.55C86.1165 188.738 86.1694 188.922 86.2692 189.081C86.369 189.24 86.5116 189.368 86.6806 189.45C87.1637 189.697 87.6983 189.825 88.2406 189.825C88.783 189.825 89.3176 189.697 89.8006 189.45Z" fill="#263238"/>
<path d="M95.0706 186.48L112.511 176.41C113.511 175.86 113.511 174.99 112.611 174.47C112.086 174.217 111.509 174.092 110.927 174.104C110.345 174.116 109.774 174.266 109.261 174.54L91.8206 184.6C90.8706 185.16 90.8206 186.02 91.7206 186.54C92.2444 186.794 92.8207 186.921 93.4028 186.911C93.9849 186.901 94.5563 186.753 95.0706 186.48Z" fill="#263238"/>
<path d="M364.011 268.96C365.491 270.11 365.331 271.74 363.531 272.78L257.321 334.1C256.218 334.689 254.981 334.982 253.731 334.95V348C254.978 348.024 256.21 347.728 257.311 347.14L363.521 285.83C364.567 285.15 365.438 284.232 366.062 283.151C366.686 282.07 367.045 280.856 367.111 279.61V274.86C367.045 273.712 366.735 272.592 366.2 271.574C365.665 270.556 364.919 269.665 364.011 268.96Z" fill="#263238"/>
<path d="M84.1806 241.94C84.7097 242.272 85.1535 242.724 85.4765 243.259C85.7995 243.794 85.9927 244.397 86.0406 245.02C86.0628 245.23 86.0259 245.443 85.934 245.634C85.8422 245.825 85.699 245.986 85.5206 246.1C85.3006 246.23 84.4606 246.73 84.2206 246.86C84.0033 246.953 83.7657 246.987 83.5309 246.961C83.2961 246.935 83.0721 246.848 82.8806 246.71L58.7306 232.71C58.2034 232.376 57.7616 231.924 57.4403 231.389C57.1191 230.855 56.9274 230.252 56.8806 229.63C56.863 229.428 56.8969 229.225 56.9791 229.039C57.0613 228.854 57.1891 228.693 57.3506 228.57L58.6906 227.79C58.908 227.697 59.1456 227.662 59.3804 227.689C59.6151 227.715 59.8392 227.802 60.0306 227.94L84.1806 241.94Z" fill="#455A64"/>
<path d="M82.8806 242.67L58.7306 228.73C57.7306 228.14 56.8806 228.56 56.8806 229.67C56.9274 230.292 57.1191 230.895 57.4403 231.429C57.7616 231.964 58.2034 232.416 58.7306 232.75L82.8806 246.75C83.8806 247.34 84.7406 246.92 84.7406 245.81C84.7019 245.177 84.513 244.561 84.1896 244.015C83.8662 243.47 83.4175 243.008 82.8806 242.67Z" fill="#263238"/>
<path d="M51.8506 223.27C52.381 223.603 52.8256 224.057 53.1486 224.593C53.4717 225.13 53.6642 225.735 53.7106 226.36C53.7304 226.569 53.6936 226.78 53.6038 226.97C53.5141 227.16 53.3748 227.322 53.2006 227.44C52.9706 227.56 52.1306 228.07 51.9006 228.2C51.6825 228.291 51.4444 228.324 51.2096 228.296C50.9747 228.268 50.7512 228.18 50.5606 228.04L39.1706 221.47C38.6434 221.136 38.2016 220.684 37.8804 220.149C37.5591 219.615 37.3674 219.012 37.3206 218.39C37.298 218.187 37.3297 217.983 37.4122 217.796C37.4948 217.61 37.6254 217.449 37.7906 217.33C38.0106 217.18 38.8906 216.68 39.1306 216.55C39.3473 216.454 39.5855 216.418 39.8209 216.444C40.0563 216.47 40.2805 216.559 40.4706 216.7L51.8506 223.27Z" fill="#455A64"/>
<path d="M50.5606 224.02L39.1706 217.45C38.1706 216.86 37.3206 217.28 37.3206 218.39C37.3674 219.012 37.5591 219.615 37.8803 220.149C38.2016 220.684 38.6434 221.136 39.1706 221.47L50.5606 228.04C51.5606 228.63 52.4106 228.21 52.4106 227.1C52.3638 226.478 52.1721 225.875 51.8509 225.341C51.5297 224.806 51.0878 224.354 50.5606 224.02Z" fill="#263238"/>
<path d="M341.471 265.38L334.681 269.3L244.191 321.51C243.954 321.644 243.711 321.764 243.461 321.87C242.722 322.177 241.93 322.335 241.131 322.335C240.331 322.335 239.539 322.177 238.801 321.87C238.551 321.764 238.307 321.644 238.071 321.51L66.2606 222.32L57.9506 217.52C57.658 217.362 57.3942 217.156 57.1706 216.91C56.3106 215.97 56.5806 214.76 57.9506 213.96L155.191 157.83C156.305 157.095 157.628 156.743 158.961 156.83C159.281 156.87 159.594 156.954 159.891 157.08C160.057 157.142 160.218 157.219 160.371 157.31L341.471 261.87C341.77 262.054 342.018 262.312 342.19 262.62C342.362 262.927 342.452 263.273 342.452 263.625C342.452 263.977 342.362 264.323 342.19 264.63C342.018 264.938 341.77 265.196 341.471 265.38Z" fill="#ED6437"/>
<path opacity="0.8" d="M341.471 265.38L334.681 269.3L244.191 321.51C243.954 321.644 243.711 321.764 243.461 321.87C242.722 322.177 241.93 322.335 241.131 322.335C240.331 322.335 239.539 322.177 238.801 321.87C238.551 321.764 238.307 321.644 238.071 321.51L66.2606 222.32L57.9506 217.52C57.658 217.362 57.3942 217.156 57.1706 216.91C56.3106 215.97 56.5806 214.76 57.9506 213.96L155.191 157.83C156.305 157.095 157.628 156.743 158.961 156.83C159.281 156.87 159.594 156.954 159.891 157.08C160.057 157.142 160.218 157.219 160.371 157.31L341.471 261.87C341.77 262.054 342.018 262.312 342.19 262.62C342.362 262.927 342.452 263.273 342.452 263.625C342.452 263.977 342.362 264.323 342.19 264.63C342.018 264.938 341.77 265.196 341.471 265.38Z" fill="white"/>
<path d="M78.4806 210.18C78.4316 210.171 78.3844 210.154 78.3406 210.13L77.8706 209.85L76.7206 210.52C76.691 210.54 76.6562 210.55 76.6206 210.55C76.585 210.55 76.5502 210.54 76.5206 210.52L76.3506 210.43L76.2706 210.37C76.2687 210.347 76.2687 210.323 76.2706 210.3L75.7906 208.61C75.787 208.587 75.787 208.563 75.7906 208.54C75.8052 208.515 75.8258 208.495 75.8506 208.48L76.0106 208.39C76.0597 208.376 76.1115 208.376 76.1606 208.39C76.2136 208.396 76.2648 208.413 76.3106 208.44L77.9706 209.44L78.2306 209.3C78.2724 209.284 78.3188 209.284 78.3606 209.3C78.4142 209.303 78.466 209.32 78.5106 209.35L78.6206 209.41C78.6706 209.41 78.7006 209.47 78.7006 209.49C78.7006 209.51 78.7006 209.54 78.6306 209.57L78.3806 209.72L78.8606 209.99C78.8948 210.008 78.9227 210.036 78.9406 210.07C78.9406 210.07 78.9406 210.12 78.8606 210.15L78.6706 210.27C78.5999 210.259 78.5339 210.228 78.4806 210.18ZM77.4806 209.58L76.3006 208.89L76.6506 210.06L77.4806 209.58Z" fill="#455A64"/>
<path d="M79.5606 209.22C79.0525 209.19 78.5588 209.039 78.1206 208.78C77.6506 208.5 77.3906 208.23 77.3606 207.95C77.3306 207.67 77.5206 207.41 77.9206 207.17C78.0873 207.079 78.2612 207.002 78.4406 206.94C78.6133 206.886 78.7908 206.849 78.9706 206.83C78.9706 206.83 79.0306 206.83 79.0506 206.83C79.0706 206.83 79.0506 206.83 79.0506 206.83L79.1506 207.02H79.0806C78.8168 207.048 78.5616 207.13 78.3306 207.26C78.0606 207.42 77.9306 207.6 77.9506 207.8C77.9706 208 78.1706 208.19 78.5406 208.4C78.8426 208.592 79.1848 208.712 79.5406 208.75C79.8511 208.765 80.1597 208.693 80.4306 208.54L80.6906 208.36C80.7492 208.312 80.7998 208.254 80.8406 208.19L80.0606 207.74L79.5806 208.01C79.5357 208.028 79.4856 208.028 79.4406 208.01C79.3905 208.005 79.3424 207.988 79.3006 207.96L79.1906 207.9C79.1906 207.9 79.1106 207.84 79.1106 207.82C79.1106 207.8 79.1106 207.77 79.1806 207.74L79.9406 207.3C79.9932 207.287 80.048 207.287 80.1006 207.3C80.1622 207.302 80.2218 207.323 80.2706 207.36L81.3806 208C81.4124 208.012 81.4402 208.033 81.4606 208.06C81.4606 208.06 81.4606 208.06 81.4606 208.12C81.3307 208.415 81.0953 208.65 80.8006 208.78C80.4361 209.039 80.0068 209.191 79.5606 209.22Z" fill="#455A64"/>
<path d="M89.0706 203.52C89.4406 203.74 89.4406 204.08 89.0706 204.29C88.8657 204.399 88.6374 204.455 88.4056 204.455C88.1737 204.455 87.9454 204.399 87.7406 204.29C87.3706 204.08 87.3706 203.74 87.7406 203.52C87.9469 203.416 88.1746 203.362 88.4056 203.362C88.6365 203.362 88.8643 203.416 89.0706 203.52Z" fill="#455A64"/>
<path d="M86.6506 202.89C85.9806 203.28 85.7706 203.84 86.0306 204.33C86.0784 204.388 86.1405 204.432 86.2106 204.458C86.2808 204.485 86.3566 204.492 86.4306 204.48C86.6506 204.48 86.8106 204.33 86.7406 204.21C86.5506 203.86 86.7406 203.47 87.1706 203.21C87.7081 202.929 88.3258 202.841 88.9206 202.96C89.1406 202.96 89.3606 202.96 89.3906 202.78C89.3906 202.67 89.3006 202.58 89.1306 202.54C88.2878 202.388 87.4185 202.511 86.6506 202.89Z" fill="#455A64"/>
<path d="M85.5806 202.28C84.5806 202.85 84.2206 203.66 84.5106 204.41C84.5106 204.52 84.7206 204.59 84.9106 204.58C85.1306 204.58 85.2706 204.44 85.2206 204.32C84.9906 203.71 85.2806 203.05 86.0906 202.58C87.015 202.108 88.062 201.93 89.0906 202.07C89.3106 202.07 89.5206 202.07 89.5406 201.89C89.5406 201.78 89.4306 201.68 89.2406 201.66C87.9858 201.48 86.7061 201.697 85.5806 202.28Z" fill="#455A64"/>
<path d="M105.251 192.76C105.215 192.77 105.177 192.77 105.141 192.76C105.141 192.76 105.141 192.76 105.141 192.69L105.341 191.69C105.341 191.69 105.341 191.64 105.341 191.62L105.401 191.56L105.751 191.36C105.787 191.35 105.825 191.35 105.861 191.36C105.9 191.348 105.941 191.348 105.981 191.36L108.841 193.01C108.846 193.019 108.849 193.03 108.849 193.04C108.849 193.051 108.846 193.061 108.841 193.07C108.847 193.081 108.85 193.093 108.85 193.105C108.85 193.117 108.847 193.129 108.841 193.14L108.481 193.35C108.441 193.36 108.4 193.36 108.361 193.35C108.321 193.362 108.28 193.362 108.241 193.35L106.061 192.09L105.941 192.67C105.941 192.67 105.941 192.67 105.881 192.73C105.838 192.741 105.793 192.741 105.751 192.73L105.251 192.76Z" fill="#455A64"/>
<path d="M107.491 191.47C107.451 191.482 107.41 191.482 107.371 191.47C107.366 191.459 107.364 191.447 107.364 191.435C107.364 191.423 107.366 191.411 107.371 191.4L107.581 190.4C107.576 190.377 107.576 190.353 107.581 190.33L107.631 190.27L107.981 190.07C108.02 190.058 108.061 190.058 108.101 190.07C108.14 190.06 108.181 190.06 108.221 190.07L111.071 191.72C111.071 191.72 111.071 191.72 111.071 191.79C111.075 191.799 111.077 191.81 111.077 191.82C111.077 191.83 111.075 191.841 111.071 191.85L110.711 192.06C110.671 192.072 110.63 192.072 110.591 192.06H110.471L108.291 190.8L108.161 191.45C108.145 191.477 108.12 191.499 108.091 191.51C108.051 191.521 108.01 191.521 107.971 191.51L107.491 191.47Z" fill="#455A64"/>
<path d="M110.291 189.67C110.33 189.661 110.371 189.661 110.411 189.67C110.45 189.658 110.491 189.658 110.531 189.67L110.971 189.92C110.976 189.929 110.979 189.94 110.979 189.95C110.979 189.961 110.976 189.971 110.971 189.98C110.976 189.991 110.979 190.003 110.979 190.015C110.979 190.027 110.976 190.039 110.971 190.05L110.561 190.29H110.441C110.401 190.302 110.36 190.302 110.321 190.29L109.881 190.04C109.875 190.029 109.872 190.017 109.872 190.005C109.872 189.993 109.875 189.981 109.881 189.97C109.876 189.959 109.873 189.947 109.873 189.935C109.873 189.923 109.876 189.911 109.881 189.9L110.291 189.67ZM111.841 190.56C111.878 190.541 111.919 190.531 111.961 190.531C112.002 190.531 112.044 190.541 112.081 190.56L112.511 190.81C112.511 190.81 112.561 190.81 112.561 190.88C112.558 190.895 112.552 190.909 112.543 190.921C112.535 190.933 112.524 190.943 112.511 190.95L112.101 191.18C112.064 191.2 112.023 191.211 111.981 191.211C111.939 191.211 111.897 191.2 111.861 191.18L111.431 190.93C111.431 190.93 111.381 190.93 111.381 190.86C111.382 190.846 111.388 190.833 111.396 190.823C111.405 190.812 111.417 190.804 111.431 190.8L111.841 190.56Z" fill="#455A64"/>
<path d="M114.871 189.67C114.834 189.689 114.792 189.7 114.751 189.7C114.709 189.7 114.668 189.689 114.631 189.67L114.101 189.37L112.731 190.16H112.611C112.571 190.171 112.53 190.171 112.491 190.16L112.181 189.98C112.131 189.98 112.111 189.93 112.101 189.9C112.091 189.868 112.091 189.833 112.101 189.8L111.761 188.05C111.752 188.018 111.754 187.984 111.766 187.953C111.779 187.922 111.802 187.897 111.831 187.88L112.171 187.68H112.291H112.401L114.171 188.68L114.551 188.46H114.671H114.791L115.101 188.65C115.114 188.654 115.126 188.662 115.135 188.673C115.144 188.683 115.149 188.696 115.151 188.71C115.151 188.71 115.151 188.76 115.101 188.78L114.721 189L115.261 189.31C115.261 189.31 115.311 189.31 115.261 189.38C115.266 189.391 115.269 189.403 115.269 189.415C115.269 189.427 115.266 189.439 115.261 189.45L114.871 189.67ZM113.541 189.05L112.601 188.5L112.791 189.5L113.541 189.05Z" fill="#455A64"/>
<path d="M113.671 186.89C113.662 186.868 113.662 186.843 113.671 186.82C113.671 186.82 113.671 186.82 113.671 186.75L115.331 185.75C115.367 185.73 115.409 185.719 115.451 185.719C115.493 185.719 115.534 185.73 115.571 185.75L115.881 185.93C115.881 185.93 115.931 185.93 115.931 186C115.931 186.07 115.931 186.05 115.881 186.07L114.641 186.78L115.161 187.14C115.21 187.074 115.271 187.016 115.341 186.97L115.521 186.85C115.688 186.756 115.866 186.683 116.051 186.63C116.232 186.572 116.42 186.538 116.611 186.53C116.796 186.505 116.985 186.505 117.171 186.53C117.356 186.571 117.534 186.639 117.701 186.73C117.858 186.807 117.993 186.925 118.091 187.07C118.159 187.165 118.188 187.284 118.171 187.4C118.153 187.524 118.093 187.637 118.001 187.72C117.879 187.835 117.745 187.936 117.601 188.02C117.413 188.126 117.215 188.213 117.011 188.28C116.831 188.331 116.647 188.365 116.461 188.38C116.294 188.396 116.127 188.396 115.961 188.38C115.818 188.352 115.68 188.305 115.551 188.24C115.551 188.24 115.501 188.24 115.501 188.17C115.501 188.1 115.501 188.12 115.551 188.1L115.911 187.89H116.021H116.141C116.222 187.915 116.306 187.932 116.391 187.94H116.631L116.851 187.87L117.051 187.77C117.221 187.67 117.311 187.57 117.321 187.45C117.331 187.33 117.261 187.24 117.101 187.15C116.955 187.068 116.787 187.033 116.621 187.05C116.428 187.054 116.239 187.105 116.071 187.2C116.004 187.238 115.94 187.282 115.881 187.33C115.85 187.36 115.823 187.394 115.801 187.43C115.806 187.457 115.806 187.484 115.801 187.51C115.781 187.541 115.753 187.565 115.721 187.58L115.311 187.82H115.191H115.081L113.671 186.89Z" fill="#455A64"/>
<path d="M66.1406 217.71L65.2206 217.18L66.4406 216.47L67.3606 217L66.1406 217.71Z" fill="#455A64"/>
<path d="M67.9806 216.65L66.1406 215.59L67.3606 214.88L69.2006 215.94L67.9806 216.65Z" fill="#455A64"/>
<path d="M69.8206 215.59L67.0606 213.99L68.2806 213.29L71.0506 214.88L69.8206 215.59Z" fill="#455A64"/>
<path d="M71.6606 214.53L67.9806 212.4L69.2106 211.69L72.8806 213.82L71.6606 214.53Z" fill="#455A64"/>
<path d="M154.841 163.05C154.595 163.021 154.346 163.059 154.121 163.16L149.531 165.8C149.231 165.97 149.311 166.29 149.701 166.52L151.381 167.52C151.63 167.657 151.907 167.739 152.191 167.76C152.31 167.775 152.431 167.775 152.551 167.76C152.676 167.75 152.798 167.716 152.911 167.66L157.501 165.02C157.791 164.84 157.721 164.53 157.321 164.3L155.651 163.3C155.402 163.16 155.125 163.074 154.841 163.05ZM152.141 167.55C152.019 167.537 151.903 167.496 151.801 167.43L150.121 166.43C149.831 166.26 149.771 166.01 149.991 165.88L154.581 163.24C154.64 163.208 154.704 163.188 154.771 163.18H154.881C155.005 163.192 155.125 163.233 155.231 163.3L156.901 164.3C157.191 164.47 157.251 164.72 157.041 164.84L152.451 167.49C152.354 167.536 152.247 167.556 152.141 167.55Z" fill="#455A64"/>
<path d="M151.151 165.59L153.151 166.73L152.431 167.15C152.349 167.174 152.262 167.174 152.181 167.15L150.711 166.3C150.501 166.18 150.451 165.99 150.611 165.89L151.151 165.59Z" fill="#455A64"/>
<path d="M151.491 165.4L152.351 164.9L154.331 166.04L153.461 166.54L151.491 165.4Z" fill="#455A64"/>
<path d="M152.691 164.71L153.541 164.21L155.531 165.36L154.671 165.86L152.691 164.71Z" fill="#455A64"/>
<path d="M154.871 163.6L156.301 164.43C156.561 164.58 156.511 164.8 156.151 165L155.861 165.17L153.861 164.02L154.551 163.63C154.599 163.604 154.653 163.588 154.708 163.582C154.763 163.577 154.818 163.583 154.871 163.6Z" fill="#455A64"/>
<path d="M155.831 163.19C156.133 163.159 156.435 163.241 156.681 163.42L156.991 163.6C157.331 163.8 157.521 164.02 157.391 164.1L157.181 164.24L155.601 163.33L155.831 163.19Z" fill="#455A64"/>
<path d="M143.151 170.77L146.711 167.68L148.591 170.35L146.131 169.68L143.151 170.77Z" fill="#455A64"/>
<path d="M218.941 300.72V301.6C218.981 302.36 219.2 303.099 219.581 303.758C219.961 304.417 220.492 304.976 221.131 305.39L238.291 315.29C238.969 315.635 239.72 315.815 240.481 315.815C241.242 315.815 241.992 315.635 242.671 315.29L327.241 266.44C327.879 266.023 328.409 265.462 328.79 264.802C329.17 264.141 329.39 263.401 329.431 262.64V261.77C329.39 261.009 329.17 260.268 328.79 259.608C328.409 258.948 327.879 258.387 327.241 257.97L310.081 248.07C309.402 247.725 308.652 247.545 307.891 247.545C307.13 247.545 306.379 247.725 305.701 248.07L221.131 296.93C220.494 297.346 219.964 297.905 219.584 298.564C219.203 299.222 218.983 299.961 218.941 300.72Z" fill="#ED6437"/>
<path d="M218.941 300.72V301.6C218.981 302.36 219.2 303.099 219.581 303.758C219.961 304.417 220.492 304.976 221.131 305.39L238.291 315.29C238.969 315.635 239.72 315.815 240.481 315.815C241.242 315.815 241.992 315.635 242.671 315.29L327.241 266.44C327.879 266.023 328.409 265.462 328.79 264.802C329.17 264.141 329.39 263.401 329.431 262.64V261.77C329.39 261.009 329.17 260.268 328.79 259.608C328.409 258.948 327.879 258.387 327.241 257.97L310.081 248.07C309.402 247.725 308.652 247.545 307.891 247.545C307.13 247.545 306.379 247.725 305.701 248.07L221.131 296.93C220.494 297.346 219.964 297.905 219.584 298.564C219.203 299.222 218.983 299.961 218.941 300.72Z" fill="#ED6437"/>
<path opacity="0.15" d="M327.491 258.17C328.401 258.86 328.301 259.87 327.201 260.5L242.631 309.36C241.956 309.715 241.203 309.897 240.441 309.89V315.81C241.207 315.829 241.965 315.65 242.641 315.29L327.201 266.44C327.837 266.021 328.366 265.46 328.747 264.8C329.127 264.14 329.347 263.4 329.391 262.64V261.77C329.352 261.068 329.163 260.383 328.835 259.762C328.507 259.14 328.048 258.597 327.491 258.17Z" fill="black"/>
<path opacity="0.3" d="M220.761 297.16C220.217 297.588 219.77 298.127 219.449 298.741C219.128 299.354 218.942 300.029 218.901 300.72V301.6C218.941 302.361 219.161 303.101 219.544 303.76C219.926 304.419 220.46 304.978 221.101 305.39L238.251 315.29C238.923 315.651 239.678 315.83 240.441 315.81V309.89C239.678 309.898 238.925 309.716 238.251 309.36L221.091 299.46C220.001 298.84 219.941 297.86 220.761 297.16Z" fill="black"/>
<path d="M246.151 290.92C246.284 290.842 246.436 290.801 246.591 290.8C246.722 290.804 246.853 290.821 246.981 290.85L255.981 293.37L256.181 293.44C256.207 293.453 256.229 293.473 256.245 293.497C256.261 293.522 256.27 293.551 256.271 293.58C256.271 293.58 256.271 293.67 256.181 293.71L254.841 294.48C254.723 294.554 254.589 294.595 254.451 294.6C254.355 294.618 254.257 294.618 254.161 294.6L252.981 294.26L250.161 295.89L250.751 296.57C250.792 296.617 250.813 296.678 250.811 296.74C250.811 296.81 250.741 296.88 250.601 296.96L249.261 297.73C249.192 297.772 249.112 297.793 249.031 297.79C248.947 297.793 248.863 297.772 248.791 297.73C248.744 297.705 248.706 297.666 248.681 297.62L244.301 292.42C244.252 292.357 244.224 292.28 244.221 292.2C244.221 292.11 244.291 292.03 244.431 291.95L246.151 290.92ZM249.071 294.59L250.791 293.59L247.381 292.59L249.071 294.59Z" fill="white"/>
<path d="M252.941 287C253.431 286.718 253.955 286.5 254.501 286.35C255.04 286.208 255.593 286.124 256.151 286.1C256.698 286.079 257.246 286.129 257.781 286.25C258.295 286.358 258.792 286.533 259.261 286.77L259.671 287L260.031 287.21L260.381 287.41L260.761 287.64C261.128 287.857 261.445 288.15 261.691 288.5C261.874 288.771 261.965 289.093 261.951 289.42C261.908 289.771 261.761 290.102 261.531 290.37C261.218 290.732 260.842 291.034 260.421 291.26L257.561 292.91C257.473 292.961 257.372 292.985 257.271 292.98C257.172 292.985 257.075 292.961 256.991 292.91L250.131 288.96C250.051 288.91 250.011 288.86 250.011 288.79C250.013 288.754 250.025 288.72 250.046 288.692C250.068 288.663 250.097 288.642 250.131 288.63L252.941 287ZM257.251 287.88C256.836 287.663 256.371 287.56 255.903 287.583C255.435 287.606 254.982 287.753 254.591 288.01L253.511 288.64L257.511 290.97L258.641 290.31C259.531 289.8 259.591 289.31 258.811 288.8L258.401 288.55L258.021 288.33L257.651 288.12L257.251 287.88Z" fill="white"/>
<path d="M260.611 282.57C261.101 282.288 261.625 282.07 262.171 281.92C262.713 281.777 263.27 281.694 263.831 281.67C264.375 281.654 264.919 281.705 265.451 281.82C265.965 281.925 266.463 282.1 266.931 282.34L267.351 282.57L267.701 282.78L268.051 282.98L268.441 283.21C268.803 283.43 269.117 283.723 269.361 284.07C269.548 284.339 269.64 284.663 269.621 284.99C269.587 285.342 269.443 285.674 269.211 285.94C268.897 286.301 268.521 286.602 268.101 286.83L265.231 288.48C265.146 288.53 265.049 288.554 264.951 288.55C264.849 288.556 264.748 288.531 264.661 288.48L257.801 284.53C257.768 284.514 257.74 284.49 257.719 284.46C257.698 284.43 257.685 284.396 257.681 284.36C257.684 284.325 257.697 284.291 257.718 284.263C257.739 284.235 257.768 284.213 257.801 284.2L260.611 282.57ZM264.921 283.45C264.506 283.233 264.041 283.131 263.573 283.153C263.105 283.176 262.652 283.324 262.261 283.58L261.181 284.21L265.181 286.54L266.321 285.88C267.211 285.37 267.261 284.88 266.491 284.37L266.081 284.12C265.951 284.05 265.821 283.98 265.701 283.9L265.321 283.69L264.921 283.45Z" fill="white"/>
<path d="M272.641 275.67C272.725 275.62 272.823 275.596 272.921 275.6C273.022 275.594 273.123 275.619 273.211 275.67L274.341 276.32C274.372 276.333 274.4 276.355 274.419 276.384C274.439 276.412 274.45 276.445 274.451 276.48C274.45 276.516 274.44 276.551 274.42 276.581C274.401 276.611 274.373 276.635 274.341 276.65L272.471 277.67L277.911 280.81C277.991 280.81 278.031 280.91 278.031 280.98C278.028 281.015 278.015 281.049 277.993 281.077C277.972 281.105 277.944 281.127 277.911 281.14L276.521 281.94C276.436 281.991 276.339 282.015 276.241 282.01C276.139 282.015 276.038 281.991 275.951 281.94L270.511 278.8L268.641 279.88C268.551 279.925 268.451 279.949 268.351 279.95C268.253 279.951 268.157 279.926 268.071 279.88L266.941 279.23C266.861 279.18 266.821 279.13 266.821 279.06C266.824 279.025 266.837 278.991 266.858 278.963C266.879 278.935 266.908 278.913 266.941 278.9L272.641 275.67Z" fill="white"/>
<path d="M276.281 276.73C275.944 276.523 275.652 276.251 275.421 275.93C275.23 275.67 275.134 275.352 275.151 275.03C275.193 274.68 275.335 274.351 275.561 274.08C275.887 273.706 276.276 273.391 276.711 273.15C277.217 272.861 277.758 272.64 278.321 272.49C278.856 272.348 279.407 272.267 279.961 272.25C280.485 272.237 281.01 272.291 281.521 272.41C282 272.514 282.463 272.679 282.901 272.9L283.901 273.44L284.811 273.99C285.147 274.197 285.439 274.469 285.671 274.79C285.862 275.05 285.957 275.368 285.941 275.69C285.92 276.06 285.776 276.412 285.531 276.69C285.209 277.067 284.819 277.379 284.381 277.61C283.877 277.907 283.335 278.136 282.771 278.29C282.235 278.43 281.684 278.507 281.131 278.52C280.606 278.533 280.082 278.479 279.571 278.36C279.092 278.254 278.629 278.09 278.191 277.87C277.881 277.71 277.571 277.53 277.191 277.34L276.281 276.73ZM282.771 275.1L282.371 274.84L281.911 274.56L281.421 274.29L280.991 274.07C280.801 273.972 280.599 273.898 280.391 273.85C280.181 273.798 279.966 273.771 279.751 273.77C279.524 273.771 279.299 273.801 279.081 273.86C278.847 273.922 278.622 274.013 278.411 274.13C278.229 274.226 278.069 274.359 277.941 274.52C277.848 274.63 277.796 274.767 277.791 274.91C277.793 275.044 277.838 275.174 277.921 275.28C278.026 275.415 278.155 275.53 278.301 275.62C278.422 275.711 278.549 275.795 278.681 275.87C278.831 275.96 278.981 276.06 279.151 276.15L279.631 276.42C279.777 276.504 279.927 276.581 280.081 276.65C280.47 276.842 280.897 276.944 281.331 276.95C281.8 276.956 282.262 276.828 282.661 276.58C283.101 276.33 283.301 276.08 283.281 275.82C283.256 275.669 283.198 275.526 283.109 275.401C283.021 275.276 282.905 275.173 282.771 275.1Z" fill="white"/>
<path d="M288.151 269.93L288.521 270.16L289.021 270.45L289.531 270.75L289.941 270.96C290.118 271.052 290.306 271.123 290.501 271.17C290.706 271.229 290.917 271.263 291.131 271.27C291.356 271.268 291.581 271.241 291.801 271.19C292.051 271.131 292.29 271.033 292.511 270.9C292.7 270.802 292.869 270.67 293.011 270.51C293.095 270.412 293.157 270.295 293.191 270.17C293.221 270.076 293.221 269.974 293.191 269.88C293.148 269.796 293.095 269.719 293.031 269.65C292.977 269.589 292.936 269.518 292.911 269.44C292.911 269.44 292.971 269.33 293.091 269.26L294.481 268.46C294.553 268.427 294.631 268.41 294.711 268.41C294.79 268.41 294.869 268.427 294.941 268.46C295.258 268.631 295.521 268.887 295.701 269.2C295.847 269.469 295.893 269.781 295.831 270.08C295.745 270.425 295.576 270.744 295.341 271.01C295.027 271.362 294.655 271.656 294.241 271.88C293.742 272.167 293.207 272.386 292.651 272.53C292.116 272.678 291.565 272.758 291.011 272.77C290.483 272.784 289.955 272.73 289.441 272.61C288.963 272.512 288.502 272.347 288.071 272.12C287.761 271.97 287.451 271.79 287.071 271.6C286.691 271.41 286.431 271.22 286.141 271.03C285.802 270.834 285.508 270.569 285.281 270.25C285.098 269.983 285.007 269.664 285.021 269.34C285.054 268.99 285.194 268.659 285.421 268.39C285.738 268.013 286.125 267.701 286.561 267.47C287.035 267.197 287.543 266.986 288.071 266.84C288.593 266.691 289.129 266.594 289.671 266.55C290.182 266.516 290.696 266.543 291.201 266.63C291.649 266.699 292.082 266.844 292.481 267.06C292.508 267.072 292.532 267.092 292.55 267.116C292.567 267.141 292.578 267.17 292.581 267.2C292.58 267.23 292.57 267.258 292.552 267.281C292.534 267.305 292.509 267.322 292.481 267.33L291.091 268.14C290.998 268.2 290.891 268.235 290.781 268.24C290.662 268.226 290.545 268.202 290.431 268.17C290.3 268.127 290.167 268.097 290.031 268.08C289.865 268.059 289.697 268.059 289.531 268.08C289.331 268.096 289.134 268.13 288.941 268.18C288.702 268.252 288.474 268.352 288.261 268.48C288.065 268.578 287.895 268.718 287.761 268.89C287.673 268.998 287.623 269.131 287.621 269.27C287.633 269.407 287.689 269.537 287.781 269.64C287.894 269.749 288.018 269.846 288.151 269.93Z" fill="white"/>
<path d="M294.871 262.79C295.004 262.712 295.156 262.671 295.311 262.67C295.442 262.674 295.573 262.691 295.701 262.72L304.701 265.24L304.901 265.31C304.971 265.31 305.001 265.39 305.001 265.45C305.001 265.51 305.001 265.54 304.901 265.58L303.571 266.35C303.449 266.422 303.312 266.463 303.171 266.47C303.078 266.483 302.984 266.483 302.891 266.47L301.711 266.13L298.881 267.76L299.471 268.44C299.512 268.487 299.534 268.548 299.531 268.61C299.531 268.68 299.461 268.75 299.321 268.83L297.981 269.61C297.909 269.643 297.83 269.66 297.751 269.66C297.671 269.66 297.593 269.643 297.521 269.61C297.471 269.581 297.43 269.539 297.401 269.49L293.031 264.29C292.978 264.229 292.95 264.151 292.951 264.07C292.951 263.98 293.011 263.9 293.151 263.81L294.871 262.79ZM297.791 266.46L299.511 265.46L296.101 264.46L297.791 266.46Z" fill="white"/>
<path d="M301.731 258.83C302.176 258.575 302.645 258.364 303.131 258.2C303.577 258.048 304.041 257.951 304.511 257.91C304.966 257.878 305.424 257.912 305.871 258.01C306.321 258.11 306.752 258.279 307.151 258.51C307.587 258.722 307.939 259.074 308.151 259.51C308.22 259.673 308.244 259.852 308.221 260.028C308.198 260.203 308.129 260.37 308.021 260.51L311.861 261.21C311.914 261.216 311.965 261.233 312.011 261.26C312.081 261.26 312.111 261.34 312.111 261.4C312.111 261.46 312.111 261.49 312.011 261.53L310.571 262.36C310.454 262.442 310.314 262.484 310.171 262.48H309.841L306.391 261.85L305.391 262.41L307.661 263.72C307.741 263.72 307.781 263.82 307.781 263.89C307.778 263.925 307.765 263.959 307.743 263.987C307.722 264.015 307.694 264.037 307.661 264.05L306.271 264.85C306.186 264.9 306.089 264.924 305.991 264.92C305.889 264.926 305.788 264.901 305.701 264.85L298.841 260.9C298.808 260.885 298.781 260.861 298.761 260.831C298.742 260.801 298.731 260.766 298.731 260.73C298.732 260.695 298.743 260.66 298.763 260.63C298.782 260.6 298.809 260.576 298.841 260.56L301.731 258.83ZM303.731 261.38L304.941 260.67C305.178 260.557 305.376 260.376 305.511 260.15C305.591 259.97 305.511 259.79 305.191 259.62C304.918 259.455 304.596 259.392 304.281 259.44C303.959 259.486 303.65 259.595 303.371 259.76L302.171 260.46L303.731 261.38Z" fill="white"/>
<path d="M311.331 253.29C311.421 253.244 311.52 253.22 311.621 253.22C311.721 253.22 311.821 253.244 311.911 253.29L313.031 253.94C313.064 253.953 313.092 253.975 313.113 254.003C313.135 254.031 313.147 254.065 313.151 254.1C313.151 254.17 313.151 254.22 313.031 254.27L311.161 255.35L316.611 258.49C316.643 258.505 316.671 258.529 316.69 258.559C316.71 258.589 316.72 258.624 316.721 258.66C316.72 258.694 316.709 258.728 316.689 258.756C316.67 258.784 316.642 258.807 316.611 258.82L315.221 259.63C315.129 259.67 315.03 259.69 314.931 259.69C314.831 259.69 314.732 259.67 314.641 259.63L309.201 256.48L307.331 257.56C307.244 257.605 307.148 257.629 307.051 257.63C306.95 257.631 306.85 257.607 306.761 257.56L305.631 256.91C305.599 256.893 305.573 256.869 305.554 256.839C305.535 256.809 305.523 256.775 305.521 256.74C305.523 256.706 305.534 256.673 305.554 256.645C305.573 256.617 305.6 256.594 305.631 256.58L311.331 253.29Z" fill="white"/>
<path d="M232.941 296.67C230.251 298.22 230.251 300.73 232.941 302.27C234.445 303.034 236.108 303.432 237.796 303.432C239.483 303.432 241.146 303.034 242.651 302.27C245.331 300.73 245.331 298.22 242.651 296.67C241.146 295.906 239.483 295.508 237.796 295.508C236.108 295.508 234.445 295.906 232.941 296.67ZM240.941 298.5L239.141 299.5L240.941 300.5C241.015 300.522 241.08 300.568 241.126 300.63C241.173 300.692 241.198 300.767 241.198 300.845C241.198 300.923 241.173 300.998 241.126 301.06C241.08 301.122 241.015 301.168 240.941 301.19C240.756 301.284 240.552 301.333 240.346 301.333C240.139 301.333 239.935 301.284 239.751 301.19L237.941 300.19L236.141 301.19C235.956 301.284 235.753 301.333 235.546 301.333C235.339 301.333 235.135 301.284 234.951 301.19C234.876 301.168 234.811 301.122 234.765 301.06C234.719 300.998 234.693 300.923 234.693 300.845C234.693 300.767 234.719 300.692 234.765 300.63C234.811 300.568 234.876 300.522 234.951 300.5L236.751 299.5L234.951 298.5C234.876 298.478 234.811 298.432 234.765 298.37C234.719 298.308 234.693 298.232 234.693 298.155C234.693 298.077 234.719 298.002 234.765 297.94C234.811 297.878 234.876 297.832 234.951 297.81C235.135 297.716 235.339 297.667 235.546 297.667C235.753 297.667 235.956 297.716 236.141 297.81L237.941 298.81L239.751 297.81C239.935 297.716 240.139 297.667 240.346 297.667C240.552 297.667 240.756 297.716 240.941 297.81C241.036 297.821 241.123 297.869 241.183 297.944C241.243 298.019 241.271 298.115 241.261 298.21C241.25 298.305 241.202 298.393 241.127 298.453C241.052 298.513 240.956 298.541 240.861 298.53L240.941 298.5Z" fill="white"/>
<path d="M251.141 231.3C251.03 228.963 250.369 226.685 249.212 224.652C248.054 222.619 246.433 220.888 244.481 219.6C242.541 218.46 240.791 218.41 239.551 219.22L235.001 221.78L244.551 238.25L249.061 235.69C250.321 235 251.121 233.49 251.141 231.3Z" fill="#37474F"/>
<path d="M239.751 222.28C241.701 223.571 243.319 225.303 244.476 227.335C245.633 229.368 246.296 231.644 246.411 233.98C246.411 238.28 243.351 239.98 239.651 237.83C237.701 236.539 236.082 234.807 234.925 232.774C233.768 230.742 233.105 228.466 232.991 226.13C233.021 221.83 236.051 220.11 239.751 222.28Z" fill="#455A64"/>
<path d="M237.431 228.73C237.431 227.05 238.431 226.28 239.721 227.02C240.413 227.52 240.977 228.176 241.368 228.936C241.759 229.695 241.966 230.536 241.971 231.39C241.971 233.07 240.971 233.83 239.681 233.1C238.991 232.597 238.429 231.94 238.038 231.181C237.648 230.423 237.439 229.583 237.431 228.73Z" fill="#263238"/>
<path opacity="0.15" d="M246.411 233.98C246.388 232.436 246.076 230.909 245.491 229.48L233.941 222.77C233.289 223.766 232.96 224.94 233.001 226.13C233.001 226.18 233.001 226.23 233.001 226.29L246.401 234.07C246.401 234.07 246.411 234.01 246.411 233.98Z" fill="black"/>
<path d="M203.261 267.89C200.817 268.076 198.367 267.635 196.141 266.61L133.141 230.3C129.331 228.38 125.051 223.4 124.781 218.68L122.851 173.77L126.361 173.57L128.301 218.49C128.481 221.69 131.831 225.71 134.711 227.15L197.761 263.47C199.455 264.177 201.288 264.489 203.121 264.384C204.954 264.278 206.739 263.757 208.341 262.86L250.341 238.64C251.341 237.98 251.931 237.19 251.891 236.52C251.851 235.85 251.221 235.19 250.151 234.65L182.661 195.47C178.861 193.56 174.601 188.57 174.331 183.85L173.391 158.94L176.901 158.75L177.841 183.65C178.021 186.87 181.371 190.88 184.241 192.32L251.731 231.51C253.981 232.64 255.281 234.35 255.401 236.32C255.521 238.29 254.401 240.2 252.271 241.58L210.271 265.8C208.15 267.081 205.737 267.801 203.261 267.89Z" fill="#455A64"/>
<path d="M191.941 266.88C191.83 264.543 191.169 262.266 190.012 260.232C188.854 258.199 187.233 256.468 185.281 255.18C183.341 254.04 181.591 253.98 180.361 254.8L175.801 257.36L185.351 273.83L189.861 271.27C191.101 270.58 191.941 269.07 191.941 266.88Z" fill="#37474F"/>
<path d="M180.531 257.86C182.485 259.149 184.106 260.882 185.264 262.917C186.421 264.952 187.081 267.231 187.191 269.57C187.191 273.86 184.141 275.57 180.431 273.41C178.481 272.119 176.863 270.387 175.707 268.355C174.552 266.322 173.892 264.045 173.781 261.71C173.811 257.42 176.831 255.67 180.531 257.86Z" fill="#455A64"/>
<path d="M178.211 264.31C178.211 262.63 179.211 261.86 180.501 262.6C181.194 263.099 181.759 263.755 182.151 264.515C182.542 265.274 182.747 266.116 182.751 266.97C182.751 268.64 181.751 269.41 180.471 268.67C179.778 268.171 179.213 267.517 178.821 266.759C178.428 266.002 178.219 265.163 178.211 264.31Z" fill="#263238"/>
<path d="M145.361 240.03C145.255 237.694 144.599 235.416 143.447 233.381C142.295 231.347 140.679 229.612 138.731 228.32C136.781 227.18 135.041 227.12 133.801 227.93L129.241 230.48L138.761 246.97L143.281 244.41C144.541 243.73 145.341 242.22 145.361 240.03Z" fill="#37474F"/>
<path d="M133.991 231C135.935 232.289 137.548 234.016 138.702 236.043C139.855 238.071 140.516 240.34 140.631 242.67C140.631 246.96 137.561 248.67 133.861 246.5C131.912 245.207 130.296 243.473 129.144 241.438C127.992 239.404 127.336 237.126 127.231 234.79C127.261 230.53 130.291 228.82 133.991 231Z" fill="#455A64"/>
<path d="M131.661 237.43C131.661 235.76 132.661 234.99 133.951 235.73C134.642 236.231 135.205 236.888 135.596 237.647C135.987 238.406 136.194 239.246 136.201 240.1C136.201 241.78 135.201 242.54 133.901 241.81C133.212 241.304 132.651 240.645 132.263 239.885C131.874 239.125 131.668 238.284 131.661 237.43Z" fill="#263238"/>
<path d="M115.321 119.35C114.724 117.063 114.833 114.648 115.635 112.424C116.436 110.2 117.892 108.271 119.811 106.89L161.721 83.1999C165.531 80.6999 169.721 82.4399 171.041 86.7899L173.951 96.2199L171.071 97.8999L167.941 88.3699C167.813 87.8603 167.561 87.3904 167.207 87.0023C166.853 86.6143 166.408 86.3203 165.912 86.1467C165.417 85.9732 164.886 85.9256 164.367 86.0082C163.848 86.0908 163.358 86.301 162.941 86.6199L122.131 109.67C120.908 110.566 119.978 111.804 119.457 113.227C118.935 114.65 118.846 116.196 119.201 117.67L121.661 126.72L118.231 128.72L115.321 119.35Z" fill="#455A64"/>
<path d="M180.121 164.79L123.821 197.3L206.101 244.8L262.401 212.29L180.121 164.79Z" fill="#ED6437"/>
<path opacity="0.35" d="M180.121 164.79L123.821 197.3L206.101 244.8L262.401 212.29L180.121 164.79Z" fill="black"/>
<path d="M118.231 128.78L173.951 96.23L180.121 164.79L123.821 197.3L118.231 128.78Z" fill="#ED6437"/>
<path opacity="0.2" d="M118.231 128.78L173.951 96.23L180.121 164.79L123.821 197.3L118.231 128.78Z" fill="black"/>
<path d="M173.941 96.23L180.111 164.79L262.391 212.29L275.391 154.78L173.941 96.23ZM202.711 162.15C201.522 162.518 200.237 162.404 199.133 161.831C198.028 161.258 197.194 160.273 196.811 159.09L183.211 123.8C182.911 123.244 182.734 122.63 182.691 122C182.648 121.369 182.74 120.737 182.961 120.146C183.182 119.554 183.526 119.016 183.971 118.568C184.417 118.12 184.952 117.772 185.543 117.547C186.133 117.323 186.765 117.227 187.395 117.266C188.026 117.305 188.64 117.478 189.199 117.773C189.757 118.069 190.246 118.48 190.632 118.98C191.019 119.479 191.294 120.055 191.441 120.67L205.041 155.96C205.541 157.09 205.579 158.371 205.145 159.529C204.711 160.686 203.841 161.627 202.721 162.15H202.711ZM228.401 174.23C227.214 174.604 225.927 174.493 224.822 173.922C223.716 173.35 222.882 172.365 222.501 171.18L208.941 135.89C208.642 135.335 208.465 134.723 208.421 134.095C208.377 133.466 208.468 132.836 208.687 132.245C208.905 131.654 209.247 131.116 209.69 130.668C210.132 130.219 210.665 129.87 211.253 129.643C211.841 129.417 212.47 129.318 213.099 129.353C213.728 129.388 214.342 129.557 214.901 129.848C215.46 130.139 215.951 130.546 216.34 131.041C216.73 131.536 217.009 132.108 217.161 132.72L230.761 168.01C231.272 169.147 231.311 170.44 230.871 171.605C230.43 172.771 229.546 173.715 228.411 174.23H228.401ZM254.091 186.32C252.91 186.696 251.629 186.593 250.525 186.031C249.42 185.47 248.582 184.495 248.191 183.32L234.601 148.03C234.31 147.477 234.139 146.869 234.1 146.245C234.061 145.621 234.154 144.996 234.374 144.411C234.593 143.826 234.934 143.294 235.374 142.85C235.814 142.406 236.343 142.06 236.926 141.835C237.509 141.61 238.133 141.511 238.757 141.544C239.381 141.577 239.991 141.742 240.547 142.028C241.102 142.313 241.591 142.714 241.982 143.202C242.372 143.69 242.654 144.255 242.811 144.86L256.411 180.15C256.909 181.276 256.946 182.553 256.514 183.706C256.082 184.859 255.216 185.798 254.101 186.32H254.091Z" fill="#ED6437"/>
<path opacity="0.08" d="M173.941 96.23L180.111 164.79L262.391 212.29L275.391 154.78L173.941 96.23ZM202.711 162.15C201.522 162.518 200.237 162.404 199.133 161.831C198.028 161.258 197.194 160.273 196.811 159.09L183.211 123.8C182.911 123.244 182.734 122.63 182.691 122C182.648 121.369 182.74 120.737 182.961 120.146C183.182 119.554 183.526 119.016 183.971 118.568C184.417 118.12 184.952 117.772 185.543 117.547C186.133 117.323 186.765 117.227 187.395 117.266C188.026 117.305 188.64 117.478 189.199 117.773C189.757 118.069 190.246 118.48 190.632 118.98C191.019 119.479 191.294 120.055 191.441 120.67L205.041 155.96C205.541 157.09 205.579 158.371 205.145 159.529C204.711 160.686 203.841 161.627 202.721 162.15H202.711ZM228.401 174.23C227.214 174.604 225.927 174.493 224.822 173.922C223.716 173.35 222.882 172.365 222.501 171.18L208.941 135.89C208.642 135.335 208.465 134.723 208.421 134.095C208.377 133.466 208.468 132.836 208.687 132.245C208.905 131.654 209.247 131.116 209.69 130.668C210.132 130.219 210.665 129.87 211.253 129.643C211.841 129.417 212.47 129.318 213.099 129.353C213.728 129.388 214.342 129.557 214.901 129.848C215.46 130.139 215.951 130.546 216.34 131.041C216.73 131.536 217.009 132.108 217.161 132.72L230.761 168.01C231.272 169.147 231.311 170.44 230.871 171.605C230.43 172.771 229.546 173.715 228.411 174.23H228.401ZM254.091 186.32C252.91 186.696 251.629 186.593 250.525 186.031C249.42 185.47 248.582 184.495 248.191 183.32L234.601 148.03C234.31 147.477 234.139 146.869 234.1 146.245C234.061 145.621 234.154 144.996 234.374 144.411C234.593 143.826 234.934 143.294 235.374 142.85C235.814 142.406 236.343 142.06 236.926 141.835C237.509 141.61 238.133 141.511 238.757 141.544C239.381 141.577 239.991 141.742 240.547 142.028C241.102 142.313 241.591 142.714 241.982 143.202C242.372 143.69 242.654 144.255 242.811 144.86L256.411 180.15C256.909 181.276 256.946 182.553 256.514 183.706C256.082 184.859 255.216 185.798 254.101 186.32H254.091Z" fill="black"/>
<path d="M118.231 128.78L123.821 197.3L206.101 244.8L219.101 187.3L118.231 128.78ZM150.711 196.23C149.522 196.598 148.237 196.483 147.133 195.911C146.028 195.338 145.194 194.353 144.811 193.17L131.221 157.88C130.928 157.326 130.756 156.717 130.715 156.092C130.675 155.467 130.768 154.841 130.988 154.254C131.207 153.668 131.549 153.135 131.99 152.69C132.431 152.245 132.961 151.899 133.545 151.674C134.13 151.449 134.755 151.35 135.38 151.385C136.006 151.419 136.616 151.586 137.173 151.874C137.729 152.162 138.217 152.564 138.607 153.055C138.996 153.545 139.277 154.113 139.431 154.72L153.031 190C153.544 191.134 153.588 192.426 153.153 193.593C152.719 194.759 151.841 195.707 150.711 196.23ZM176.401 208.31C175.214 208.684 173.927 208.573 172.821 208.002C171.716 207.43 170.882 206.444 170.501 205.26L156.941 169.97C156.642 169.415 156.465 168.803 156.421 168.174C156.377 167.546 156.468 166.915 156.687 166.325C156.905 165.734 157.247 165.196 157.69 164.748C158.132 164.299 158.665 163.95 159.253 163.723C159.841 163.497 160.47 163.398 161.099 163.433C161.728 163.468 162.342 163.637 162.901 163.928C163.46 164.219 163.951 164.625 164.34 165.121C164.73 165.616 165.009 166.188 165.161 166.8L178.751 202.09C179.261 203.227 179.301 204.519 178.861 205.685C178.42 206.851 177.536 207.795 176.401 208.31ZM202.091 220.4C200.905 220.774 199.62 220.663 198.516 220.091C197.412 219.519 196.579 218.534 196.201 217.35L182.601 182.06C182.302 181.505 182.125 180.893 182.081 180.265C182.037 179.636 182.128 179.005 182.347 178.415C182.565 177.824 182.907 177.286 183.35 176.838C183.792 176.389 184.325 176.04 184.913 175.813C185.501 175.587 186.13 175.488 186.759 175.523C187.388 175.558 188.002 175.727 188.561 176.018C189.12 176.309 189.611 176.715 190 177.211C190.39 177.706 190.669 178.278 190.821 178.89L204.411 214.18C204.923 215.313 204.967 216.603 204.533 217.768C204.098 218.933 203.22 219.879 202.091 220.4Z" fill="#ED6437"/>
<path d="M219.091 187.3L275.391 154.79L262.401 212.3L206.101 244.8L219.091 187.3Z" fill="#ED6437"/>
<path opacity="0.25" d="M219.091 187.3L275.391 154.79L262.401 212.3L206.101 244.8L219.091 187.3Z" fill="black"/>
<path d="M239.371 63.15L232.871 66.96L232.891 47.27L228.951 45L211.111 55.3L211.081 79.59L200.681 85.48L223.961 100.58L243.311 65.42L239.371 63.15Z" fill="#37474F"/>
<path d="M215.051 57.57L215.021 81.86L204.621 87.76L223.961 100.58L243.311 65.42L232.861 71.56L232.891 47.27L215.051 57.57Z" fill="#455A64"/>
<path d="M211.111 55.3L215.051 57.57L215.021 81.86L211.081 79.59L211.111 55.3Z" fill="#263238"/>
</svg>
