<svg width="400" height="400" viewBox="0 0 400 400" fill="none" xmlns="http://www.w3.org/2000/svg">
<path d="M47.104 217.944C47.104 217.944 46.72 274.584 92.416 313.496C138.112 352.408 203.368 356.744 256.136 361.656C308.904 366.568 350.712 337.6 358.6 292.384C366.488 247.168 326.6 232.848 306.656 180.672C286.712 128.496 289.352 111.568 244.176 78.6562C199 45.7442 125.6 63.4082 85.448 116.856C45.296 170.304 47.104 217.944 47.104 217.944Z" fill="#CBD2E0"/>
<path opacity="0.7" d="M47.104 217.944C47.104 217.944 46.72 274.584 92.416 313.496C138.112 352.408 203.368 356.744 256.136 361.656C308.904 366.568 350.712 337.6 358.6 292.384C366.488 247.168 326.6 232.848 306.656 180.672C286.712 128.496 289.352 111.568 244.176 78.6562C199 45.7442 125.6 63.4082 85.448 116.856C45.296 170.304 47.104 217.944 47.104 217.944Z" fill="white"/>
<path d="M317.32 210.984C315.16 209.876 313.378 208.152 312.198 206.031C311.018 203.909 310.494 201.486 310.692 199.067C310.89 196.647 311.8 194.341 313.309 192.439C314.817 190.538 316.856 189.126 319.167 188.383C321.477 187.64 323.957 187.599 326.291 188.265C328.625 188.931 330.709 190.274 332.28 192.125C333.85 193.976 334.837 196.251 335.115 198.662C335.392 201.073 334.949 203.513 333.84 205.672C333.105 207.106 332.094 208.381 330.865 209.424C329.637 210.468 328.215 211.259 326.681 211.752C325.147 212.245 323.53 212.431 321.924 212.3C320.318 212.168 318.753 211.721 317.32 210.984V210.984Z" fill="#2D3648"/>
<path d="M329.104 193.479L335.056 201.831C335.295 200.208 335.202 198.554 334.784 196.967L329.104 193.479Z" fill="#CBD2E0"/>
<path d="M316.624 189.552L330.768 209.504C331.942 208.528 332.922 207.339 333.656 206L321.792 187.856C319.964 188.027 318.198 188.607 316.624 189.552V189.552Z" fill="#CBD2E0"/>
<path d="M322.472 212.32L316.328 203.52L319.528 211.856C320.487 212.128 321.475 212.284 322.472 212.32V212.32Z" fill="#CBD2E0"/>
<path d="M327.464 211.456L313.416 192.312C313.28 192.48 313.152 192.664 313.024 192.84L323.2 212.336C324.662 212.296 326.106 211.999 327.464 211.456Z" fill="#CBD2E0"/>
<path d="M209.408 345.848C205.847 347.472 201.884 348.003 198.021 347.375C194.158 346.747 190.567 344.988 187.704 342.32C184.841 339.651 182.833 336.194 181.934 332.385C181.035 328.575 181.286 324.585 182.655 320.918C184.024 317.252 186.449 314.073 189.624 311.784C192.799 309.496 196.581 308.2 200.493 308.06C204.404 307.921 208.269 308.945 211.599 311.001C214.928 313.058 217.574 316.056 219.2 319.616C220.281 321.981 220.886 324.537 220.979 327.135C221.072 329.734 220.652 332.326 219.743 334.763C218.833 337.199 217.452 339.432 215.679 341.334C213.906 343.237 211.775 344.77 209.408 345.848V345.848Z" fill="#2D3648"/>
<path d="M219.024 336.4L205.52 315.2L220.856 329.936C220.896 329.528 220.928 329.136 220.944 328.704L202.776 308.112C201.222 307.983 199.659 308.042 198.12 308.288L201.768 314.088L195.736 308.808L200.536 317.496L190.832 310.984C190.592 311.136 190.352 311.288 190.12 311.448L208.128 331.448L193.84 320.576L198.92 328.576L191.52 323.456L210.896 345.104C213.254 343.787 215.315 341.998 216.952 339.848L213.008 333.264L217.904 338.48C218.32 337.811 218.694 337.116 219.024 336.4V336.4Z" fill="#CBD2E0"/>
<path d="M207.016 346.76L191.536 328.904L198.416 339.528L181.456 326.232C181.038 331.295 182.585 336.325 185.775 340.28C188.965 344.234 193.554 346.809 198.592 347.472L192.48 342.04L201.968 347.64C203.681 347.562 205.377 347.266 207.016 346.76Z" fill="#CBD2E0"/>
<path d="M208.552 309.496L217.232 319.576L215.472 315.728L218.28 317.888C216.066 314.082 212.641 311.128 208.552 309.496V309.496Z" fill="#CBD2E0"/>
<path d="M188.368 325.088L183.68 318.608C182.716 320.443 182.042 322.416 181.68 324.456L188.368 325.088Z" fill="#CBD2E0"/>
<path d="M230.584 314.688C229.144 311.536 222.76 311.096 214.28 313.024C214.819 313.498 215.329 314.003 215.808 314.536C222.144 313.08 226.664 313.208 227.6 315.24C229.248 318.848 218.968 327.088 204.632 333.64C190.296 340.192 177.352 342.592 175.696 338.984C174.848 337.128 177.176 334.04 181.584 330.584C181.483 329.882 181.421 329.174 181.4 328.464C175.248 333.264 171.976 337.936 173.328 340.88C175.608 345.872 190.28 344.08 206.128 336.824C221.976 329.568 232.864 319.68 230.584 314.688Z" fill="#2D3648"/>
<path d="M107.152 158.928C117.946 158.928 126.696 150.178 126.696 139.384C126.696 128.59 117.946 119.84 107.152 119.84C96.3582 119.84 87.608 128.59 87.608 139.384C87.608 150.178 96.3582 158.928 107.152 158.928Z" fill="#CBD2E0"/>
<path d="M111.76 124.928C113.072 123.725 114.586 122.764 116.232 122.088C114.646 121.249 112.949 120.638 111.192 120.272C109.381 121.48 107.659 122.817 106.04 124.272C99.0482 130.624 100.952 129.992 90.7922 133.8C89.8547 134.146 88.9521 134.58 88.0962 135.096C87.775 136.495 87.6114 137.925 87.6082 139.36C87.6102 141.826 88.0798 144.269 88.9922 146.56C92.6242 145.456 97.4562 143.664 99.6882 141.432C103.496 137.64 104.136 131.92 111.76 124.928Z" fill="#2D3648"/>
<path d="M92.9521 152.8C94.4312 154.37 96.1582 155.686 98.0641 156.696C101.704 154.152 103.4 151.448 108.584 149.096C113.136 147.024 120.648 146.568 125.336 146.512C126.228 144.247 126.686 141.834 126.688 139.4C126.688 139.064 126.688 138.736 126.64 138.4C121.103 138.831 115.66 140.079 110.488 142.104C103.096 145.04 99.5121 150.28 92.9521 152.8Z" fill="#2D3648"/>
<path d="M112.392 132.552C115.848 134.28 121.192 133.352 125.312 132.2C124.522 130.211 123.411 128.366 122.024 126.736C116.52 127.768 107.608 130.16 112.392 132.552Z" fill="#2D3648"/>
<path d="M103.2 240.856V198.344H111.136V233.42H129.115V240.856H103.2Z" fill="#2D3648"/>
<path d="M133.639 240.856V198.344H141.575V240.856H133.639Z" fill="#2D3648"/>
<path d="M161.2 241.6C158.596 241.6 156.178 241.104 153.946 240.113C151.714 239.121 149.916 237.655 148.552 235.713C147.188 233.73 146.506 231.292 146.506 228.4C146.506 228.152 146.506 227.904 146.506 227.656C146.548 227.409 146.568 227.202 146.568 227.037H154.814C154.814 227.078 154.793 227.223 154.752 227.471C154.752 227.677 154.752 227.863 154.752 228.028C154.752 230.053 155.351 231.685 156.55 232.924C157.749 234.163 159.422 234.783 161.572 234.783C163.969 234.783 165.643 234.267 166.593 233.234C167.544 232.16 168.019 231.003 168.019 229.763C168.019 228.317 167.647 227.161 166.903 226.293C166.16 225.425 165.168 224.723 163.928 224.186C162.729 223.608 161.386 223.091 159.898 222.637C158.451 222.182 156.984 221.666 155.496 221.087C154.008 220.509 152.644 219.765 151.404 218.856C150.205 217.906 149.234 216.687 148.49 215.2C147.746 213.713 147.374 211.812 147.374 209.499C147.374 206.813 148.036 204.603 149.358 202.868C150.681 201.091 152.417 199.769 154.566 198.902C156.757 198.034 159.092 197.6 161.572 197.6C164.093 197.6 166.387 198.034 168.453 198.902C170.561 199.769 172.235 201.132 173.475 202.992C174.757 204.809 175.397 207.185 175.397 210.118V210.862H167.275V210.304C167.275 208.486 166.759 207.061 165.726 206.028C164.734 204.954 163.328 204.417 161.51 204.417C159.608 204.417 158.141 204.851 157.108 205.718C156.075 206.545 155.558 207.619 155.558 208.941C155.558 210.18 155.93 211.172 156.674 211.916C157.418 212.659 158.389 213.279 159.588 213.775C160.828 214.271 162.192 214.746 163.68 215.2C165.168 215.613 166.635 216.109 168.081 216.687C169.569 217.266 170.913 218.03 172.111 218.98C173.351 219.889 174.343 221.087 175.087 222.575C175.831 224.021 176.203 225.859 176.203 228.09C176.203 231.354 175.562 233.978 174.281 235.961C173 237.902 171.223 239.328 168.949 240.237C166.717 241.146 164.134 241.6 161.2 241.6Z" fill="#2D3648"/>
<path d="M190.145 240.856V205.409H179.605V198.344H208.62V205.409H198.081V240.856H190.145Z" fill="#2D3648"/>
<path d="M212.71 240.856V198.344H220.646V240.856H212.71Z" fill="#2D3648"/>
<path d="M227.437 240.856V198.344H234.443L247.587 221.769C247.835 222.1 248.103 222.595 248.393 223.256C248.682 223.876 248.93 224.455 249.136 224.992C249.384 225.487 249.508 225.735 249.508 225.735L249.694 225.549C249.694 225.549 249.694 225.302 249.694 224.806C249.694 224.31 249.674 223.773 249.632 223.194C249.632 222.616 249.632 222.224 249.632 222.017V198.344H256.7V240.856H249.632L236.489 217.431C236.324 217.142 236.076 216.687 235.745 216.068C235.456 215.407 235.187 214.808 234.939 214.271C234.691 213.733 234.567 213.465 234.567 213.465L234.319 213.651C234.319 213.651 234.319 213.878 234.319 214.332C234.36 214.746 234.381 215.241 234.381 215.82C234.422 216.357 234.443 216.811 234.443 217.183V240.856H227.437Z" fill="#2D3648"/>
<path d="M278.945 241.6C273.737 241.6 269.686 239.824 266.793 236.271C263.941 232.717 262.515 227.161 262.515 219.6C262.515 212.081 264.086 206.545 267.227 202.992C270.368 199.397 274.812 197.6 280.557 197.6C283.409 197.6 286.074 198.199 288.554 199.397C291.034 200.595 293.018 202.351 294.506 204.665C296.035 206.979 296.8 209.829 296.8 213.217H288.678C288.678 210.325 287.852 208.135 286.198 206.648C284.586 205.161 282.623 204.417 280.309 204.417C277.002 204.417 274.564 205.636 272.993 208.073C271.464 210.47 270.699 213.795 270.699 218.051V221.149C270.699 225.487 271.484 228.855 273.055 231.251C274.626 233.606 277.064 234.783 280.371 234.783C282.809 234.783 284.793 233.854 286.322 231.994C287.893 230.135 288.678 227.656 288.678 224.558V221.583L292.026 224.558H279.131V217.741H296.8V240.856H291.654L290.29 236.147C288.926 237.923 287.252 239.286 285.268 240.237C283.285 241.146 281.177 241.6 278.945 241.6Z" fill="#2D3648"/>
<path d="M260.192 66.2319C259.801 65.6077 259.673 64.854 259.836 64.1358C260 63.4175 260.441 62.7933 261.064 62.3999L265.6 59.5279C265.91 59.3317 266.255 59.1986 266.616 59.1363C266.978 59.0739 267.348 59.0835 267.705 59.1645C268.063 59.2456 268.401 59.3964 268.7 59.6084C268.999 59.8204 269.253 60.0894 269.448 60.3999V60.3999C269.644 60.7096 269.777 61.055 269.84 61.4162C269.902 61.7775 269.892 62.1475 269.811 62.505C269.73 62.8626 269.579 63.2006 269.367 63.4997C269.155 63.7988 268.886 64.053 268.576 64.2479L264.048 67.1039C263.738 67.3003 263.392 67.4335 263.03 67.496C262.668 67.5584 262.297 67.5489 261.939 67.4679C261.581 67.3869 261.242 67.236 260.942 67.0239C260.643 66.8118 260.388 66.5427 260.192 66.2319V66.2319Z" fill="white" stroke="#2D3648" stroke-width="0.953188" stroke-linecap="round" stroke-linejoin="round"/>
<path d="M257.728 85.8318C255.583 82.7708 252.916 80.1115 249.848 77.9758C245.832 75.5781 241.675 73.4249 237.4 71.5278L234.816 57.1278C237.291 54.7524 239.511 52.1248 241.44 49.2878C243.776 45.5198 243.04 42.9918 241.544 40.3838C240.048 37.7758 237.976 39.4638 237.664 40.6558C237.435 41.9109 237.296 43.1808 237.248 44.4558C237.248 44.4558 235.856 34.8558 235.048 32.6718C234.24 30.4878 231.16 32.5918 231.432 33.3198C231.432 33.3198 230.504 30.5918 228.592 30.5598C226.68 30.5278 226.136 33.7598 226.136 33.7598C226.136 33.7598 223.68 32.6238 222.304 34.0478C220.928 35.4718 221.584 39.0398 221.584 39.0398C221.584 39.0398 219.392 39.8398 219.056 42.9518C218.72 46.0638 218.992 51.5118 219.856 53.0078C220.3 53.7178 220.688 54.4614 221.016 55.2318C219.928 68.2238 219.968 67.3678 219.648 72.5518C219.424 76.1998 221.816 84.6798 225.248 88.2078C228.68 91.7358 240.96 97.9678 240.96 97.9678C240.96 97.9678 253.784 94.6638 257.728 85.8318Z" fill="white"/>
<path d="M241.008 97.9843C241.008 97.9843 253.808 94.6643 257.728 85.8323C257.728 85.8323 257.472 85.4563 257.016 84.8563L253.688 82.0803C248.963 82.4765 244.268 83.174 239.632 84.1683C232.608 85.7683 227.144 82.3443 225.064 74.5683C222.984 66.7923 221.064 55.2803 221.064 55.2803C219.976 68.2723 220.016 67.4163 219.696 72.6003C219.472 76.2483 221.864 84.7283 225.296 88.2563C228.728 91.7843 241.008 97.9843 241.008 97.9843Z" fill="#CBD2E0"/>
<path opacity="0.5" d="M241.008 97.9843C241.008 97.9843 253.808 94.6643 257.728 85.8323C257.728 85.8323 257.472 85.4563 257.016 84.8563L253.688 82.0803C248.963 82.4765 244.268 83.174 239.632 84.1683C232.608 85.7683 227.144 82.3443 225.064 74.5683C222.984 66.7923 221.064 55.2803 221.064 55.2803C219.976 68.2723 220.016 67.4163 219.696 72.6003C219.472 76.2483 221.864 84.7283 225.296 88.2563C228.728 91.7843 241.008 97.9843 241.008 97.9843Z" fill="white"/>
<path d="M257.728 85.8318C255.583 82.7708 252.916 80.1115 249.848 77.9758C245.832 75.5781 241.675 73.4249 237.4 71.5278L234.816 57.1278C237.291 54.7524 239.511 52.1248 241.44 49.2878C243.776 45.5198 243.04 42.9918 241.544 40.3838C240.048 37.7758 237.976 39.4638 237.664 40.6558C237.435 41.9109 237.296 43.1808 237.248 44.4558C237.248 44.4558 235.856 34.8558 235.048 32.6718C234.24 30.4878 231.16 32.5918 231.432 33.3198C231.432 33.3198 230.504 30.5918 228.592 30.5598C226.68 30.5278 226.136 33.7598 226.136 33.7598C226.136 33.7598 223.68 32.6238 222.304 34.0478C220.928 35.4718 221.584 39.0398 221.584 39.0398C221.584 39.0398 219.392 39.8398 219.056 42.9518C218.72 46.0638 218.992 51.5118 219.856 53.0078C220.3 53.7178 220.688 54.4614 221.016 55.2318C219.928 68.2238 219.968 67.3678 219.648 72.5518C219.424 76.1998 221.816 84.6798 225.248 88.2078C228.68 91.7358 240.96 97.9678 240.96 97.9678C240.96 97.9678 253.784 94.6638 257.728 85.8318Z" stroke="#2D3648" stroke-width="0.953188" stroke-linecap="round" stroke-linejoin="round"/>
<path d="M236.4 65.9356L234.8 57.1356C237.275 54.7602 239.495 52.1326 241.424 49.2956C243.76 45.5276 243.024 42.9996 241.528 40.3916C240.032 37.7836 237.96 39.4716 237.648 40.6636C237.419 41.9187 237.28 43.1886 237.232 44.4636C237.232 44.4636 235.84 34.8636 235.032 32.6796C234.224 30.4956 231.144 32.5996 231.416 33.3276C231.416 33.3276 230.488 30.5996 228.576 30.5676C226.664 30.5356 226.12 33.7676 226.12 33.7676C226.12 33.7676 223.664 32.6316 222.288 34.0556C220.912 35.4796 221.568 39.0476 221.568 39.0476C221.568 39.0476 219.376 39.8476 219.04 42.9596C218.704 46.0716 218.976 51.5196 219.84 53.0156C220.284 53.7256 220.672 54.4692 221 55.2396C220.52 60.9836 220.256 64.0396 220.088 66.0716L236.4 65.9356Z" fill="white" stroke="#2D3648" stroke-width="0.953188" stroke-linecap="round" stroke-linejoin="round"/>
<path d="M223.632 86.0323C223.928 86.5146 224.251 86.9794 224.6 87.4243C227.976 84.6003 235.576 77.8243 239 72.0083C238.04 71.7043 237.4 71.5283 237.4 71.5283C237.4 71.5283 230.328 80.8003 223.632 86.0323Z" fill="white" stroke="#2D3648" stroke-width="0.953188" stroke-linecap="round" stroke-linejoin="round"/>
<path d="M237.248 44.4403C237.248 44.4403 229.688 44.1603 228.888 50.5363" stroke="#2D3648" stroke-width="0.953188" stroke-linecap="round" stroke-linejoin="round"/>
<path d="M231.432 33.3037L231.688 41.3437" stroke="#2D3648" stroke-width="0.953188" stroke-linecap="round" stroke-linejoin="round"/>
<path d="M226.136 33.7764L226.656 41.0484" stroke="#2D3648" stroke-width="0.953188" stroke-linecap="round" stroke-linejoin="round"/>
<path d="M221.584 39.0557L222.4 43.5917" stroke="#2D3648" stroke-width="0.953188" stroke-linecap="round" stroke-linejoin="round"/>
<path d="M233.208 40.9678C233.208 40.9678 224.672 42.3998 221.384 45.1918" stroke="#2D3648" stroke-width="0.953188" stroke-linecap="round" stroke-linejoin="round"/>
<path d="M231.2 91.3919C233.984 88.9919 233.768 84.1919 230.704 80.5999C227.752 77.1439 223.232 76.1279 220.416 78.1999C221.368 81.8799 223.112 86.0079 225.272 88.2079C226.848 89.6432 228.566 90.9138 230.4 91.9999C230.687 91.8258 230.955 91.622 231.2 91.3919V91.3919Z" fill="#CBD2E0"/>
<path d="M231.2 91.3919C233.984 88.9919 233.768 84.1919 230.704 80.5999C227.752 77.1439 223.232 76.1279 220.416 78.1999C221.368 81.8799 223.112 86.0079 225.272 88.2079C226.848 89.6432 228.566 90.9138 230.4 91.9999C230.687 91.8258 230.955 91.622 231.2 91.3919V91.3919Z" stroke="#2D3648" stroke-width="0.953188" stroke-linecap="round" stroke-linejoin="round"/>
<path d="M225.768 100.744C225.768 100.744 222.192 101.12 221.064 102.088C219.936 103.056 211.352 110.4 209.96 114.752C208.568 119.104 213.856 132.128 219.632 137.152C225.408 142.176 232.624 147.496 238.752 146.4C244.88 145.304 251.92 135.864 252.648 133.296C253.376 130.728 229.4 101.296 229.4 101.296C229.4 101.296 227.696 99.584 225.768 100.744Z" fill="white"/>
<path d="M225.768 100.744C225.768 100.744 225.064 100.816 224.168 100.984L224.968 102.336C224.968 102.336 224.232 109.92 229.432 118.512C234.632 127.104 243.744 132.56 243.48 135.68C243.216 138.8 244.28 142.968 236.456 142.448C228.632 141.928 220.328 128.656 217.464 122.152C215.976 118.768 214.696 113.632 213.232 109.656C211.82 111.137 210.692 112.864 209.904 114.752C208.512 119.104 213.8 132.128 219.576 137.152C225.352 142.176 232.568 147.496 238.696 146.4C244.824 145.304 251.864 135.864 252.592 133.296C253.32 130.728 229.344 101.296 229.344 101.296C229.344 101.296 227.696 99.584 225.768 100.744Z" fill="#CBD2E0"/>
<path opacity="0.5" d="M225.768 100.744C225.768 100.744 225.064 100.816 224.168 100.984L224.968 102.336C224.968 102.336 224.232 109.92 229.432 118.512C234.632 127.104 243.744 132.56 243.48 135.68C243.216 138.8 244.28 142.968 236.456 142.448C228.632 141.928 220.328 128.656 217.464 122.152C215.976 118.768 214.696 113.632 213.232 109.656C211.82 111.137 210.692 112.864 209.904 114.752C208.512 119.104 213.8 132.128 219.576 137.152C225.352 142.176 232.568 147.496 238.696 146.4C244.824 145.304 251.864 135.864 252.592 133.296C253.32 130.728 229.344 101.296 229.344 101.296C229.344 101.296 227.696 99.584 225.768 100.744Z" fill="white"/>
<path d="M225.768 100.744C225.768 100.744 222.192 101.12 221.064 102.088C219.936 103.056 211.352 110.4 209.96 114.752C208.568 119.104 213.856 132.128 219.632 137.152C225.408 142.176 232.624 147.496 238.752 146.4C244.88 145.304 251.92 135.864 252.648 133.296C253.376 130.728 229.4 101.296 229.4 101.296C229.4 101.296 227.696 99.584 225.768 100.744Z" stroke="#2D3648" stroke-width="0.953188" stroke-linecap="round" stroke-linejoin="round"/>
<path d="M256.312 83.2961C256.312 83.2961 252.52 82.0161 246.872 84.4161C241.224 86.8161 227.096 95.1121 225.024 102.336C223.656 107.08 238.624 129.232 247.976 132.88C250.488 133.856 252.776 134.92 257.92 130.728C263.064 126.536 273.848 114.896 276.672 109.768C279.496 104.64 275.072 100.816 273.592 98.5681C272.112 96.3201 260.28 81.6001 256.312 83.2961Z" fill="white"/>
<path d="M276.704 109.696L266.952 112.8C266.952 112.8 256.808 124.8 253.168 127.896C249.528 130.992 238.072 123.472 234.168 119.824L233.016 118.752C237.68 125.088 243.48 131.136 247.976 132.896C250.488 133.872 252.776 134.936 257.92 130.744C263.064 126.552 273.848 114.912 276.672 109.784C276.687 109.757 276.698 109.727 276.704 109.696Z" fill="#CBD2E0"/>
<path d="M271.64 108.624L276.888 109.304C279.216 104.408 275.056 100.744 273.592 98.5518C272.128 96.3598 260.28 81.5998 256.312 83.2958C255.585 83.0917 254.835 82.9814 254.08 82.9678C249.28 86.5838 249.824 90.7358 254.208 98.2158C258.592 105.696 271.64 108.624 271.64 108.624Z" fill="#CBD2E0"/>
<g opacity="0.5">
<path d="M276.704 109.696L266.952 112.8C266.952 112.8 256.808 124.8 253.168 127.896C249.528 130.992 238.072 123.472 234.168 119.824L233.016 118.752C237.68 125.088 243.48 131.136 247.976 132.896C250.488 133.872 252.776 134.936 257.92 130.744C263.064 126.552 273.848 114.912 276.672 109.784C276.687 109.757 276.698 109.727 276.704 109.696Z" fill="white"/>
<path d="M271.64 108.624L276.888 109.304C279.216 104.408 275.056 100.744 273.592 98.5518C272.128 96.3598 260.28 81.5998 256.312 83.2958C255.585 83.0917 254.835 82.9814 254.08 82.9678C249.28 86.5838 249.824 90.7358 254.208 98.2158C258.592 105.696 271.64 108.624 271.64 108.624Z" fill="white"/>
</g>
<path d="M256.312 83.2961C256.312 83.2961 252.52 82.0161 246.872 84.4161C241.224 86.8161 227.096 95.1121 225.024 102.336C223.656 107.08 238.624 129.232 247.976 132.88C250.488 133.856 252.776 134.92 257.92 130.728C263.064 126.536 273.848 114.896 276.672 109.768C279.496 104.64 275.072 100.816 273.592 98.5681C272.112 96.3201 260.28 81.6001 256.312 83.2961Z" stroke="#2D3648" stroke-width="0.953188" stroke-linecap="round" stroke-linejoin="round"/>
<path d="M260.57 105.231L250.871 91.9269C249.338 89.8239 246.391 89.3618 244.288 90.8948L234.048 98.3593C231.945 99.8922 231.483 102.84 233.016 104.943L242.714 118.247C244.247 120.35 247.194 120.812 249.297 119.279L259.537 111.815C261.64 110.282 262.102 107.334 260.57 105.231Z" fill="white" stroke="#2D3648" stroke-width="0.953188" stroke-linecap="round" stroke-linejoin="round"/>
<path d="M383.616 184.176C371.656 152.976 341.736 153.32 315.344 153.648C306.248 153.76 297.656 153.872 289.744 152.848C263.048 149.472 255.416 122.032 255.344 121.648C255.28 121.406 255.169 121.179 255.017 120.979C254.865 120.78 254.675 120.613 254.459 120.487C254.242 120.361 254.003 120.279 253.755 120.246C253.507 120.212 253.254 120.228 253.012 120.292C252.77 120.356 252.543 120.467 252.344 120.619C252.144 120.771 251.977 120.961 251.851 121.177C251.725 121.394 251.643 121.633 251.61 121.881C251.576 122.129 251.592 122.382 251.656 122.624C251.736 122.928 259.968 152.896 289.256 156.608C297.44 157.648 306.568 157.528 315.4 157.408C341.8 157.08 369.048 156.736 380.064 185.48C382.521 192.115 383.153 199.288 381.893 206.25C380.634 213.213 377.53 219.71 372.904 225.064C364.712 234.496 353.088 238.32 341.024 235.552C329.64 232.936 318.392 229.336 307.512 225.856C289.504 220.096 270.888 214.136 251.128 212.48C217.248 209.632 193.68 226.136 166.416 245.232C160.928 249.08 155.256 253.048 149.312 257L145.928 259.256C129.056 270.52 111.616 282.168 91.88 284.272C76.536 285.872 60.936 278.72 53.04 266.392C50.8465 263.04 49.342 259.285 48.6141 255.346C47.8861 251.407 47.9493 247.362 48.8 243.448C49.5873 240.06 51.0622 236.869 53.1333 234.074C55.2044 231.279 57.8275 228.939 60.84 227.2C71.056 221.112 89.104 219.088 104.496 220.8L104.76 217C88.608 215.28 69.76 217.488 58.888 223.96C55.4446 225.979 52.4463 228.676 50.0744 231.886C47.7025 235.097 46.0062 238.755 45.088 242.64C44.1104 247.061 44.0258 251.632 44.8391 256.086C45.6523 260.54 47.3472 264.786 49.824 268.576C57.744 280.952 72.072 288.432 87.28 288.456C88.9502 288.455 90.6191 288.367 92.28 288.192C112.944 285.992 131.592 273.544 148.032 262.592L151.408 260.336C157.4 256.336 163.088 252.336 168.592 248.52C195.256 229.84 218.28 213.704 250.8 216.44C270.128 218.04 288.536 223.952 306.336 229.648C317.296 233.152 328.624 236.776 340.16 239.424C353.648 242.52 366.624 238.256 375.776 227.728C380.871 221.84 384.287 214.69 385.666 207.027C387.046 199.364 386.338 191.471 383.616 184.176V184.176Z" fill="white" stroke="#2D3648" stroke-width="0.953188" stroke-linecap="round" stroke-linejoin="round"/>
<path d="M250.72 96.848C250.72 97.3623 250.567 97.865 250.282 98.2925C249.996 98.7201 249.59 99.0533 249.115 99.2501C248.64 99.4469 248.117 99.4984 247.613 99.3981C247.108 99.2978 246.645 99.0501 246.281 98.6865C245.918 98.3229 245.67 97.8596 245.57 97.3553C245.47 96.8509 245.521 96.3282 245.718 95.8531C245.915 95.378 246.248 94.9719 246.675 94.6862C247.103 94.4005 247.606 94.248 248.12 94.248C248.809 94.248 249.471 94.522 249.958 95.0096C250.446 95.4972 250.72 96.1585 250.72 96.848V96.848Z" fill="#CBD2E0" stroke="#2D3648" stroke-width="0.953188" stroke-linecap="round" stroke-linejoin="round"/>
<path d="M243.664 102.784C243.666 103.299 243.514 103.803 243.229 104.231C242.944 104.66 242.538 104.995 242.063 105.192C241.587 105.39 241.064 105.442 240.559 105.342C240.054 105.242 239.59 104.994 239.226 104.63C238.861 104.266 238.614 103.802 238.514 103.297C238.414 102.792 238.466 102.269 238.663 101.793C238.861 101.318 239.196 100.912 239.625 100.627C240.053 100.342 240.557 100.19 241.072 100.192C241.759 100.192 242.419 100.465 242.905 100.951C243.391 101.437 243.664 102.096 243.664 102.784V102.784Z" fill="#CBD2E0" stroke="#2D3648" stroke-width="0.953188" stroke-linecap="round" stroke-linejoin="round"/>
<path d="M279.463 103.416C290.706 100.15 297.173 88.3868 293.906 77.1433C290.64 65.8997 278.877 59.4331 267.634 62.6996C256.39 65.9662 249.923 77.7289 253.19 88.9725C256.457 100.216 268.219 106.683 279.463 103.416Z" fill="white"/>
<path d="M289.656 69.2721C288.92 68.4104 288.118 67.6079 287.256 66.8721C288.503 71.2437 288.31 75.9006 286.705 80.1541C285.101 84.4075 282.17 88.0317 278.346 90.4907C274.523 92.9497 270.01 94.113 265.474 93.8086C260.938 93.5041 256.621 91.748 253.16 88.8001C254.019 91.8514 255.552 94.6711 257.646 97.0514C259.74 99.4316 262.341 101.312 265.258 102.554C268.174 103.795 271.332 104.367 274.499 104.226C277.666 104.085 280.761 103.236 283.556 101.74C286.351 100.245 288.775 98.1411 290.65 95.5845C292.524 93.0278 293.801 90.0833 294.386 86.9677C294.971 83.8522 294.85 80.645 294.032 77.5825C293.213 74.5199 291.718 71.6801 289.656 69.2721Z" fill="#CBD2E0"/>
<path opacity="0.5" d="M289.656 69.2721C288.92 68.4104 288.118 67.6079 287.256 66.8721C288.503 71.2437 288.31 75.9006 286.705 80.1541C285.101 84.4075 282.17 88.0317 278.346 90.4907C274.523 92.9497 270.01 94.113 265.474 93.8086C260.938 93.5041 256.621 91.748 253.16 88.8001C254.019 91.8514 255.552 94.6711 257.646 97.0514C259.74 99.4316 262.341 101.312 265.258 102.554C268.174 103.795 271.332 104.367 274.499 104.226C277.666 104.085 280.761 103.236 283.556 101.74C286.351 100.245 288.775 98.1411 290.65 95.5845C292.524 93.0278 293.801 90.0833 294.386 86.9677C294.971 83.8522 294.85 80.645 294.032 77.5825C293.213 74.5199 291.718 71.6801 289.656 69.2721Z" fill="white"/>
<path d="M279.463 103.416C290.706 100.15 297.173 88.3868 293.906 77.1433C290.64 65.8997 278.877 59.4331 267.634 62.6996C256.39 65.9662 249.923 77.7289 253.19 88.9725C256.457 100.216 268.219 106.683 279.463 103.416Z" stroke="#2D3648" stroke-width="0.953188" stroke-linecap="round" stroke-linejoin="round"/>
<path d="M292.368 97.7038L298.544 92.4238" stroke="#2D3648" stroke-width="0.953188" stroke-linecap="round" stroke-linejoin="round"/>
<path d="M300.184 93.0881C300.513 92.807 300.716 92.4067 300.75 91.9754C300.784 91.5441 300.645 91.117 300.364 90.7881C300.083 90.4593 299.682 90.2555 299.251 90.2218C298.82 90.188 298.393 90.327 298.064 90.6081C297.901 90.7473 297.767 90.9172 297.67 91.1082C297.573 91.2991 297.514 91.5073 297.498 91.7208C297.464 92.1522 297.603 92.5793 297.884 92.9081C298.165 93.237 298.565 93.4407 298.997 93.4745C299.428 93.5082 299.855 93.3692 300.184 93.0881V93.0881Z" fill="#2D3648"/>
<path d="M284.8 104.104C284.562 103.826 284.382 103.503 284.269 103.155C284.156 102.807 284.113 102.44 284.142 102.075C284.171 101.711 284.271 101.355 284.438 101.029C284.604 100.703 284.833 100.413 285.112 100.176L289.176 96.688C289.74 96.2095 290.471 95.9737 291.208 96.0322C291.946 96.0907 292.63 96.4386 293.112 97V97C293.35 97.2778 293.531 97.5998 293.645 97.9476C293.759 98.2954 293.803 98.6623 293.774 99.0271C293.746 99.3919 293.646 99.7476 293.48 100.074C293.315 100.4 293.086 100.69 292.808 100.928L288.736 104.416C288.173 104.897 287.442 105.134 286.703 105.075C285.965 105.017 285.281 104.667 284.8 104.104Z" fill="white" stroke="#2D3648" stroke-width="0.953188" stroke-linecap="round" stroke-linejoin="round"/>
<path d="M278.168 107.6C278.168 107.6 269.936 105.376 266.696 111.56C263.456 117.744 267.112 133.16 267.112 133.16C267.112 133.16 261.096 142.936 259.568 144C258.04 145.064 253.736 144.6 249.496 146.76C245.256 148.92 246.656 151.136 247.784 151.88C248.912 152.624 252.368 150.4 253.384 150.48C254.4 150.56 254.288 152.392 250.288 156.544C246.288 160.696 244.456 160.8 245.6 162.72C245.91 163.27 246.389 163.705 246.964 163.963C247.54 164.22 248.184 164.287 248.8 164.152C248.659 164.628 248.695 165.138 248.901 165.59C249.106 166.041 249.469 166.403 249.92 166.608C251.568 167.408 252.272 166.792 252.272 166.792C252.272 166.792 252.112 168.88 253.64 169.52C254.839 169.873 256.113 169.873 257.312 169.52C257.312 169.52 258.76 171.216 260.224 170.936C261.688 170.656 265.024 166.576 267.664 163.104C270.304 159.632 280.464 147.288 284.464 139.72C288.464 132.152 286.568 124.52 285.752 119.856C284.936 115.192 281.24 108.624 278.168 107.6Z" fill="white"/>
<path d="M285.752 119.88C284.952 115.216 281.24 108.624 278.168 107.6L277.976 107.552C280.79 114.302 281.919 121.636 281.264 128.92C280.224 142.184 268.056 152.648 264.352 156.496C261.384 159.584 257.648 163.912 252.264 167.112C252.243 167.6 252.361 168.084 252.603 168.508C252.845 168.933 253.202 169.281 253.632 169.512C254.831 169.864 256.105 169.864 257.304 169.512C257.304 169.512 258.752 171.208 260.216 170.928C261.68 170.648 265.016 166.568 267.656 163.096C270.296 159.624 280.456 147.28 284.456 139.712C288.456 132.144 286.568 124.544 285.752 119.88Z" fill="#CBD2E0"/>
<path opacity="0.5" d="M285.752 119.88C284.952 115.216 281.24 108.624 278.168 107.6L277.976 107.552C280.79 114.302 281.919 121.636 281.264 128.92C280.224 142.184 268.056 152.648 264.352 156.496C261.384 159.584 257.648 163.912 252.264 167.112C252.243 167.6 252.361 168.084 252.603 168.508C252.845 168.933 253.202 169.281 253.632 169.512C254.831 169.864 256.105 169.864 257.304 169.512C257.304 169.512 258.752 171.208 260.216 170.928C261.68 170.648 265.016 166.568 267.656 163.096C270.296 159.624 280.456 147.28 284.456 139.712C288.456 132.144 286.568 124.544 285.752 119.88Z" fill="white"/>
<path d="M278.168 107.6C278.168 107.6 269.936 105.376 266.696 111.56C263.456 117.744 267.112 133.16 267.112 133.16C267.112 133.16 261.096 142.936 259.568 144C258.04 145.064 253.736 144.6 249.496 146.76C245.256 148.92 246.656 151.136 247.784 151.88C248.912 152.624 252.368 150.4 253.384 150.48C254.4 150.56 254.288 152.392 250.288 156.544C246.288 160.696 244.456 160.8 245.6 162.72C245.91 163.27 246.389 163.705 246.964 163.963C247.54 164.22 248.184 164.287 248.8 164.152C248.659 164.628 248.695 165.138 248.901 165.59C249.106 166.041 249.469 166.403 249.92 166.608C251.568 167.408 252.272 166.792 252.272 166.792C252.272 166.792 252.112 168.88 253.64 169.52C254.839 169.873 256.113 169.873 257.312 169.52C257.312 169.52 258.76 171.216 260.224 170.936C261.688 170.656 265.024 166.576 267.664 163.104C270.304 159.632 280.464 147.288 284.464 139.72C288.464 132.152 286.568 124.52 285.752 119.856C284.936 115.192 281.24 108.624 278.168 107.6Z" stroke="#2D3648" stroke-width="0.953188" stroke-linecap="round" stroke-linejoin="round"/>
<path d="M260.216 170.96C261.68 170.68 265.016 166.6 267.656 163.128C269.152 161.168 273.056 156.36 276.888 151.184C274.32 142.384 266.72 139.752 263.336 139.024C261.808 141.312 260.24 143.504 259.568 143.976C258.04 145.04 253.736 144.576 249.496 146.736C245.256 148.896 246.656 151.112 247.784 151.856C248.912 152.6 252.368 150.376 253.384 150.456C254.4 150.536 254.288 152.368 250.288 156.52C246.288 160.672 244.456 160.8 245.6 162.72C245.91 163.269 246.389 163.705 246.964 163.962C247.54 164.22 248.184 164.287 248.8 164.152C248.659 164.628 248.695 165.138 248.901 165.589C249.106 166.041 249.469 166.403 249.92 166.608C251.568 167.408 252.272 166.792 252.272 166.792C252.272 166.792 252.112 168.88 253.64 169.52C254.839 169.873 256.113 169.873 257.312 169.52C257.312 169.52 258.752 171.24 260.216 170.96Z" stroke="#2D3648" stroke-width="0.953188" stroke-linecap="round" stroke-linejoin="round"/>
<path d="M248.8 164.152C251.847 162.57 254.563 160.42 256.8 157.816" stroke="#2D3648" stroke-width="0.953188" stroke-linecap="round" stroke-linejoin="round"/>
<path d="M252.264 166.792C255.466 165.236 258.319 163.045 260.648 160.352" stroke="#2D3648" stroke-width="0.953188" stroke-linecap="round" stroke-linejoin="round"/>
<path d="M257.304 169.544C257.304 169.544 261.912 166.096 264.104 163.248" stroke="#2D3648" stroke-width="0.953188" stroke-linecap="round" stroke-linejoin="round"/>
<path d="M286.12 135.552C286.288 134.944 286.416 134.336 286.528 133.736C279.824 129.264 271.376 130.728 266.872 132.032C267.016 132.728 267.112 133.136 267.112 133.136L266.416 134.256C277.184 131.656 283.12 133.6 286.12 135.552Z" fill="white" stroke="#2D3648" stroke-width="0.953188" stroke-linecap="round" stroke-linejoin="round"/>
<path d="M281.448 139.64C282.044 140.335 282.752 140.925 283.544 141.384C283.872 140.816 284.184 140.272 284.464 139.784C286.503 135.766 287.315 131.237 286.8 126.76C285.102 126.835 283.477 127.474 282.184 128.576C280.626 129.95 279.675 131.884 279.537 133.957C279.399 136.029 280.086 138.072 281.448 139.64V139.64Z" fill="#CBD2E0" stroke="#2D3648" stroke-width="0.953188" stroke-linecap="round" stroke-linejoin="round"/>
<path d="M205.648 110.472C205.648 110.472 208.976 120.072 213.256 120.784C217.536 121.496 223.488 114.232 224.696 108.784C225.904 103.336 221.656 98.9519 215.512 93.4799C209.368 88.0079 200.56 84.8239 193.112 88.9759C185.664 93.1279 174.656 104.976 174.656 104.976C174.656 104.976 167.768 98.9199 164.112 102.048C160.456 105.176 165.224 114.744 168.592 118.688C171.96 122.632 178.104 128.416 184 127.04C189.896 125.664 194.568 114.6 198.4 111.344C202.232 108.088 204.8 109.488 205.648 110.472Z" fill="white"/>
<path d="M215.2 112.8C208.696 109.68 210.52 101.872 204 99.7923C197.48 97.7123 198.016 102.136 192.8 110.464C187.584 118.792 177.968 118.264 171.464 116.184C169.402 115.517 167.375 114.745 165.392 113.872C166.281 115.611 167.354 117.25 168.592 118.76C171.96 122.704 178.08 128.432 183.968 127.056C189.856 125.68 194.536 114.616 198.368 111.36C202.2 108.104 204.816 109.504 205.656 110.488C205.656 110.488 208.984 120.088 213.264 120.8C217.544 121.512 223.496 114.248 224.704 108.8C224.904 107.908 224.956 106.989 224.856 106.08L224.552 106.016C224.552 106.016 221.68 115.912 215.2 112.8Z" fill="#CBD2E0"/>
<path opacity="0.5" d="M215.2 112.8C208.696 109.68 210.52 101.872 204 99.7923C197.48 97.7123 198.016 102.136 192.8 110.464C187.584 118.792 177.968 118.264 171.464 116.184C169.402 115.517 167.375 114.745 165.392 113.872C166.281 115.611 167.354 117.25 168.592 118.76C171.96 122.704 178.08 128.432 183.968 127.056C189.856 125.68 194.536 114.616 198.368 111.36C202.2 108.104 204.816 109.504 205.656 110.488C205.656 110.488 208.984 120.088 213.264 120.8C217.544 121.512 223.496 114.248 224.704 108.8C224.904 107.908 224.956 106.989 224.856 106.08L224.552 106.016C224.552 106.016 221.68 115.912 215.2 112.8Z" fill="white"/>
<path d="M205.648 110.472C205.648 110.472 208.976 120.072 213.256 120.784C217.536 121.496 223.488 114.232 224.696 108.784C225.904 103.336 221.656 98.9519 215.512 93.4799C209.368 88.0079 200.56 84.8239 193.112 88.9759C185.664 93.1279 174.656 104.976 174.656 104.976C174.656 104.976 167.768 98.9199 164.112 102.048C160.456 105.176 165.224 114.744 168.592 118.688C171.96 122.632 178.104 128.416 184 127.04C189.896 125.664 194.568 114.6 198.4 111.344C202.232 108.088 204.8 109.488 205.648 110.472Z" stroke="#2D3648" stroke-width="0.953188" stroke-linecap="round" stroke-linejoin="round"/>
<path d="M184.664 95.3442C179.352 100 174.68 105.032 174.68 105.032C174.68 105.032 167.792 98.9762 164.136 102.104C160.48 105.232 165.248 114.8 168.616 118.744C171.984 122.688 178.104 128.416 184 127.04C189.312 125.8 193.6 116.64 197.216 112.52C192.193 107.457 187.962 101.667 184.664 95.3442V95.3442Z" stroke="#2D3648" stroke-width="0.953188" stroke-linecap="round" stroke-linejoin="round"/>
<path d="M202.4 87.2001C201.747 87.1243 201.09 87.0842 200.432 87.0801C202.386 94.3801 202.833 102.002 201.744 109.48C202.383 109.309 203.053 109.282 203.704 109.4C204.144 103.728 204.472 94.3281 202.4 87.2001Z" stroke="#2D3648" stroke-width="0.953188" stroke-linecap="round" stroke-linejoin="round"/>
<path d="M206.888 99.6639C205.828 100.564 204.526 101.13 203.145 101.29C201.764 101.45 200.366 101.197 199.129 100.563C197.891 99.9286 196.87 98.9419 196.193 97.7274C195.516 96.5129 195.215 95.125 195.326 93.7392C195.438 92.3533 195.958 91.0317 196.821 89.9414C197.683 88.851 198.85 88.0408 200.173 87.6133C201.496 87.1857 202.916 87.1599 204.254 87.5391C205.591 87.9183 206.786 88.6856 207.688 89.7439C208.288 90.4474 208.742 91.2623 209.027 92.1419C209.311 93.0214 209.419 93.9484 209.345 94.8697C209.27 95.7911 209.015 96.6887 208.594 97.5114C208.172 98.334 207.593 99.0654 206.888 99.6639V99.6639Z" fill="#CBD2E0" stroke="#2D3648" stroke-width="0.953188" stroke-linecap="round" stroke-linejoin="round"/>
<path d="M184 127.04C185.401 126.645 186.682 125.908 187.728 124.896C183.96 125.52 177 125.312 170.672 117.696C164.512 110.304 164.408 104.552 165.016 101.528C164.702 101.673 164.409 101.858 164.144 102.08C160.48 105.208 165.256 114.776 168.624 118.72C171.992 122.664 178.104 128.416 184 127.04Z" stroke="#2D3648" stroke-width="0.953188" stroke-linecap="round" stroke-linejoin="round"/>
<path d="M224.904 144.472C224.904 144.472 234.64 147.336 237.704 144.28C240.768 141.224 241.224 131.936 234.6 128C229.8 125.168 224.832 124.8 216.808 126.592C208.784 128.384 201.08 133.736 200.144 142.184C199.208 150.632 202.464 166.52 202.464 166.52C202.464 166.52 193.544 168.608 193.96 173.408C194.376 178.208 204.944 179.88 210.104 179.424C215.264 178.968 223.496 177.32 225.792 171.728C228.088 166.136 221.792 155.904 221.36 150.928C220.928 145.952 223.616 144.584 224.904 144.472Z" fill="white"/>
<path d="M224.904 144.472C224.904 144.472 234.64 147.336 237.704 144.28C239.704 142.288 240.576 137.672 239.128 133.6C239.128 133.6 239.928 137.768 234.184 138.808C228.44 139.848 219.096 137.768 214.936 142.968C210.776 148.168 216.752 158.84 217.272 165.864C217.792 172.888 216.216 175.2 209.192 176C202.168 176.8 195.888 171.76 194.44 174.816C196.592 178.52 205.504 179.816 210.12 179.408C215.288 178.952 223.512 177.304 225.808 171.712C228.104 166.12 221.808 155.888 221.376 150.912C220.944 145.936 223.616 144.584 224.904 144.472Z" fill="#CBD2E0"/>
<path opacity="0.5" d="M224.904 144.472C224.904 144.472 234.64 147.336 237.704 144.28C239.704 142.288 240.576 137.672 239.128 133.6C239.128 133.6 239.928 137.768 234.184 138.808C228.44 139.848 219.096 137.768 214.936 142.968C210.776 148.168 216.752 158.84 217.272 165.864C217.792 172.888 216.216 175.2 209.192 176C202.168 176.8 195.888 171.76 194.44 174.816C196.592 178.52 205.504 179.816 210.12 179.408C215.288 178.952 223.512 177.304 225.808 171.712C228.104 166.12 221.808 155.888 221.376 150.912C220.944 145.936 223.616 144.584 224.904 144.472Z" fill="white"/>
<path d="M224.904 144.472C224.904 144.472 234.64 147.336 237.704 144.28C240.768 141.224 241.224 131.936 234.6 128C229.8 125.168 224.832 124.8 216.808 126.592C208.784 128.384 201.08 133.736 200.144 142.184C199.208 150.632 202.464 166.52 202.464 166.52C202.464 166.52 193.544 168.608 193.96 173.408C194.376 178.208 204.944 179.88 210.104 179.424C215.264 178.968 223.496 177.32 225.792 171.728C228.088 166.136 221.792 155.904 221.36 150.928C220.928 145.952 223.616 144.584 224.904 144.472Z" stroke="#2D3648" stroke-width="0.953188" stroke-linecap="round" stroke-linejoin="round"/>
<path d="M200.4 152.8C201.104 159.832 202.48 166.552 202.48 166.552C202.48 166.552 193.56 168.64 193.976 173.44C194.392 178.24 204.96 179.912 210.12 179.456C215.28 179 223.512 177.352 225.808 171.76C227.88 166.712 222.976 157.904 221.664 152.56C214.628 153.71 207.46 153.79 200.4 152.8V152.8Z" stroke="#2D3648" stroke-width="0.953188" stroke-linecap="round" stroke-linejoin="round"/>
<path d="M204.064 133.648C203.625 134.134 203.214 134.644 202.832 135.176C209.895 137.831 216.347 141.889 221.8 147.104C222.036 146.499 222.402 145.953 222.872 145.504C218.544 141.784 211.08 136.056 204.064 133.648Z" stroke="#2D3648" stroke-width="0.953188" stroke-linecap="round" stroke-linejoin="round"/>
<path d="M211.927 144.533C215.636 143.367 217.697 139.414 216.53 135.705C215.364 131.996 211.411 129.935 207.702 131.102C203.993 132.269 201.932 136.221 203.099 139.93C204.266 143.639 208.218 145.7 211.927 144.533Z" fill="#CBD2E0" stroke="#2D3648" stroke-width="0.953188" stroke-linecap="round" stroke-linejoin="round"/>
<path d="M225.808 171.728C226.302 170.359 226.445 168.887 226.224 167.448C224.544 170.88 220.336 176.424 210.48 177.16C200.88 177.88 196.136 174.624 194.04 172.36C193.97 172.699 193.949 173.047 193.976 173.392C194.4 178.192 204.96 179.864 210.12 179.408C215.28 178.952 223.512 177.32 225.808 171.728Z" stroke="#2D3648" stroke-width="0.953188" stroke-linecap="round" stroke-linejoin="round"/>
<path d="M280.696 74.1278C278.583 71.3527 276.667 68.4336 274.96 65.3918C271.379 64.9116 267.736 65.5158 264.502 67.1264C261.268 68.7371 258.591 71.2802 256.816 74.4275C255.041 77.5748 254.251 81.1818 254.547 84.7828C254.843 88.3838 256.211 91.8134 258.475 94.629C260.74 97.4446 263.796 99.5168 267.25 100.578C270.703 101.64 274.396 101.641 277.85 100.583C281.305 99.5251 284.363 97.4557 286.63 94.6423C288.897 91.8289 290.269 88.4005 290.568 84.7998C286.931 81.5796 283.624 78.0046 280.696 74.1278V74.1278Z" fill="#2D3648" stroke="#2D3648" stroke-width="0.953188" stroke-linecap="round" stroke-linejoin="round"/>
<path d="M282.448 90.5357C281.614 91.3495 280.555 91.8938 279.408 92.0977C278.26 92.3016 277.078 92.1557 276.015 91.6791C274.952 91.2024 274.057 90.417 273.446 89.4249C272.835 88.4327 272.536 87.2798 272.589 86.1158C272.642 84.9519 273.044 83.8307 273.742 82.898C274.441 81.9654 275.403 81.2643 276.505 80.886C277.607 80.5077 278.798 80.4695 279.922 80.7766C281.046 81.0836 282.051 81.7216 282.808 82.6077C283.306 83.1512 283.692 83.7877 283.944 84.4808C284.196 85.1739 284.308 85.9098 284.275 86.6465C284.241 87.3831 284.063 88.1058 283.749 88.7732C283.436 89.4407 282.994 90.0396 282.448 90.5357V90.5357Z" fill="white"/>
<path d="M276.504 77.1361C276.246 77.3638 275.926 77.5095 275.585 77.5545C275.244 77.5994 274.898 77.5415 274.59 77.3883C274.282 77.2351 274.027 76.9934 273.857 76.6943C273.687 76.3951 273.61 76.0521 273.637 75.7092C273.663 75.3662 273.791 75.0389 274.004 74.7692C274.218 74.4994 274.507 74.2995 274.835 74.195C275.162 74.0905 275.514 74.0861 275.844 74.1825C276.174 74.2789 276.468 74.4717 276.688 74.7361C276.977 75.0807 277.12 75.5249 277.086 75.9736C277.051 76.4223 276.842 76.8396 276.504 77.1361V77.1361Z" fill="white"/>
<path d="M105.647 215.102L100.512 214.597L99.7819 222.017L104.917 222.522L105.647 215.102Z" fill="#2D3648"/>
<path d="M164 274.768V263.792H168.096C169.248 263.792 170.229 263.984 171.04 264.368C171.851 264.752 172.469 265.35 172.896 266.16C173.333 266.96 173.552 268 173.552 269.28C173.552 270.539 173.333 271.574 172.896 272.384C172.469 273.195 171.851 273.798 171.04 274.192C170.229 274.576 169.248 274.768 168.096 274.768H164ZM165.52 273.456H168.064C168.672 273.456 169.216 273.382 169.696 273.232C170.176 273.072 170.587 272.832 170.928 272.512C171.269 272.192 171.525 271.782 171.696 271.28C171.877 270.768 171.968 270.16 171.968 269.456V269.136C171.968 268.411 171.877 267.798 171.696 267.296C171.525 266.784 171.269 266.368 170.928 266.048C170.597 265.728 170.192 265.494 169.712 265.344C169.232 265.184 168.683 265.104 168.064 265.104H165.52V273.456Z" fill="#717D96"/>
<path d="M177.078 264.768V263.2H178.486V264.768H177.078ZM177.078 274.768V266.352H178.486V274.768H177.078Z" fill="#717D96"/>
<path d="M185.216 274.96C184.64 274.96 184.133 274.902 183.696 274.784C183.258 274.667 182.896 274.496 182.608 274.272C182.32 274.048 182.101 273.782 181.952 273.472C181.802 273.163 181.728 272.811 181.728 272.416C181.728 272.363 181.728 272.315 181.728 272.272C181.728 272.219 181.733 272.176 181.744 272.144H183.136C183.125 272.187 183.12 272.224 183.12 272.256C183.12 272.288 183.12 272.32 183.12 272.352C183.13 272.726 183.226 273.019 183.408 273.232C183.6 273.446 183.861 273.595 184.192 273.68C184.522 273.766 184.89 273.808 185.296 273.808C185.648 273.808 185.973 273.766 186.272 273.68C186.57 273.584 186.805 273.446 186.976 273.264C187.157 273.072 187.248 272.832 187.248 272.544C187.248 272.192 187.13 271.926 186.896 271.744C186.672 271.552 186.373 271.403 186 271.296C185.626 271.19 185.237 271.078 184.832 270.96C184.49 270.864 184.149 270.758 183.808 270.64C183.466 270.523 183.157 270.379 182.88 270.208C182.613 270.038 182.394 269.819 182.224 269.552C182.064 269.275 181.984 268.928 181.984 268.512C181.984 268.139 182.058 267.808 182.208 267.52C182.368 267.232 182.592 266.987 182.88 266.784C183.168 266.582 183.514 266.432 183.92 266.336C184.336 266.23 184.794 266.176 185.296 266.176C185.829 266.176 186.293 266.235 186.688 266.352C187.093 266.47 187.429 266.635 187.696 266.848C187.962 267.062 188.16 267.307 188.288 267.584C188.416 267.851 188.48 268.139 188.48 268.448C188.48 268.512 188.48 268.576 188.48 268.64C188.48 268.694 188.474 268.736 188.464 268.768H187.088V268.592C187.088 268.379 187.029 268.176 186.912 267.984C186.805 267.782 186.613 267.622 186.336 267.504C186.069 267.376 185.696 267.312 185.216 267.312C184.906 267.312 184.64 267.339 184.416 267.392C184.192 267.435 184.005 267.51 183.856 267.616C183.706 267.712 183.594 267.83 183.52 267.968C183.445 268.096 183.408 268.246 183.408 268.416C183.408 268.694 183.498 268.907 183.68 269.056C183.861 269.206 184.101 269.328 184.4 269.424C184.709 269.52 185.04 269.627 185.392 269.744C185.765 269.851 186.144 269.963 186.528 270.08C186.922 270.187 187.28 270.326 187.6 270.496C187.93 270.667 188.192 270.902 188.384 271.2C188.586 271.488 188.688 271.872 188.688 272.352C188.688 272.8 188.602 273.19 188.432 273.52C188.261 273.851 188.016 274.123 187.696 274.336C187.386 274.55 187.018 274.704 186.592 274.8C186.176 274.907 185.717 274.96 185.216 274.96Z" fill="#717D96"/>
<path d="M194.14 274.96C193.831 274.96 193.521 274.923 193.212 274.848C192.903 274.774 192.615 274.651 192.348 274.48C192.081 274.31 191.868 274.075 191.708 273.776C191.548 273.467 191.468 273.083 191.468 272.624C191.468 272.048 191.607 271.574 191.884 271.2C192.161 270.827 192.545 270.539 193.036 270.336C193.537 270.123 194.129 269.979 194.812 269.904C195.495 269.819 196.236 269.776 197.036 269.776V268.816C197.036 268.507 196.983 268.24 196.876 268.016C196.769 267.792 196.577 267.622 196.3 267.504C196.033 267.376 195.649 267.312 195.148 267.312C194.668 267.312 194.284 267.376 193.996 267.504C193.719 267.622 193.521 267.776 193.404 267.968C193.297 268.16 193.244 268.374 193.244 268.608V268.848H191.884C191.873 268.795 191.868 268.742 191.868 268.688C191.868 268.635 191.868 268.571 191.868 268.496C191.868 267.984 192.007 267.558 192.284 267.216C192.572 266.864 192.972 266.603 193.484 266.432C193.996 266.251 194.583 266.16 195.244 266.16C195.948 266.16 196.535 266.262 197.004 266.464C197.484 266.667 197.841 266.955 198.076 267.328C198.321 267.702 198.444 268.15 198.444 268.672V273.232C198.444 273.435 198.492 273.579 198.588 273.664C198.684 273.739 198.801 273.776 198.94 273.776H199.564V274.704C199.415 274.768 199.249 274.822 199.068 274.864C198.887 274.918 198.679 274.944 198.444 274.944C198.167 274.944 197.937 274.886 197.756 274.768C197.575 274.662 197.436 274.512 197.34 274.32C197.244 274.118 197.18 273.894 197.148 273.648H197.036C196.844 273.915 196.599 274.15 196.3 274.352C196.012 274.544 195.687 274.694 195.324 274.8C194.961 274.907 194.567 274.96 194.14 274.96ZM194.492 273.776C194.833 273.776 195.153 273.723 195.452 273.616C195.761 273.51 196.033 273.36 196.268 273.168C196.503 272.966 196.689 272.726 196.828 272.448C196.967 272.171 197.036 271.867 197.036 271.536V270.832C196.172 270.832 195.436 270.88 194.828 270.976C194.22 271.072 193.751 271.243 193.42 271.488C193.1 271.734 192.94 272.08 192.94 272.528C192.94 272.816 193.004 273.051 193.132 273.232C193.26 273.414 193.441 273.552 193.676 273.648C193.911 273.734 194.183 273.776 194.492 273.776Z" fill="#717D96"/>
<path d="M206.347 274.96C205.781 274.96 205.275 274.848 204.827 274.624C204.379 274.39 204.011 274.038 203.723 273.568H203.611L203.467 274.768H202.347V263.2H203.755V267.408H203.851C204.043 267.11 204.267 266.87 204.523 266.688C204.779 266.507 205.067 266.374 205.387 266.288C205.707 266.203 206.048 266.16 206.411 266.16C207.061 266.16 207.632 266.315 208.123 266.624C208.613 266.934 208.992 267.408 209.259 268.048C209.536 268.688 209.675 269.504 209.675 270.496C209.675 271.542 209.541 272.395 209.275 273.056C209.008 273.707 208.629 274.187 208.139 274.496C207.648 274.806 207.051 274.96 206.347 274.96ZM206.011 273.728C206.491 273.728 206.891 273.632 207.211 273.44C207.541 273.248 207.792 272.934 207.963 272.496C208.133 272.048 208.219 271.462 208.219 270.736V270.4C208.219 269.696 208.139 269.126 207.979 268.688C207.819 268.24 207.573 267.915 207.243 267.712C206.912 267.499 206.485 267.392 205.963 267.392C205.664 267.392 205.381 267.44 205.115 267.536C204.848 267.632 204.608 267.798 204.395 268.032C204.192 268.267 204.032 268.582 203.915 268.976C203.808 269.371 203.755 269.856 203.755 270.432V270.688C203.755 271.35 203.829 271.904 203.979 272.352C204.139 272.8 204.384 273.142 204.715 273.376C205.056 273.611 205.488 273.728 206.011 273.728Z" fill="#717D96"/>
<path d="M213.025 274.768V263.2H214.433V274.768H213.025Z" fill="#717D96"/>
<path d="M221.579 274.96C220.747 274.96 220.043 274.806 219.467 274.496C218.901 274.176 218.469 273.691 218.171 273.04C217.883 272.39 217.739 271.563 217.739 270.56C217.739 269.547 217.883 268.72 218.171 268.08C218.469 267.43 218.907 266.95 219.483 266.64C220.059 266.32 220.779 266.16 221.643 266.16C222.432 266.16 223.093 266.315 223.627 266.624C224.16 266.923 224.56 267.376 224.827 267.984C225.104 268.582 225.243 269.334 225.243 270.24V270.912H219.195C219.216 271.584 219.312 272.139 219.483 272.576C219.664 273.003 219.931 273.318 220.283 273.52C220.635 273.712 221.077 273.808 221.611 273.808C221.973 273.808 222.288 273.766 222.555 273.68C222.832 273.584 223.061 273.451 223.243 273.28C223.435 273.11 223.579 272.907 223.675 272.672C223.771 272.438 223.824 272.182 223.835 271.904H225.211C225.2 272.352 225.115 272.768 224.955 273.152C224.795 273.526 224.56 273.846 224.251 274.112C223.941 274.379 223.563 274.587 223.115 274.736C222.667 274.886 222.155 274.96 221.579 274.96ZM219.227 269.856H223.787C223.787 269.387 223.733 268.992 223.627 268.672C223.52 268.352 223.365 268.091 223.163 267.888C222.971 267.686 222.741 267.542 222.475 267.456C222.219 267.36 221.925 267.312 221.595 267.312C221.104 267.312 220.688 267.403 220.347 267.584C220.005 267.766 219.744 268.043 219.563 268.416C219.381 268.79 219.269 269.27 219.227 269.856Z" fill="#717D96"/>
<path d="M231.448 274.96C230.755 274.96 230.158 274.806 229.656 274.496C229.166 274.187 228.782 273.707 228.504 273.056C228.238 272.395 228.104 271.542 228.104 270.496C228.104 269.504 228.243 268.688 228.52 268.048C228.798 267.408 229.182 266.934 229.672 266.624C230.163 266.315 230.734 266.16 231.384 266.16C231.758 266.16 232.104 266.203 232.424 266.288C232.744 266.374 233.027 266.507 233.272 266.688C233.528 266.87 233.752 267.11 233.944 267.408H234.04V263.2H235.448V274.768H234.312L234.184 273.568H234.072C233.784 274.038 233.411 274.39 232.952 274.624C232.494 274.848 231.992 274.96 231.448 274.96ZM231.784 273.728C232.318 273.728 232.75 273.611 233.08 273.376C233.411 273.142 233.651 272.8 233.8 272.352C233.96 271.904 234.04 271.35 234.04 270.688V270.432C234.04 269.856 233.982 269.371 233.864 268.976C233.747 268.582 233.587 268.267 233.384 268.032C233.182 267.798 232.947 267.632 232.68 267.536C232.414 267.44 232.131 267.392 231.832 267.392C231.31 267.392 230.883 267.499 230.552 267.712C230.222 267.915 229.976 268.24 229.816 268.688C229.656 269.126 229.576 269.696 229.576 270.4V270.736C229.576 271.462 229.662 272.048 229.832 272.496C230.003 272.934 230.248 273.248 230.568 273.44C230.899 273.632 231.304 273.728 231.784 273.728Z" fill="#717D96"/>
</svg>
